%TF.GenerationSoftware,KiCad,Pcbnew,10.0.5*%
%TF.CreationDate,2026-09-25T21:53:20+08:00*%
%TF.ProjectId,Aster-MCA-v2.0,41737465-722d-44d4-9341-2d76322e302e,rev?*%
%TF.SameCoordinates,Original*%
%TF.FileFunction,Paste,Top*%
%TF.FilePolarity,Positive*%
%FSLAX46Y46*%
G04 Gerber Fmt 4.6, Leading zero omitted, Abs format (unit mm)*
G04 Created by KiCad (PCBNEW 10.0.5) date 2026-09-25 21:53:20*
%MOMM*%
%LPD*%
G01*
G04 APERTURE LIST*
G04 Aperture macros list*
%AMRoundRect*
0 Rectangle with rounded corners*
0 $1 Rounding radius*
0 $2 $3 $4 $5 $6 $7 $8 $9 X,Y pos of 4 corners*
0 Add a 4 corners polygon primitive as box body*
4,1,4,$2,$3,$4,$5,$6,$7,$8,$9,$2,$3,0*
0 Add four circle primitives for the rounded corners*
1,1,$1+$1,$2,$3*
1,1,$1+$1,$4,$5*
1,1,$1+$1,$6,$7*
1,1,$1+$1,$8,$9*
0 Add four rect primitives between the rounded corners*
20,1,$1+$1,$2,$3,$4,$5,0*
20,1,$1+$1,$4,$5,$6,$7,0*
20,1,$1+$1,$6,$7,$8,$9,0*
20,1,$1+$1,$8,$9,$2,$3,0*%
G04 Aperture macros list end*
%ADD10RoundRect,0.250000X-0.337500X-0.475000X0.337500X-0.475000X0.337500X0.475000X-0.337500X0.475000X0*%
%ADD11RoundRect,0.250000X-0.350000X-0.450000X0.350000X-0.450000X0.350000X0.450000X-0.350000X0.450000X0*%
%ADD12RoundRect,0.225000X-0.225000X-0.250000X0.225000X-0.250000X0.225000X0.250000X-0.225000X0.250000X0*%
%ADD13RoundRect,0.250000X0.650000X-0.412500X0.650000X0.412500X-0.650000X0.412500X-0.650000X-0.412500X0*%
%ADD14RoundRect,0.250000X-0.262500X-0.450000X0.262500X-0.450000X0.262500X0.450000X-0.262500X0.450000X0*%
%ADD15RoundRect,0.125000X0.125000X-0.687500X0.125000X0.687500X-0.125000X0.687500X-0.125000X-0.687500X0*%
%ADD16RoundRect,0.250000X-0.300000X-0.300000X0.300000X-0.300000X0.300000X0.300000X-0.300000X0.300000X0*%
%ADD17RoundRect,0.250000X-0.275000X-0.350000X0.275000X-0.350000X0.275000X0.350000X-0.275000X0.350000X0*%
%ADD18RoundRect,0.250000X0.350000X0.450000X-0.350000X0.450000X-0.350000X-0.450000X0.350000X-0.450000X0*%
%ADD19R,0.800000X0.500000*%
%ADD20R,0.800000X0.400000*%
%ADD21RoundRect,0.250000X0.450000X-0.350000X0.450000X0.350000X-0.450000X0.350000X-0.450000X-0.350000X0*%
%ADD22RoundRect,0.162500X0.837500X0.162500X-0.837500X0.162500X-0.837500X-0.162500X0.837500X-0.162500X0*%
%ADD23RoundRect,0.250000X0.250000X-0.250000X0.250000X0.250000X-0.250000X0.250000X-0.250000X-0.250000X0*%
%ADD24RoundRect,0.250000X-0.285000X0.285000X-0.285000X-0.285000X0.285000X-0.285000X0.285000X0.285000X0*%
%ADD25RoundRect,0.075000X-0.075000X0.662500X-0.075000X-0.662500X0.075000X-0.662500X0.075000X0.662500X0*%
%ADD26RoundRect,0.075000X-0.662500X0.075000X-0.662500X-0.075000X0.662500X-0.075000X0.662500X0.075000X0*%
%ADD27RoundRect,0.140000X0.170000X-0.140000X0.170000X0.140000X-0.170000X0.140000X-0.170000X-0.140000X0*%
%ADD28RoundRect,0.250000X-0.270000X0.270000X-0.270000X-0.270000X0.270000X-0.270000X0.270000X0.270000X0*%
%ADD29RoundRect,0.062500X-0.062500X0.375000X-0.062500X-0.375000X0.062500X-0.375000X0.062500X0.375000X0*%
%ADD30RoundRect,0.062500X-0.375000X0.062500X-0.375000X-0.062500X0.375000X-0.062500X0.375000X0.062500X0*%
%ADD31RoundRect,0.250000X-0.412500X-0.650000X0.412500X-0.650000X0.412500X0.650000X-0.412500X0.650000X0*%
%ADD32RoundRect,0.250000X0.600000X2.600000X-0.600000X2.600000X-0.600000X-2.600000X0.600000X-2.600000X0*%
%ADD33RoundRect,0.250001X-0.462499X-0.624999X0.462499X-0.624999X0.462499X0.624999X-0.462499X0.624999X0*%
%ADD34RoundRect,0.250000X-0.725000X-0.575000X0.725000X-0.575000X0.725000X0.575000X-0.725000X0.575000X0*%
%ADD35RoundRect,0.225000X0.250000X-0.225000X0.250000X0.225000X-0.250000X0.225000X-0.250000X-0.225000X0*%
G04 APERTURE END LIST*
D10*
%TO.C,C26*%
X54962500Y-26000000D03*
X57037500Y-26000000D03*
%TD*%
D11*
%TO.C,R1*%
X19000000Y-49000000D03*
X21000000Y-49000000D03*
%TD*%
D10*
%TO.C,C28*%
X34962500Y-53000000D03*
X37037500Y-53000000D03*
%TD*%
D12*
%TO.C,C21*%
X56725000Y-59500000D03*
X58275000Y-59500000D03*
%TD*%
%TO.C,C33*%
X34725000Y-55300000D03*
X36275000Y-55300000D03*
%TD*%
D13*
%TO.C,C39*%
X76500000Y-62562500D03*
X76500000Y-59437500D03*
%TD*%
D11*
%TO.C,R15*%
X31800000Y-26500000D03*
X33800000Y-26500000D03*
%TD*%
%TO.C,R47*%
X24500000Y-32799999D03*
X26500000Y-32799999D03*
%TD*%
D12*
%TO.C,C34*%
X37925000Y-55300000D03*
X39475000Y-55300000D03*
%TD*%
D11*
%TO.C,R39*%
X73500000Y-53000000D03*
X75500000Y-53000000D03*
%TD*%
D12*
%TO.C,C19*%
X49725000Y-57000000D03*
X51275000Y-57000000D03*
%TD*%
D11*
%TO.C,R4*%
X24500000Y-35200000D03*
X26500000Y-35200000D03*
%TD*%
D14*
%TO.C,R10*%
X32587500Y-35800000D03*
X34412500Y-35800000D03*
%TD*%
D12*
%TO.C,C11*%
X48225000Y-30000000D03*
X49775000Y-30000000D03*
%TD*%
D10*
%TO.C,C27*%
X59962500Y-26000000D03*
X62037500Y-26000000D03*
%TD*%
D11*
%TO.C,R33*%
X72000000Y-26000000D03*
X74000000Y-26000000D03*
%TD*%
D14*
%TO.C,R9*%
X32587500Y-41200000D03*
X34412500Y-41200000D03*
%TD*%
D12*
%TO.C,C24*%
X67225000Y-57000000D03*
X68775000Y-57000000D03*
%TD*%
D15*
%TO.C,U3*%
X29025000Y-40612500D03*
X29675000Y-40612500D03*
X30325000Y-40612500D03*
X30975000Y-40612500D03*
X30975000Y-36387500D03*
X30325000Y-36387500D03*
X29675000Y-36387500D03*
X29025000Y-36387500D03*
%TD*%
D12*
%TO.C,C30*%
X43225000Y-32500000D03*
X44775000Y-32500000D03*
%TD*%
D11*
%TO.C,R12*%
X35000000Y-29000000D03*
X37000000Y-29000000D03*
%TD*%
D16*
%TO.C,D6*%
X75600000Y-57000000D03*
X78400000Y-57000000D03*
%TD*%
D11*
%TO.C,R34*%
X77000000Y-26000000D03*
X79000000Y-26000000D03*
%TD*%
D12*
%TO.C,C18*%
X46225000Y-57000000D03*
X47775000Y-57000000D03*
%TD*%
%TO.C,C20*%
X53225000Y-57000000D03*
X54775000Y-57000000D03*
%TD*%
%TO.C,C31*%
X46225000Y-32500000D03*
X47775000Y-32500000D03*
%TD*%
%TO.C,C7*%
X33225000Y-43500000D03*
X34775000Y-43500000D03*
%TD*%
D11*
%TO.C,R11*%
X21900000Y-46500000D03*
X23900000Y-46500000D03*
%TD*%
%TO.C,R14*%
X33000000Y-24000000D03*
X35000000Y-24000000D03*
%TD*%
D12*
%TO.C,C36*%
X41125000Y-55300000D03*
X42675000Y-55300000D03*
%TD*%
D11*
%TO.C,R6*%
X24500000Y-37600000D03*
X26500000Y-37600000D03*
%TD*%
%TO.C,R3*%
X24500000Y-40000000D03*
X26500000Y-40000000D03*
%TD*%
D17*
%TO.C,FB1*%
X44850000Y-61000000D03*
X47150000Y-61000000D03*
%TD*%
D11*
%TO.C,R41*%
X73500000Y-41000000D03*
X75500000Y-41000000D03*
%TD*%
%TO.C,R36*%
X73500000Y-33000000D03*
X75500000Y-33000000D03*
%TD*%
D17*
%TO.C,FB2*%
X40850000Y-61000000D03*
X43150000Y-61000000D03*
%TD*%
D12*
%TO.C,C16*%
X65725000Y-30000000D03*
X67275000Y-30000000D03*
%TD*%
D11*
%TO.C,R13*%
X40000000Y-29000000D03*
X42000000Y-29000000D03*
%TD*%
%TO.C,R44*%
X78500000Y-41000000D03*
X80500000Y-41000000D03*
%TD*%
D12*
%TO.C,C35*%
X35725000Y-49300000D03*
X37275000Y-49300000D03*
%TD*%
D17*
%TO.C,FB3*%
X48850000Y-61000000D03*
X51150000Y-61000000D03*
%TD*%
D11*
%TO.C,R42*%
X78500000Y-29000000D03*
X80500000Y-29000000D03*
%TD*%
D18*
%TO.C,R8*%
X31000000Y-32800000D03*
X29000000Y-32800000D03*
%TD*%
D10*
%TO.C,C25*%
X49962500Y-26000000D03*
X52037500Y-26000000D03*
%TD*%
D12*
%TO.C,C12*%
X51725000Y-30000000D03*
X53275000Y-30000000D03*
%TD*%
D11*
%TO.C,R43*%
X78500000Y-35000000D03*
X80500000Y-35000000D03*
%TD*%
D19*
%TO.C,RN3*%
X45600000Y-43400000D03*
D20*
X45600000Y-44200000D03*
X45600000Y-45000000D03*
D19*
X45600000Y-45800000D03*
X47400000Y-45800000D03*
D20*
X47400000Y-45000000D03*
X47400000Y-44200000D03*
D19*
X47400000Y-43400000D03*
%TD*%
D21*
%TO.C,R16*%
X40750000Y-34000000D03*
X40750000Y-32000000D03*
%TD*%
D22*
%TO.C,U4*%
X71910000Y-64950000D03*
X71910000Y-64000000D03*
X71910000Y-63050000D03*
X68490000Y-63050000D03*
X68490000Y-64000000D03*
X68490000Y-64950000D03*
%TD*%
D12*
%TO.C,C37*%
X44325000Y-55300000D03*
X45875000Y-55300000D03*
%TD*%
D23*
%TO.C,D1*%
X20000000Y-46250000D03*
X20000000Y-43750000D03*
%TD*%
D24*
%TO.C,U1*%
X61330000Y-42670000D03*
X60000000Y-42670000D03*
X58670000Y-42670000D03*
X61330000Y-44000000D03*
X60000000Y-44000000D03*
X58670000Y-44000000D03*
X61330000Y-45330000D03*
X60000000Y-45330000D03*
X58670000Y-45330000D03*
D25*
X68750000Y-33337500D03*
X68250000Y-33337500D03*
X67750000Y-33337500D03*
X67250000Y-33337500D03*
X66750000Y-33337500D03*
X66250000Y-33337500D03*
X65750000Y-33337500D03*
X65250000Y-33337500D03*
X64750000Y-33337500D03*
X64250000Y-33337500D03*
X63750000Y-33337500D03*
X63250000Y-33337500D03*
X62750000Y-33337500D03*
X62250000Y-33337500D03*
X61750000Y-33337500D03*
X61250000Y-33337500D03*
X60750000Y-33337500D03*
X60250000Y-33337500D03*
X59750000Y-33337500D03*
X59250000Y-33337500D03*
X58750000Y-33337500D03*
X58250000Y-33337500D03*
X57750000Y-33337500D03*
X57250000Y-33337500D03*
X56750000Y-33337500D03*
X56250000Y-33337500D03*
X55750000Y-33337500D03*
X55250000Y-33337500D03*
X54750000Y-33337500D03*
X54250000Y-33337500D03*
X53750000Y-33337500D03*
X53250000Y-33337500D03*
X52750000Y-33337500D03*
X52250000Y-33337500D03*
X51750000Y-33337500D03*
X51250000Y-33337500D03*
D26*
X49337500Y-35250000D03*
X49337500Y-35750000D03*
X49337500Y-36250000D03*
X49337500Y-36750000D03*
X49337500Y-37250000D03*
X49337500Y-37750000D03*
X49337500Y-38250000D03*
X49337500Y-38750000D03*
X49337500Y-39250000D03*
X49337500Y-39750000D03*
X49337500Y-40250000D03*
X49337500Y-40750000D03*
X49337500Y-41250000D03*
X49337500Y-41750000D03*
X49337500Y-42250000D03*
X49337500Y-42750000D03*
X49337500Y-43250000D03*
X49337500Y-43750000D03*
X49337500Y-44250000D03*
X49337500Y-44750000D03*
X49337500Y-45250000D03*
X49337500Y-45750000D03*
X49337500Y-46250000D03*
X49337500Y-46750000D03*
X49337500Y-47250000D03*
X49337500Y-47750000D03*
X49337500Y-48250000D03*
X49337500Y-48750000D03*
X49337500Y-49250000D03*
X49337500Y-49750000D03*
X49337500Y-50250000D03*
X49337500Y-50750000D03*
X49337500Y-51250000D03*
X49337500Y-51750000D03*
X49337500Y-52250000D03*
X49337500Y-52750000D03*
D25*
X51250000Y-54662500D03*
X51750000Y-54662500D03*
X52250000Y-54662500D03*
X52750000Y-54662500D03*
X53250000Y-54662500D03*
X53750000Y-54662500D03*
X54250000Y-54662500D03*
X54750000Y-54662500D03*
X55250000Y-54662500D03*
X55750000Y-54662500D03*
X56250000Y-54662500D03*
X56750000Y-54662500D03*
X57250000Y-54662500D03*
X57750000Y-54662500D03*
X58250000Y-54662500D03*
X58750000Y-54662500D03*
X59250000Y-54662500D03*
X59750000Y-54662500D03*
X60250000Y-54662500D03*
X60750000Y-54662500D03*
X61250000Y-54662500D03*
X61750000Y-54662500D03*
X62250000Y-54662500D03*
X62750000Y-54662500D03*
X63250000Y-54662500D03*
X63750000Y-54662500D03*
X64250000Y-54662500D03*
X64750000Y-54662500D03*
X65250000Y-54662500D03*
X65750000Y-54662500D03*
X66250000Y-54662500D03*
X66750000Y-54662500D03*
X67250000Y-54662500D03*
X67750000Y-54662500D03*
X68250000Y-54662500D03*
X68750000Y-54662500D03*
D26*
X70662500Y-52750000D03*
X70662500Y-52250000D03*
X70662500Y-51750000D03*
X70662500Y-51250000D03*
X70662500Y-50750000D03*
X70662500Y-50250000D03*
X70662500Y-49750000D03*
X70662500Y-49250000D03*
X70662500Y-48750000D03*
X70662500Y-48250000D03*
X70662500Y-47750000D03*
X70662500Y-47250000D03*
X70662500Y-46750000D03*
X70662500Y-46250000D03*
X70662500Y-45750000D03*
X70662500Y-45250000D03*
X70662500Y-44750000D03*
X70662500Y-44250000D03*
X70662500Y-43750000D03*
X70662500Y-43250000D03*
X70662500Y-42750000D03*
X70662500Y-42250000D03*
X70662500Y-41750000D03*
X70662500Y-41250000D03*
X70662500Y-40750000D03*
X70662500Y-40250000D03*
X70662500Y-39750000D03*
X70662500Y-39250000D03*
X70662500Y-38750000D03*
X70662500Y-38250000D03*
X70662500Y-37750000D03*
X70662500Y-37250000D03*
X70662500Y-36750000D03*
X70662500Y-36250000D03*
X70662500Y-35750000D03*
X70662500Y-35250000D03*
%TD*%
D27*
%TO.C,C38*%
X66550000Y-65030000D03*
X66550000Y-64070000D03*
%TD*%
D19*
%TO.C,RN4*%
X45600000Y-47200000D03*
D20*
X45600000Y-48000000D03*
X45600000Y-48800000D03*
D19*
X45600000Y-49600000D03*
X47400000Y-49600000D03*
D20*
X47400000Y-48800000D03*
X47400000Y-48000000D03*
D19*
X47400000Y-47200000D03*
%TD*%
D11*
%TO.C,R5*%
X24500000Y-42400000D03*
X26500000Y-42400000D03*
%TD*%
D12*
%TO.C,C22*%
X60225000Y-57000000D03*
X61775000Y-57000000D03*
%TD*%
D10*
%TO.C,C8*%
X30462500Y-52000000D03*
X32537500Y-52000000D03*
%TD*%
D11*
%TO.C,R45*%
X78500000Y-47000000D03*
X80500000Y-47000000D03*
%TD*%
D12*
%TO.C,C2*%
X33425000Y-39500000D03*
X34975000Y-39500000D03*
%TD*%
%TO.C,C13*%
X55225000Y-30000000D03*
X56775000Y-30000000D03*
%TD*%
D28*
%TO.C,U2*%
X41935000Y-38065000D03*
X40645000Y-38065000D03*
X39355000Y-38065000D03*
X38065000Y-38065000D03*
X41935000Y-39355000D03*
X40645000Y-39355000D03*
X39355000Y-39355000D03*
X38065000Y-39355000D03*
X41935000Y-40645000D03*
X40645000Y-40645000D03*
X39355000Y-40645000D03*
X38065000Y-40645000D03*
X41935000Y-41935000D03*
X40645000Y-41935000D03*
X39355000Y-41935000D03*
X38065000Y-41935000D03*
D29*
X42750000Y-36562500D03*
X42250000Y-36562500D03*
X41750000Y-36562500D03*
X41250000Y-36562500D03*
X40750000Y-36562500D03*
X40250000Y-36562500D03*
X39750000Y-36562500D03*
X39250000Y-36562500D03*
X38750000Y-36562500D03*
X38250000Y-36562500D03*
X37750000Y-36562500D03*
X37250000Y-36562500D03*
D30*
X36562500Y-37250000D03*
X36562500Y-37750000D03*
X36562500Y-38250000D03*
X36562500Y-38750000D03*
X36562500Y-39250000D03*
X36562500Y-39750000D03*
X36562500Y-40250000D03*
X36562500Y-40750000D03*
X36562500Y-41250000D03*
X36562500Y-41750000D03*
X36562500Y-42250000D03*
X36562500Y-42750000D03*
D29*
X37250000Y-43437500D03*
X37750000Y-43437500D03*
X38250000Y-43437500D03*
X38750000Y-43437500D03*
X39250000Y-43437500D03*
X39750000Y-43437500D03*
X40250000Y-43437500D03*
X40750000Y-43437500D03*
X41250000Y-43437500D03*
X41750000Y-43437500D03*
X42250000Y-43437500D03*
X42750000Y-43437500D03*
D30*
X43437500Y-42750000D03*
X43437500Y-42250000D03*
X43437500Y-41750000D03*
X43437500Y-41250000D03*
X43437500Y-40750000D03*
X43437500Y-40250000D03*
X43437500Y-39750000D03*
X43437500Y-39250000D03*
X43437500Y-38750000D03*
X43437500Y-38250000D03*
X43437500Y-37750000D03*
X43437500Y-37250000D03*
%TD*%
D31*
%TO.C,C40*%
X53937500Y-62000000D03*
X57062500Y-62000000D03*
%TD*%
D10*
%TO.C,C6*%
X27462500Y-48500000D03*
X29537500Y-48500000D03*
%TD*%
D12*
%TO.C,C17*%
X69225000Y-30000000D03*
X70775000Y-30000000D03*
%TD*%
%TO.C,C5*%
X32225000Y-48000000D03*
X33775000Y-48000000D03*
%TD*%
D32*
%TO.C,L1*%
X64750000Y-64000000D03*
X60250000Y-64000000D03*
%TD*%
D33*
%TO.C,F1*%
X70512500Y-57000000D03*
X73487500Y-57000000D03*
%TD*%
D17*
%TO.C,FB4*%
X36850000Y-61000000D03*
X39150000Y-61000000D03*
%TD*%
D11*
%TO.C,R38*%
X77500000Y-50000000D03*
X79500000Y-50000000D03*
%TD*%
D12*
%TO.C,C23*%
X63725000Y-57000000D03*
X65275000Y-57000000D03*
%TD*%
D34*
%TO.C,Y1*%
X26625000Y-28100000D03*
X29375000Y-28100000D03*
X29375000Y-25900000D03*
X26625000Y-25900000D03*
%TD*%
D10*
%TO.C,C29*%
X39962500Y-53000000D03*
X42037500Y-53000000D03*
%TD*%
D19*
%TO.C,RN1*%
X45600000Y-35800000D03*
D20*
X45600000Y-36600000D03*
X45600000Y-37400000D03*
D19*
X45600000Y-38200000D03*
X47400000Y-38200000D03*
D20*
X47400000Y-37400000D03*
X47400000Y-36600000D03*
D19*
X47400000Y-35800000D03*
%TD*%
D12*
%TO.C,C15*%
X62225000Y-30000000D03*
X63775000Y-30000000D03*
%TD*%
D21*
%TO.C,R2*%
X17800000Y-36000000D03*
X17800000Y-34000000D03*
%TD*%
D11*
%TO.C,R35*%
X73500000Y-30000000D03*
X75500000Y-30000000D03*
%TD*%
D35*
%TO.C,C10*%
X38250000Y-33975000D03*
X38250000Y-32425000D03*
%TD*%
D11*
%TO.C,R37*%
X73500000Y-49000000D03*
X75500000Y-49000000D03*
%TD*%
D16*
%TO.C,D7*%
X74600000Y-65000000D03*
X77400000Y-65000000D03*
%TD*%
D18*
%TO.C,R7*%
X31000000Y-44700000D03*
X29000000Y-44700000D03*
%TD*%
D35*
%TO.C,C9*%
X35500000Y-33975000D03*
X35500000Y-32425000D03*
%TD*%
D19*
%TO.C,RN2*%
X45600000Y-39600000D03*
D20*
X45600000Y-40400000D03*
X45600000Y-41200000D03*
D19*
X45600000Y-42000000D03*
X47400000Y-42000000D03*
D20*
X47400000Y-41200000D03*
X47400000Y-40400000D03*
D19*
X47400000Y-39600000D03*
%TD*%
D35*
%TO.C,C42*%
X24000000Y-28775000D03*
X24000000Y-27225000D03*
%TD*%
D11*
%TO.C,R40*%
X73500000Y-37000000D03*
X75500000Y-37000000D03*
%TD*%
D21*
%TO.C,R46*%
X25800000Y-46300000D03*
X25800000Y-44300000D03*
%TD*%
D12*
%TO.C,C32*%
X35725000Y-46800000D03*
X37275000Y-46800000D03*
%TD*%
D31*
%TO.C,C41*%
X53937500Y-66000000D03*
X57062500Y-66000000D03*
%TD*%
D12*
%TO.C,C14*%
X58725000Y-30000000D03*
X60275000Y-30000000D03*
%TD*%
M02*
