%TF.GenerationSoftware,KiCad,Pcbnew,10.0.5*%
%TF.CreationDate,2026-09-25T21:53:20+08:00*%
%TF.ProjectId,Aster-MCA-v2.0,41737465-722d-44d4-9341-2d76322e302e,rev?*%
%TF.SameCoordinates,Original*%
%TF.FileFunction,Legend,Bot*%
%TF.FilePolarity,Positive*%
%FSLAX46Y46*%
G04 Gerber Fmt 4.6, Leading zero omitted, Abs format (unit mm)*
G04 Created by KiCad (PCBNEW 10.0.5) date 2026-09-25 21:53:20*
%MOMM*%
%LPD*%
G01*
G04 APERTURE LIST*
%ADD10C,0.130000*%
G04 APERTURE END LIST*
D10*
X52057142Y-35205525D02*
X51485714Y-35205525D01*
X52171428Y-35548382D02*
X51771428Y-34348382D01*
X51771428Y-34348382D02*
X51371428Y-35548382D01*
X51028571Y-35491240D02*
X50857143Y-35548382D01*
X50857143Y-35548382D02*
X50571428Y-35548382D01*
X50571428Y-35548382D02*
X50457143Y-35491240D01*
X50457143Y-35491240D02*
X50400000Y-35434097D01*
X50400000Y-35434097D02*
X50342857Y-35319811D01*
X50342857Y-35319811D02*
X50342857Y-35205525D01*
X50342857Y-35205525D02*
X50400000Y-35091240D01*
X50400000Y-35091240D02*
X50457143Y-35034097D01*
X50457143Y-35034097D02*
X50571428Y-34976954D01*
X50571428Y-34976954D02*
X50800000Y-34919811D01*
X50800000Y-34919811D02*
X50914285Y-34862668D01*
X50914285Y-34862668D02*
X50971428Y-34805525D01*
X50971428Y-34805525D02*
X51028571Y-34691240D01*
X51028571Y-34691240D02*
X51028571Y-34576954D01*
X51028571Y-34576954D02*
X50971428Y-34462668D01*
X50971428Y-34462668D02*
X50914285Y-34405525D01*
X50914285Y-34405525D02*
X50800000Y-34348382D01*
X50800000Y-34348382D02*
X50514285Y-34348382D01*
X50514285Y-34348382D02*
X50342857Y-34405525D01*
X50000000Y-34348382D02*
X49314286Y-34348382D01*
X49657143Y-35548382D02*
X49657143Y-34348382D01*
X48914285Y-34919811D02*
X48514285Y-34919811D01*
X48342857Y-35548382D02*
X48914285Y-35548382D01*
X48914285Y-35548382D02*
X48914285Y-34348382D01*
X48914285Y-34348382D02*
X48342857Y-34348382D01*
X47142857Y-35548382D02*
X47542857Y-34976954D01*
X47828571Y-35548382D02*
X47828571Y-34348382D01*
X47828571Y-34348382D02*
X47371428Y-34348382D01*
X47371428Y-34348382D02*
X47257143Y-34405525D01*
X47257143Y-34405525D02*
X47200000Y-34462668D01*
X47200000Y-34462668D02*
X47142857Y-34576954D01*
X47142857Y-34576954D02*
X47142857Y-34748382D01*
X47142857Y-34748382D02*
X47200000Y-34862668D01*
X47200000Y-34862668D02*
X47257143Y-34919811D01*
X47257143Y-34919811D02*
X47371428Y-34976954D01*
X47371428Y-34976954D02*
X47828571Y-34976954D01*
X45714285Y-35548382D02*
X45714285Y-34348382D01*
X45714285Y-34348382D02*
X45314285Y-35205525D01*
X45314285Y-35205525D02*
X44914285Y-34348382D01*
X44914285Y-34348382D02*
X44914285Y-35548382D01*
X43657142Y-35434097D02*
X43714285Y-35491240D01*
X43714285Y-35491240D02*
X43885713Y-35548382D01*
X43885713Y-35548382D02*
X43999999Y-35548382D01*
X43999999Y-35548382D02*
X44171428Y-35491240D01*
X44171428Y-35491240D02*
X44285713Y-35376954D01*
X44285713Y-35376954D02*
X44342856Y-35262668D01*
X44342856Y-35262668D02*
X44399999Y-35034097D01*
X44399999Y-35034097D02*
X44399999Y-34862668D01*
X44399999Y-34862668D02*
X44342856Y-34634097D01*
X44342856Y-34634097D02*
X44285713Y-34519811D01*
X44285713Y-34519811D02*
X44171428Y-34405525D01*
X44171428Y-34405525D02*
X43999999Y-34348382D01*
X43999999Y-34348382D02*
X43885713Y-34348382D01*
X43885713Y-34348382D02*
X43714285Y-34405525D01*
X43714285Y-34405525D02*
X43657142Y-34462668D01*
X43199999Y-35205525D02*
X42628571Y-35205525D01*
X43314285Y-35548382D02*
X42914285Y-34348382D01*
X42914285Y-34348382D02*
X42514285Y-35548382D01*
X41314285Y-34748382D02*
X41028571Y-35548382D01*
X41028571Y-35548382D02*
X40742856Y-34748382D01*
X40342856Y-34462668D02*
X40285713Y-34405525D01*
X40285713Y-34405525D02*
X40171428Y-34348382D01*
X40171428Y-34348382D02*
X39885713Y-34348382D01*
X39885713Y-34348382D02*
X39771428Y-34405525D01*
X39771428Y-34405525D02*
X39714285Y-34462668D01*
X39714285Y-34462668D02*
X39657142Y-34576954D01*
X39657142Y-34576954D02*
X39657142Y-34691240D01*
X39657142Y-34691240D02*
X39714285Y-34862668D01*
X39714285Y-34862668D02*
X40399999Y-35548382D01*
X40399999Y-35548382D02*
X39657142Y-35548382D01*
X39142856Y-35434097D02*
X39085713Y-35491240D01*
X39085713Y-35491240D02*
X39142856Y-35548382D01*
X39142856Y-35548382D02*
X39199999Y-35491240D01*
X39199999Y-35491240D02*
X39142856Y-35434097D01*
X39142856Y-35434097D02*
X39142856Y-35548382D01*
X38342856Y-34348382D02*
X38228570Y-34348382D01*
X38228570Y-34348382D02*
X38114284Y-34405525D01*
X38114284Y-34405525D02*
X38057142Y-34462668D01*
X38057142Y-34462668D02*
X37999999Y-34576954D01*
X37999999Y-34576954D02*
X37942856Y-34805525D01*
X37942856Y-34805525D02*
X37942856Y-35091240D01*
X37942856Y-35091240D02*
X37999999Y-35319811D01*
X37999999Y-35319811D02*
X38057142Y-35434097D01*
X38057142Y-35434097D02*
X38114284Y-35491240D01*
X38114284Y-35491240D02*
X38228570Y-35548382D01*
X38228570Y-35548382D02*
X38342856Y-35548382D01*
X38342856Y-35548382D02*
X38457142Y-35491240D01*
X38457142Y-35491240D02*
X38514284Y-35434097D01*
X38514284Y-35434097D02*
X38571427Y-35319811D01*
X38571427Y-35319811D02*
X38628570Y-35091240D01*
X38628570Y-35091240D02*
X38628570Y-34805525D01*
X38628570Y-34805525D02*
X38571427Y-34576954D01*
X38571427Y-34576954D02*
X38514284Y-34462668D01*
X38514284Y-34462668D02*
X38457142Y-34405525D01*
X38457142Y-34405525D02*
X38342856Y-34348382D01*
M02*
