%TF.GenerationSoftware,KiCad,Pcbnew,10.0.5*%
%TF.CreationDate,2026-09-25T21:53:20+08:00*%
%TF.ProjectId,Aster-MCA-v2.0,41737465-722d-44d4-9341-2d76322e302e,rev?*%
%TF.SameCoordinates,Original*%
%TF.FileFunction,Copper,L3,Inr*%
%TF.FilePolarity,Positive*%
%FSLAX46Y46*%
G04 Gerber Fmt 4.6, Leading zero omitted, Abs format (unit mm)*
G04 Created by KiCad (PCBNEW 10.0.5) date 2026-09-25 21:53:20*
%MOMM*%
%LPD*%
G01*
G04 APERTURE LIST*
G04 Aperture macros list*
%AMRoundRect*
0 Rectangle with rounded corners*
0 $1 Rounding radius*
0 $2 $3 $4 $5 $6 $7 $8 $9 X,Y pos of 4 corners*
0 Add a 4 corners polygon primitive as box body*
4,1,4,$2,$3,$4,$5,$6,$7,$8,$9,$2,$3,0*
0 Add four circle primitives for the rounded corners*
1,1,$1+$1,$2,$3*
1,1,$1+$1,$4,$5*
1,1,$1+$1,$6,$7*
1,1,$1+$1,$8,$9*
0 Add four rect primitives between the rounded corners*
20,1,$1+$1,$2,$3,$4,$5,0*
20,1,$1+$1,$4,$5,$6,$7,0*
20,1,$1+$1,$6,$7,$8,$9,0*
20,1,$1+$1,$8,$9,$2,$3,0*%
G04 Aperture macros list end*
%TA.AperFunction,ComponentPad*%
%ADD10C,3.000000*%
%TD*%
%TA.AperFunction,ComponentPad*%
%ADD11R,1.700000X1.700000*%
%TD*%
%TA.AperFunction,ComponentPad*%
%ADD12C,1.700000*%
%TD*%
%TA.AperFunction,ComponentPad*%
%ADD13R,1.800000X1.800000*%
%TD*%
%TA.AperFunction,ComponentPad*%
%ADD14C,1.800000*%
%TD*%
%TA.AperFunction,ComponentPad*%
%ADD15C,1.500000*%
%TD*%
%TA.AperFunction,ComponentPad*%
%ADD16C,2.100000*%
%TD*%
%TA.AperFunction,ComponentPad*%
%ADD17C,1.750000*%
%TD*%
%TA.AperFunction,ComponentPad*%
%ADD18RoundRect,0.250000X0.450000X0.450000X-0.450000X0.450000X-0.450000X-0.450000X0.450000X-0.450000X0*%
%TD*%
%TA.AperFunction,ComponentPad*%
%ADD19C,1.400000*%
%TD*%
%TA.AperFunction,ComponentPad*%
%ADD20C,4.000000*%
%TD*%
%TA.AperFunction,ComponentPad*%
%ADD21RoundRect,0.400000X0.400000X0.400000X-0.400000X0.400000X-0.400000X-0.400000X0.400000X-0.400000X0*%
%TD*%
%TA.AperFunction,ComponentPad*%
%ADD22C,1.600000*%
%TD*%
%TA.AperFunction,ViaPad*%
%ADD23C,0.600000*%
%TD*%
%TA.AperFunction,ViaPad*%
%ADD24C,0.400000*%
%TD*%
%TA.AperFunction,Conductor*%
%ADD25C,0.180000*%
%TD*%
%ADD26C,0.300000*%
%ADD27C,0.200000*%
%ADD28C,0.350000*%
G04 APERTURE END LIST*
D10*
%TO.N,5V_FUSED*%
%TO.C,TP2*%
X17000000Y-57000000D03*
%TD*%
D11*
%TO.N,3V3_D*%
%TO.C,J3*%
X34000000Y-62800000D03*
D12*
%TO.N,EXT_TRIG*%
X34000000Y-65340000D03*
%TO.N,GND*%
X34000000Y-67880000D03*
%TD*%
D10*
%TO.N,3V3_D*%
%TO.C,TP3*%
X22000000Y-57000000D03*
%TD*%
D13*
%TO.N,LED_R3*%
%TO.C,D4*%
X85500000Y-41000000D03*
D14*
%TO.N,FPGA_TRIG*%
X82960000Y-41000000D03*
%TD*%
D11*
%TO.N,ALT_5V_IN*%
%TO.C,J4*%
X72000000Y-68200000D03*
D12*
%TO.N,GND*%
X74540000Y-68200000D03*
%TD*%
D13*
%TO.N,LED_R1*%
%TO.C,D2*%
X85500000Y-29000000D03*
D14*
%TO.N,3V3_D*%
X82960000Y-29000000D03*
%TD*%
D11*
%TO.N,JTAG_TCK*%
%TO.C,J2*%
X14000000Y-65000000D03*
D12*
%TO.N,GND*%
X14000000Y-62460000D03*
%TO.N,JTAG_TDO*%
X16540000Y-65000000D03*
%TO.N,3V3_D*%
X16540000Y-62460000D03*
%TO.N,JTAG_TMS*%
X19080000Y-65000000D03*
%TO.N,N/C*%
X19080000Y-62460000D03*
X21620000Y-65000000D03*
X21620000Y-62460000D03*
%TO.N,JTAG_TDI*%
X24160000Y-65000000D03*
%TO.N,GND*%
X24160000Y-62460000D03*
%TD*%
D10*
%TO.N,ADC_VCM*%
%TO.C,TP5*%
X32000000Y-57000000D03*
%TD*%
D11*
%TO.N,PMT_IN*%
%TO.C,JP1*%
X13000000Y-49000000D03*
D12*
%TO.N,TERM_50*%
X15540000Y-49000000D03*
%TD*%
D15*
%TO.N,AFE_IN*%
%TO.C,C1*%
X21500000Y-31000000D03*
%TO.N,AFE_AC*%
X21500000Y-26000000D03*
%TD*%
D11*
%TO.N,AFE_IN*%
%TO.C,JP2*%
X21500000Y-35000000D03*
D12*
%TO.N,GAIN_SRC*%
X21500000Y-37540000D03*
%TO.N,AFE_AC*%
X21500000Y-40080000D03*
%TD*%
D13*
%TO.N,LED_R4*%
%TO.C,D5*%
X85500000Y-47000000D03*
D14*
%TO.N,FPGA_SAT*%
X82960000Y-47000000D03*
%TD*%
D10*
%TO.N,GND*%
%TO.C,TP1*%
X12000000Y-57000000D03*
%TD*%
D16*
%TO.N,*%
%TO.C,SW2*%
X82010000Y-52750000D03*
X82010000Y-59760000D03*
D17*
%TO.N,NCONFIG*%
X84500000Y-54000000D03*
%TO.N,GND*%
X84500000Y-58500000D03*
%TD*%
D13*
%TO.N,LED_R2*%
%TO.C,D3*%
X85500000Y-35000000D03*
D14*
%TO.N,FPGA_RUN*%
X82960000Y-35000000D03*
%TD*%
D18*
%TO.N,GAIN_H_SIG*%
%TO.C,SW1*%
X28000000Y-6300000D03*
D19*
%TO.N,GAIN_M_SIG*%
X26000000Y-6300000D03*
%TO.N,GAIN_SRC*%
X22000000Y-6300000D03*
%TO.N,GAIN_L_SIG*%
X20000000Y-6300000D03*
%TO.N,GAIN_H_GND*%
X20000000Y-3000000D03*
%TO.N,GAIN_M_GND*%
X22000000Y-3000000D03*
%TO.N,GND*%
X26000000Y-3000000D03*
%TO.N,GAIN_L_GND*%
X28000000Y-3000000D03*
%TD*%
D10*
%TO.N,3V3_A*%
%TO.C,TP4*%
X27000000Y-57000000D03*
%TD*%
D20*
%TO.N,*%
%TO.C,J1*%
X3420000Y-40080000D03*
X13580000Y-29920000D03*
D21*
%TO.N,PMT_IN*%
X8500000Y-35000000D03*
D22*
%TO.N,GND*%
X11040000Y-35000000D03*
%TD*%
D23*
%TO.N,GND*%
X10000000Y-10000000D03*
D24*
X64892997Y-56578195D03*
X40000000Y-38710000D03*
X55562373Y-27972400D03*
X61981836Y-41520217D03*
X40000000Y-41290000D03*
X51603195Y-47665500D03*
X48520000Y-43250000D03*
X38710000Y-38710000D03*
X53965500Y-58678195D03*
X50903195Y-38412228D03*
X47025133Y-30772400D03*
X72228194Y-46064063D03*
X63895636Y-51081100D03*
X70892334Y-31849100D03*
X72228194Y-50556000D03*
X59335000Y-44665000D03*
X38710000Y-41290000D03*
X24464000Y-27115500D03*
X33375499Y-48070369D03*
X63624599Y-60803600D03*
X59335000Y-43335000D03*
X42590500Y-53310564D03*
X72228194Y-39571551D03*
D23*
%TO.N,3V3_A*%
X35665200Y-40450400D03*
X34962500Y-50062500D03*
X40298200Y-30550000D03*
X39250000Y-35672100D03*
%TO.N,CLK40_RAW*%
X38287700Y-34883500D03*
X33946900Y-28608700D03*
%TO.N,FPGA_REFCLK*%
X50531400Y-44750000D03*
X34883000Y-27052400D03*
%TO.N,GAIN_M_GND*%
X23700000Y-30000000D03*
%TO.N,3V3_D*%
X42250000Y-35141100D03*
X50853400Y-41467500D03*
X39253800Y-34106200D03*
X38646200Y-53483700D03*
X40761200Y-45719900D03*
X42723000Y-44340900D03*
%TO.N,CONF_DONE*%
X76406400Y-53906400D03*
X72154400Y-38547200D03*
%TO.N,GAIN_H_GND*%
X23700000Y-33800000D03*
%TO.N,EXT_TRIG*%
X61250000Y-55852900D03*
X72272200Y-41997900D03*
X42410000Y-23745600D03*
%TO.N,JTAGEN*%
X74000000Y-27180300D03*
X68152400Y-36336900D03*
%TO.N,ADC_VCM*%
X35667100Y-37255300D03*
X33225000Y-44439800D03*
%TO.N,FDA_PD*%
X29675000Y-35118300D03*
X23900000Y-48200000D03*
X27373300Y-45373700D03*
%TO.N,JTAG_TMS*%
X52380000Y-52657800D03*
X55836000Y-35863700D03*
X79115000Y-27200700D03*
%TO.N,FPGA_TRIG*%
X74094200Y-50651100D03*
%TO.N,CLK_OE*%
X34168000Y-24969300D03*
X25173600Y-28100000D03*
%TO.N,GAIN_L_GND*%
X23700000Y-36200000D03*
X18800000Y-12000000D03*
%TO.N,GAIN_H_SIG*%
X17400000Y-11000000D03*
X23700000Y-38800000D03*
%TO.N,HOST_D0*%
X55322000Y-53440000D03*
X88130000Y-4377700D03*
%TO.N,HOST_D1*%
X54750000Y-52932900D03*
X83594600Y-4388800D03*
%TO.N,HOST_D2*%
X54177900Y-53448800D03*
X54598500Y-47244600D03*
X62608000Y-47244600D03*
X79916800Y-4287500D03*
%TO.N,HOST_D3*%
X53547500Y-52998900D03*
X55035300Y-39387500D03*
X75573600Y-4408000D03*
X61839300Y-39387500D03*
%TO.N,HOST_D4*%
X53250000Y-55866900D03*
X61794900Y-52692900D03*
X74451400Y-3933500D03*
%TO.N,HOST_D5*%
X53297100Y-19172000D03*
X52750000Y-53472700D03*
%TO.N,HOST_D6*%
X52227700Y-55859700D03*
X52163000Y-17957000D03*
%TO.N,HOST_D7*%
X50721800Y-55635900D03*
X63205900Y-4374100D03*
X62187700Y-51022400D03*
%TO.N,HOST_WR*%
X61499600Y-3668900D03*
X57467300Y-55857900D03*
%TO.N,HOST_RD*%
X57294600Y-52149700D03*
X60901500Y-50496300D03*
X59568900Y-4267500D03*
%TO.N,HOST_CS*%
X59005700Y-50438700D03*
X53607700Y-4647700D03*
%TO.N,HOST_IRQ*%
X53620200Y-3861300D03*
X58257500Y-55856900D03*
%TO.N,HOST_SCK*%
X60259500Y-51655600D03*
X51288300Y-2310000D03*
%TO.N,HOST_MOSI*%
X50819800Y-4287500D03*
X59016300Y-52219400D03*
%TO.N,HOST_MISO*%
X59564900Y-52734000D03*
X47910100Y-7212500D03*
%TO.N,HOST_AUX*%
X39224100Y-4244400D03*
X59988400Y-53373800D03*
%TO.N,FPGA_RESET_N*%
X74402400Y-36065300D03*
X63166200Y-25498100D03*
X62604800Y-53059200D03*
%TO.N,VBUS*%
X87157500Y-23341200D03*
X76593400Y-55738100D03*
%TO.N,JTAG_TCK*%
X56081500Y-35098500D03*
X69448700Y-33496900D03*
%TO.N,JTAG_TDO*%
X36701800Y-32128100D03*
X59250000Y-32128100D03*
%TO.N,JTAG_TDI*%
X40516700Y-44397700D03*
X72492900Y-31216700D03*
X59381300Y-34541000D03*
%TO.N,FPGA_ADC_D4*%
X47485400Y-50407300D03*
X44626100Y-46291700D03*
%TO.N,FPGA_ADC_D6*%
X50529900Y-43873500D03*
X46646900Y-42852600D03*
%TO.N,FPGA_ADCCLK*%
X51602600Y-45750000D03*
X44210200Y-33717800D03*
%TO.N,AFE_IN*%
X20000000Y-42788600D03*
%TO.N,GAIN_SRC*%
X18100000Y-9000000D03*
D24*
%TO.N,FPGA_SAT*%
X72000000Y-47250000D03*
D23*
%TO.N,FPGA_ADC_D10*%
X46155600Y-35089000D03*
X50546300Y-39250000D03*
%TO.N,FPGA_ADC_D8*%
X46513100Y-40792100D03*
X51324600Y-40250000D03*
%TO.N,FPGA_ADC_D2*%
X50528900Y-46750000D03*
X46539600Y-47695300D03*
%TO.N,FPGA_ADC_D0*%
X44681200Y-50101000D03*
X50556000Y-47750000D03*
%TO.N,ADC_OVR*%
X48134300Y-51383700D03*
X41693800Y-35671200D03*
%TO.N,FPGA_RUN*%
X73507900Y-51568800D03*
%TO.N,NCONFIG*%
X69465700Y-42640500D03*
%TO.N,NSTATUS*%
X78586100Y-49086100D03*
X69442900Y-39250000D03*
%TO.N,GAIN_L_SIG*%
X16700000Y-8000000D03*
X23700000Y-41800000D03*
%TO.N,GAIN_M_SIG*%
X16000000Y-10000000D03*
X25000000Y-47500000D03*
%TD*%
%TO.N,3V3_A*%
D25*
X34962500Y-41153100D02*
X35665200Y-40450400D01*
X27000000Y-57000000D02*
X28742000Y-58742000D01*
X28742000Y-58742000D02*
X32747800Y-58742000D01*
X34962500Y-50062500D02*
X34962500Y-41153100D01*
X39250000Y-36865600D02*
X39250000Y-35672100D01*
X40298200Y-34623900D02*
X39250000Y-35672100D01*
X35665200Y-40450400D02*
X39250000Y-36865600D01*
X32747800Y-58742000D02*
X34962500Y-56527300D01*
X40298200Y-30550000D02*
X40298200Y-34623900D01*
X34962500Y-56527300D02*
X34962500Y-50062500D01*
%TO.N,CLK40_RAW*%
X38287700Y-34883500D02*
X38287700Y-32890900D01*
X38287700Y-32890900D02*
X34005500Y-28608700D01*
X34005500Y-28608700D02*
X33946900Y-28608700D01*
%TO.N,FPGA_REFCLK*%
X42599900Y-23165300D02*
X43269900Y-23835300D01*
X43269900Y-23835300D02*
X43269900Y-40313000D01*
X34883000Y-27052400D02*
X38770100Y-23165300D01*
X47706900Y-44750000D02*
X50531400Y-44750000D01*
X43269900Y-40313000D02*
X47706900Y-44750000D01*
X38770100Y-23165300D02*
X42599900Y-23165300D01*
%TO.N,3V3_D*%
X40761200Y-45719900D02*
X38646200Y-47834900D01*
X38646200Y-47834900D02*
X38646200Y-53483700D01*
X27800000Y-62800000D02*
X22000000Y-57000000D01*
X34000000Y-62800000D02*
X34000000Y-58129900D01*
X42723000Y-44340900D02*
X42250000Y-43867900D01*
X34000000Y-58129900D02*
X38646200Y-53483700D01*
X42250000Y-43867900D02*
X42250000Y-35141100D01*
X16540000Y-62460000D02*
X22000000Y-57000000D01*
X34000000Y-62800000D02*
X27800000Y-62800000D01*
%TO.N,CONF_DONE*%
X76406400Y-53906400D02*
X75051900Y-53906400D01*
X72947400Y-51801900D02*
X72947400Y-39340200D01*
X72947400Y-39340200D02*
X72154400Y-38547200D01*
X75051900Y-53906400D02*
X72947400Y-51801900D01*
%TO.N,EXT_TRIG*%
X68905800Y-48468400D02*
X68905800Y-42359700D01*
X61521300Y-55852900D02*
X68905800Y-48468400D01*
X41634600Y-45358100D02*
X41135300Y-44858800D01*
X41634600Y-57430200D02*
X41634600Y-45358100D01*
X34097100Y-65340000D02*
X41634600Y-57802500D01*
X69267600Y-41997900D02*
X72272200Y-41997900D01*
X41135300Y-25020300D02*
X42410000Y-23745600D01*
X68905800Y-42359700D02*
X69267600Y-41997900D01*
X61250000Y-55852900D02*
X61521300Y-55852900D01*
X41634600Y-57802500D02*
X41634600Y-57430200D01*
X34000000Y-65340000D02*
X34097100Y-65340000D01*
X41135300Y-44858800D02*
X41135300Y-25020300D01*
X59672700Y-57430200D02*
X61250000Y-55852900D01*
X41634600Y-57430200D02*
X59672700Y-57430200D01*
%TO.N,JTAGEN*%
X68152400Y-33027900D02*
X74000000Y-27180300D01*
X68152400Y-36336900D02*
X68152400Y-33027900D01*
%TO.N,ADC_VCM*%
X33225000Y-44439800D02*
X32000000Y-45664800D01*
X32000000Y-45664800D02*
X32000000Y-57000000D01*
X33225000Y-39697400D02*
X35667100Y-37255300D01*
X33225000Y-44439800D02*
X33225000Y-39697400D01*
%TO.N,FDA_PD*%
X27373300Y-45373700D02*
X27373300Y-37420000D01*
X27373300Y-37420000D02*
X29675000Y-35118300D01*
%TO.N,JTAG_TMS*%
X52892300Y-38807400D02*
X52892300Y-52145500D01*
X52892300Y-52145500D02*
X52380000Y-52657800D01*
X55836000Y-35863700D02*
X52892300Y-38807400D01*
%TO.N,FPGA_TRIG*%
X82960000Y-41000000D02*
X82960000Y-41785300D01*
X82960000Y-41785300D02*
X74094200Y-50651100D01*
%TO.N,CLK_OE*%
X31037300Y-28100000D02*
X25173600Y-28100000D01*
X34168000Y-24969300D02*
X31037300Y-28100000D01*
%TO.N,GAIN_L_GND*%
X28000000Y-3000000D02*
X29000000Y-3000000D01*
X29000000Y-12000000D02*
X18800000Y-12000000D01*
X29000000Y-3000000D02*
X29000000Y-12000000D01*
%TO.N,GAIN_H_SIG*%
X28000000Y-6300000D02*
X28000000Y-11000000D01*
X28000000Y-11000000D02*
X17400000Y-11000000D01*
%TO.N,HOST_D0*%
X74271600Y-36968900D02*
X72497400Y-36968900D01*
X75090700Y-12072100D02*
X75090700Y-36149800D01*
X68242400Y-48193600D02*
X62715800Y-53720200D01*
X83357700Y-3805100D02*
X75090700Y-12072100D01*
X61669000Y-53720200D02*
X58622400Y-56766800D01*
X72497400Y-36968900D02*
X68475700Y-40990600D01*
X75090700Y-36149800D02*
X74271600Y-36968900D01*
X62715800Y-53720200D02*
X61669000Y-53720200D01*
X88130000Y-4377700D02*
X87557400Y-3805100D01*
X68242400Y-41107200D02*
X68242400Y-48193600D01*
X68359000Y-40990600D02*
X68242400Y-41107200D01*
X58622400Y-56766800D02*
X57531000Y-56766800D01*
X68475700Y-40990600D02*
X68359000Y-40990600D01*
X55322000Y-54557800D02*
X55322000Y-53440000D01*
X57531000Y-56766800D02*
X55322000Y-54557800D01*
X87557400Y-3805100D02*
X83357700Y-3805100D01*
%TO.N,HOST_D1*%
X61806400Y-54051900D02*
X62853200Y-54051900D01*
X72634800Y-37300600D02*
X74409000Y-37300600D01*
X68574100Y-41361200D02*
X68574200Y-41361200D01*
X77756100Y-33953500D02*
X77756100Y-10227300D01*
X57393600Y-57098500D02*
X58759800Y-57098500D01*
X58759800Y-57098500D02*
X61806400Y-54051900D01*
X68574200Y-41361200D02*
X72634800Y-37300600D01*
X54750000Y-54454900D02*
X57393600Y-57098500D01*
X54750000Y-52932900D02*
X54750000Y-54454900D01*
X74409000Y-37300600D02*
X77756100Y-33953500D01*
X62853200Y-54051900D02*
X68574100Y-48331000D01*
X77756100Y-10227300D02*
X83594600Y-4388800D01*
X68574100Y-48331000D02*
X68574100Y-41361200D01*
%TO.N,HOST_D2*%
X54598500Y-47244600D02*
X54177900Y-47665200D01*
X79916800Y-4287500D02*
X62608000Y-21596300D01*
X54177900Y-47665200D02*
X54177900Y-53448800D01*
X62608000Y-21596300D02*
X62608000Y-47244600D01*
%TO.N,HOST_D3*%
X61839300Y-18142300D02*
X61839300Y-39387500D01*
X75573600Y-4408000D02*
X61839300Y-18142300D01*
X53547500Y-40875300D02*
X53547500Y-52998900D01*
X55035300Y-39387500D02*
X53547500Y-40875300D01*
%TO.N,HOST_D4*%
X62746500Y-51741300D02*
X62746500Y-48520800D01*
X61794900Y-52692900D02*
X62746500Y-51741300D01*
X62746500Y-48520800D02*
X61249900Y-47024200D01*
X61249900Y-47024200D02*
X61249900Y-17135000D01*
X61249900Y-17135000D02*
X74451400Y-3933500D01*
%TO.N,HOST_D5*%
X52476100Y-19993000D02*
X52476100Y-51795700D01*
X52360600Y-53472700D02*
X52750000Y-53472700D01*
X53297100Y-19172000D02*
X52476100Y-19993000D01*
X52476100Y-51795700D02*
X51838300Y-52433500D01*
X51838300Y-52433500D02*
X51838300Y-52950400D01*
X51838300Y-52950400D02*
X52360600Y-53472700D01*
%TO.N,HOST_D6*%
X52163000Y-17957000D02*
X52144400Y-17975600D01*
X51506600Y-52296000D02*
X51506600Y-55138600D01*
X51506600Y-55138600D02*
X52227700Y-55859700D01*
X52144400Y-51658200D02*
X51506600Y-52296000D01*
X52144400Y-17975600D02*
X52144400Y-51658200D01*
%TO.N,HOST_D7*%
X60918200Y-47201300D02*
X62187700Y-48470800D01*
X63205900Y-4374100D02*
X60918200Y-6661800D01*
X60918200Y-6661800D02*
X60918200Y-47201300D01*
X62187700Y-48470800D02*
X62187700Y-51022400D01*
%TO.N,HOST_WR*%
X58512600Y-56399800D02*
X58009200Y-56399800D01*
X61499600Y-3668900D02*
X60586500Y-4582000D01*
X61447300Y-49786600D02*
X61447300Y-52274500D01*
X58009200Y-56399800D02*
X57467300Y-55857900D01*
X60586500Y-48925800D02*
X61447300Y-49786600D01*
X58876700Y-55720700D02*
X58876600Y-55720700D01*
X60586500Y-4582000D02*
X60586500Y-48925800D01*
X58876600Y-55720700D02*
X58876600Y-56035800D01*
X58876600Y-56035800D02*
X58512600Y-56399800D01*
X61253200Y-53344200D02*
X58876700Y-55720700D01*
X61447300Y-52274500D02*
X61253200Y-52468600D01*
X61253200Y-52468600D02*
X61253200Y-53344200D01*
%TO.N,HOST_RD*%
X60254800Y-49849600D02*
X60901500Y-50496300D01*
X59568900Y-4267500D02*
X60254800Y-4953400D01*
X60254800Y-4953400D02*
X60254800Y-49849600D01*
%TO.N,HOST_CS*%
X58304600Y-9344600D02*
X58304600Y-49737600D01*
X58304600Y-49737600D02*
X59005700Y-50438700D01*
X53607700Y-4647700D02*
X58304600Y-9344600D01*
%TO.N,HOST_IRQ*%
X60802300Y-51163100D02*
X60802300Y-53326000D01*
X60802300Y-53326000D02*
X60212800Y-53915500D01*
X60198900Y-53915500D02*
X58257500Y-55856900D01*
X53620200Y-3861300D02*
X59923100Y-10164200D01*
X59923100Y-50283900D02*
X60802300Y-51163100D01*
X59923100Y-10164200D02*
X59923100Y-50283900D01*
X60212800Y-53915500D02*
X60198900Y-53915500D01*
%TO.N,HOST_SCK*%
X59437800Y-51655600D02*
X60259500Y-51655600D01*
X51288300Y-3855800D02*
X57764500Y-10332000D01*
X57764500Y-49982300D02*
X59437800Y-51655600D01*
X57764500Y-10332000D02*
X57764500Y-49982300D01*
X51288300Y-2310000D02*
X51288300Y-3855800D01*
%TO.N,HOST_MOSI*%
X57316000Y-10783700D02*
X57316000Y-50466600D01*
X50819800Y-4287500D02*
X57316000Y-10783700D01*
X59016300Y-52166900D02*
X59016300Y-52219400D01*
X57316000Y-50466600D02*
X59016300Y-52166900D01*
%TO.N,HOST_MISO*%
X58792000Y-52761100D02*
X59537800Y-52761100D01*
X59537800Y-52761100D02*
X59564900Y-52734000D01*
X58474600Y-52443700D02*
X58792000Y-52761100D01*
X56984300Y-16286700D02*
X56984300Y-50604100D01*
X47910100Y-7212500D02*
X56984300Y-16286700D01*
X58474600Y-52094400D02*
X58474600Y-52443700D01*
X56984300Y-50604100D02*
X58474600Y-52094400D01*
%TO.N,HOST_AUX*%
X59988400Y-53373800D02*
X58935600Y-53373800D01*
X58142900Y-52231800D02*
X56652600Y-50741500D01*
X39693300Y-4244400D02*
X39224100Y-4244400D01*
X58935600Y-53373800D02*
X58142900Y-52581100D01*
X56652600Y-21203700D02*
X39693300Y-4244400D01*
X56652600Y-50741500D02*
X56652600Y-21203700D01*
X58142900Y-52581100D02*
X58142900Y-52231800D01*
%TO.N,FPGA_RESET_N*%
X67679000Y-39207600D02*
X67679000Y-43258500D01*
X64902500Y-50761500D02*
X62604800Y-53059200D01*
X68955600Y-37931000D02*
X67679000Y-39207600D01*
X70821300Y-36065300D02*
X74402400Y-36065300D01*
X68955600Y-37931000D02*
X70821300Y-36065300D01*
X67028900Y-45667900D02*
X67028900Y-47701100D01*
X67679000Y-43258500D02*
X67347300Y-43590200D01*
X63208900Y-25540800D02*
X63166200Y-25498100D01*
X67028900Y-47701100D02*
X66373700Y-48356300D01*
X67347300Y-45349500D02*
X67028900Y-45667900D01*
X64902500Y-50296600D02*
X64902500Y-50761500D01*
X67347300Y-43590200D02*
X67347300Y-45349500D01*
X66373700Y-48356300D02*
X66373700Y-48825400D01*
X68955600Y-37931000D02*
X63208900Y-32184400D01*
X63208900Y-32184400D02*
X63208900Y-25540800D01*
X66373700Y-48825400D02*
X64902500Y-50296600D01*
%TO.N,VBUS*%
X84346800Y-47984700D02*
X84346800Y-26151900D01*
X76593400Y-55738100D02*
X84346800Y-47984700D01*
X84346800Y-26151900D02*
X87157500Y-23341200D01*
%TO.N,JTAG_TCK*%
X26248200Y-38078200D02*
X26248200Y-34919000D01*
X26248200Y-34919000D02*
X43799300Y-17367900D01*
X52347700Y-17367900D02*
X56081500Y-21101700D01*
X43799300Y-17367900D02*
X52347700Y-17367900D01*
X56081500Y-21101700D02*
X56081500Y-35098500D01*
X14000000Y-63908300D02*
X14136600Y-63908300D01*
X18922100Y-57597000D02*
X18922100Y-45404300D01*
X14000000Y-65000000D02*
X14000000Y-63908300D01*
X14136600Y-63908300D02*
X15091700Y-62953200D01*
X15091700Y-61427400D02*
X18922100Y-57597000D01*
X15091700Y-62953200D02*
X15091700Y-61427400D01*
X18922100Y-45404300D02*
X26248200Y-38078200D01*
%TO.N,JTAG_TDO*%
X19676200Y-56784900D02*
X28084400Y-48376700D01*
X15428700Y-61642000D02*
X19676200Y-57394500D01*
X28084400Y-48376700D02*
X28084400Y-40745500D01*
X28084400Y-40745500D02*
X36701800Y-32128100D01*
X15428700Y-63888700D02*
X15428700Y-61642000D01*
X16540000Y-65000000D02*
X15428700Y-63888700D01*
X19676200Y-57394500D02*
X19676200Y-56784900D01*
%TO.N,JTAG_TDI*%
X41302900Y-57570200D02*
X34919900Y-63953200D01*
X34919900Y-63953200D02*
X25206800Y-63953200D01*
X40516700Y-44397700D02*
X40516700Y-44709300D01*
X25206800Y-63953200D02*
X24160000Y-65000000D01*
X40516700Y-44709300D02*
X41302900Y-45495500D01*
X41302900Y-45495500D02*
X41302900Y-57570200D01*
%TO.N,FPGA_ADC_D4*%
X44626100Y-47142300D02*
X44626100Y-46291700D01*
X47485400Y-50001600D02*
X44626100Y-47142300D01*
X47485400Y-50407300D02*
X47485400Y-50001600D01*
%TO.N,FPGA_ADC_D6*%
X47300000Y-43750000D02*
X48800000Y-43750000D01*
X46646900Y-42852600D02*
X47300000Y-43750000D01*
X48800000Y-43750000D02*
X50529900Y-43873500D01*
%TO.N,FPGA_ADCCLK*%
X44210200Y-33717800D02*
X44210200Y-36768600D01*
X51602600Y-44161000D02*
X51602600Y-45750000D01*
X44210200Y-36768600D02*
X51602600Y-44161000D01*
%TO.N,PMT_IN*%
X13000000Y-49000000D02*
X13000000Y-47908300D01*
X8500000Y-43408300D02*
X13000000Y-47908300D01*
X8500000Y-35000000D02*
X8500000Y-43408300D01*
%TO.N,AFE_IN*%
X21500000Y-35000000D02*
X21500000Y-36091700D01*
X21500000Y-36091700D02*
X21363500Y-36091700D01*
X20000000Y-37455200D02*
X20000000Y-42788600D01*
X21363500Y-36091700D02*
X20000000Y-37455200D01*
X21500000Y-31000000D02*
X21500000Y-35000000D01*
%TO.N,AFE_AC*%
X22965400Y-37790200D02*
X21500000Y-39255600D01*
X22965400Y-27465400D02*
X22965400Y-37790200D01*
X21500000Y-39255600D02*
X21500000Y-40080000D01*
X21500000Y-26000000D02*
X22965400Y-27465400D01*
%TO.N,GAIN_SRC*%
X22000000Y-6300000D02*
X22000000Y-9000000D01*
X22000000Y-9000000D02*
X18100000Y-9000000D01*
%TO.N,FPGA_ADC_D10*%
X46155600Y-35089000D02*
X50316600Y-39250000D01*
X50316600Y-39250000D02*
X50546300Y-39250000D01*
%TO.N,ADC_OVR*%
X41693800Y-35671200D02*
X41693800Y-44943200D01*
X47695800Y-51383700D02*
X48134300Y-51383700D01*
X41693800Y-44943200D02*
X46943700Y-50193100D01*
X46943700Y-50193100D02*
X46943700Y-50631600D01*
X46943700Y-50631600D02*
X47695800Y-51383700D01*
%TO.N,FPGA_RUN*%
X73507900Y-44452100D02*
X73507900Y-51568800D01*
X82960000Y-35000000D02*
X73507900Y-44452100D01*
%TO.N,NCONFIG*%
X82165000Y-56335000D02*
X76411300Y-56335000D01*
X84500000Y-54000000D02*
X82165000Y-56335000D01*
X76411300Y-56335000D02*
X69465700Y-49389400D01*
X69465700Y-49389400D02*
X69465700Y-42640500D01*
%TO.N,GAIN_L_SIG*%
X20000000Y-6300000D02*
X20000000Y-8000000D01*
X20000000Y-8000000D02*
X16700000Y-8000000D01*
%TO.N,GAIN_M_SIG*%
X26000000Y-6300000D02*
X26000000Y-10000000D01*
X26000000Y-10000000D02*
X16000000Y-10000000D01*
%TD*%
D26*
X10000000Y-10000000D03*
D27*
X64892997Y-56578195D03*
X40000000Y-38710000D03*
X55562373Y-27972400D03*
X61981836Y-41520217D03*
X40000000Y-41290000D03*
X51603195Y-47665500D03*
X48520000Y-43250000D03*
X38710000Y-38710000D03*
X53965500Y-58678195D03*
X50903195Y-38412228D03*
X47025133Y-30772400D03*
X72228194Y-46064063D03*
X63895636Y-51081100D03*
X70892334Y-31849100D03*
X72228194Y-50556000D03*
X59335000Y-44665000D03*
X38710000Y-41290000D03*
X24464000Y-27115500D03*
X33375499Y-48070369D03*
X63624599Y-60803600D03*
X59335000Y-43335000D03*
X42590500Y-53310564D03*
X72228194Y-39571551D03*
D26*
X35665200Y-40450400D03*
X34962500Y-50062500D03*
X40298200Y-30550000D03*
X39250000Y-35672100D03*
X38287700Y-34883500D03*
X33946900Y-28608700D03*
X50531400Y-44750000D03*
X34883000Y-27052400D03*
X23700000Y-30000000D03*
X42250000Y-35141100D03*
X50853400Y-41467500D03*
X39253800Y-34106200D03*
X38646200Y-53483700D03*
X40761200Y-45719900D03*
X42723000Y-44340900D03*
X76406400Y-53906400D03*
X72154400Y-38547200D03*
X23700000Y-33800000D03*
X61250000Y-55852900D03*
X72272200Y-41997900D03*
X42410000Y-23745600D03*
X74000000Y-27180300D03*
X68152400Y-36336900D03*
X35667100Y-37255300D03*
X33225000Y-44439800D03*
X29675000Y-35118300D03*
X23900000Y-48200000D03*
X27373300Y-45373700D03*
X52380000Y-52657800D03*
X55836000Y-35863700D03*
X79115000Y-27200700D03*
X74094200Y-50651100D03*
X34168000Y-24969300D03*
X25173600Y-28100000D03*
X23700000Y-36200000D03*
X18800000Y-12000000D03*
X17400000Y-11000000D03*
X23700000Y-38800000D03*
X55322000Y-53440000D03*
X88130000Y-4377700D03*
X54750000Y-52932900D03*
X83594600Y-4388800D03*
X54177900Y-53448800D03*
X54598500Y-47244600D03*
X62608000Y-47244600D03*
X79916800Y-4287500D03*
X53547500Y-52998900D03*
X55035300Y-39387500D03*
X75573600Y-4408000D03*
X61839300Y-39387500D03*
X53250000Y-55866900D03*
X61794900Y-52692900D03*
X74451400Y-3933500D03*
X53297100Y-19172000D03*
X52750000Y-53472700D03*
X52227700Y-55859700D03*
X52163000Y-17957000D03*
X50721800Y-55635900D03*
X63205900Y-4374100D03*
X62187700Y-51022400D03*
X61499600Y-3668900D03*
X57467300Y-55857900D03*
X57294600Y-52149700D03*
X60901500Y-50496300D03*
X59568900Y-4267500D03*
X59005700Y-50438700D03*
X53607700Y-4647700D03*
X53620200Y-3861300D03*
X58257500Y-55856900D03*
X60259500Y-51655600D03*
X51288300Y-2310000D03*
X50819800Y-4287500D03*
X59016300Y-52219400D03*
X59564900Y-52734000D03*
X47910100Y-7212500D03*
X39224100Y-4244400D03*
X59988400Y-53373800D03*
X74402400Y-36065300D03*
X63166200Y-25498100D03*
X62604800Y-53059200D03*
X87157500Y-23341200D03*
X76593400Y-55738100D03*
X56081500Y-35098500D03*
X69448700Y-33496900D03*
X36701800Y-32128100D03*
X59250000Y-32128100D03*
X40516700Y-44397700D03*
X72492900Y-31216700D03*
X59381300Y-34541000D03*
X47485400Y-50407300D03*
X44626100Y-46291700D03*
X50529900Y-43873500D03*
X46646900Y-42852600D03*
X51602600Y-45750000D03*
X44210200Y-33717800D03*
X20000000Y-42788600D03*
X18100000Y-9000000D03*
D27*
X72000000Y-47250000D03*
D26*
X46155600Y-35089000D03*
X50546300Y-39250000D03*
X46513100Y-40792100D03*
X51324600Y-40250000D03*
X50528900Y-46750000D03*
X46539600Y-47695300D03*
X44681200Y-50101000D03*
X50556000Y-47750000D03*
X48134300Y-51383700D03*
X41693800Y-35671200D03*
X73507900Y-51568800D03*
X69465700Y-42640500D03*
X78586100Y-49086100D03*
X69442900Y-39250000D03*
X16700000Y-8000000D03*
X23700000Y-41800000D03*
X16000000Y-10000000D03*
X25000000Y-47500000D03*
D28*
X17000000Y-57000000D03*
X34000000Y-62800000D03*
X34000000Y-65340000D03*
X34000000Y-67880000D03*
X22000000Y-57000000D03*
X85500000Y-41000000D03*
X82960000Y-41000000D03*
X4000000Y-66000000D03*
X72000000Y-68200000D03*
X74540000Y-68200000D03*
X85500000Y-29000000D03*
X82960000Y-29000000D03*
X14000000Y-65000000D03*
X14000000Y-62460000D03*
X16540000Y-65000000D03*
X16540000Y-62460000D03*
X19080000Y-65000000D03*
X19080000Y-62460000D03*
X21620000Y-65000000D03*
X21620000Y-62460000D03*
X24160000Y-65000000D03*
X24160000Y-62460000D03*
X32000000Y-57000000D03*
X13000000Y-49000000D03*
X15540000Y-49000000D03*
X21500000Y-31000000D03*
X21500000Y-26000000D03*
X21500000Y-35000000D03*
X21500000Y-37540000D03*
X21500000Y-40080000D03*
X85500000Y-47000000D03*
X82960000Y-47000000D03*
X12000000Y-57000000D03*
X82010000Y-52750000D03*
X82010000Y-59760000D03*
X84500000Y-54000000D03*
X84500000Y-58500000D03*
X85500000Y-35000000D03*
X82960000Y-35000000D03*
X4000000Y-4000000D03*
X28000000Y-6300000D03*
X26000000Y-6300000D03*
X22000000Y-6300000D03*
X20000000Y-6300000D03*
X20000000Y-3000000D03*
X22000000Y-3000000D03*
X26000000Y-3000000D03*
X28000000Y-3000000D03*
X27000000Y-57000000D03*
X34000000Y-4000000D03*
X82000000Y-66000000D03*
X3420000Y-40080000D03*
X13580000Y-29920000D03*
X8500000Y-35000000D03*
X11040000Y-35000000D03*
M02*
