M48
; DRILL file KiCad 10.0.5 date 2026-09-25T21:53:21
; FORMAT={-:-/ absolute / metric / decimal}
; #@! TF.CreationDate,2026-09-25T21:53:21+08:00
; #@! TF.GenerationSoftware,Kicad,Pcbnew,10.0.5
; #@! TF.FileFunction,Plated,1,4,PTH
FMAT,2
METRIC
; #@! TA.AperFunction,Plated,PTH,ViaDrill
T1C0.200
; #@! TA.AperFunction,Plated,PTH,ViaDrill
T2C0.300
; #@! TA.AperFunction,Plated,PTH,ComponentDrill
T3C0.750
; #@! TA.AperFunction,Plated,PTH,ComponentDrill
T4C0.900
; #@! TA.AperFunction,Plated,PTH,ComponentDrill
T5C0.990
; #@! TA.AperFunction,Plated,PTH,ComponentDrill
T6C1.000
; #@! TA.AperFunction,Plated,PTH,ComponentDrill
T7C1.300
; #@! TA.AperFunction,Plated,PTH,ComponentDrill
T8C2.000
%
G90
G05
T1
X24.464Y-27.115
X33.375Y-48.07
X38.71Y-38.71
X38.71Y-41.29
X40.0Y-38.71
X40.0Y-41.29
X42.59Y-53.311
X47.025Y-30.772
X48.52Y-43.25
X50.903Y-38.412
X51.603Y-47.665
X53.965Y-58.678
X55.562Y-27.972
X59.335Y-43.335
X59.335Y-44.665
X61.982Y-41.52
X63.625Y-60.804
X63.896Y-51.081
X64.893Y-56.578
X70.892Y-31.849
X72.0Y-47.25
X72.228Y-39.572
X72.228Y-46.064
X72.228Y-50.556
T2
X10.0Y-10.0
X16.0Y-10.0
X16.7Y-8.0
X17.4Y-11.0
X18.1Y-9.0
X18.8Y-12.0
X20.0Y-42.789
X23.7Y-30.0
X23.7Y-33.8
X23.7Y-36.2
X23.7Y-38.8
X23.7Y-41.8
X23.9Y-48.2
X25.0Y-47.5
X25.174Y-28.1
X27.373Y-45.374
X29.675Y-35.118
X33.225Y-44.44
X33.947Y-28.609
X34.168Y-24.969
X34.883Y-27.052
X34.962Y-50.062
X35.665Y-40.45
X35.667Y-37.255
X36.702Y-32.128
X38.288Y-34.883
X38.646Y-53.484
X39.224Y-4.244
X39.25Y-35.672
X39.254Y-34.106
X40.298Y-30.55
X40.517Y-44.398
X40.761Y-45.72
X41.694Y-35.671
X42.25Y-35.141
X42.41Y-23.746
X42.723Y-44.341
X44.21Y-33.718
X44.626Y-46.292
X44.681Y-50.101
X46.156Y-35.089
X46.513Y-40.792
X46.54Y-47.695
X46.647Y-42.853
X47.485Y-50.407
X47.91Y-7.212
X48.134Y-51.384
X50.529Y-46.75
X50.53Y-43.873
X50.531Y-44.75
X50.546Y-39.25
X50.556Y-47.75
X50.722Y-55.636
X50.82Y-4.287
X50.853Y-41.468
X51.288Y-2.31
X51.325Y-40.25
X51.603Y-45.75
X52.163Y-17.957
X52.228Y-55.86
X52.38Y-52.658
X52.75Y-53.473
X53.25Y-55.867
X53.297Y-19.172
X53.547Y-52.999
X53.608Y-4.648
X53.62Y-3.861
X54.178Y-53.449
X54.598Y-47.245
X54.75Y-52.933
X55.035Y-39.387
X55.322Y-53.44
X55.836Y-35.864
X56.081Y-35.099
X57.295Y-52.15
X57.467Y-55.858
X58.258Y-55.857
X59.006Y-50.439
X59.016Y-52.219
X59.25Y-32.128
X59.381Y-34.541
X59.565Y-52.734
X59.569Y-4.268
X59.988Y-53.374
X60.259Y-51.656
X60.901Y-50.496
X61.25Y-55.853
X61.5Y-3.669
X61.795Y-52.693
X61.839Y-39.387
X62.188Y-51.022
X62.605Y-53.059
X62.608Y-47.245
X63.166Y-25.498
X63.206Y-4.374
X68.152Y-36.337
X69.443Y-39.25
X69.449Y-33.497
X69.466Y-42.64
X72.154Y-38.547
X72.272Y-41.998
X72.493Y-31.217
X73.508Y-51.569
X74.0Y-27.18
X74.094Y-50.651
X74.402Y-36.065
X74.451Y-3.933
X75.574Y-4.408
X76.406Y-53.906
X76.593Y-55.738
X78.586Y-49.086
X79.115Y-27.201
X79.917Y-4.287
X83.595Y-4.389
X87.157Y-23.341
X88.13Y-4.378
T3
X21.5Y-26.0
X21.5Y-31.0
T4
X8.5Y-35.0
X11.04Y-35.0
X20.0Y-3.0
X20.0Y-6.3
X22.0Y-3.0
X22.0Y-6.3
X26.0Y-3.0
X26.0Y-6.3
X28.0Y-3.0
X28.0Y-6.3
X82.96Y-29.0
X82.96Y-35.0
X82.96Y-41.0
X82.96Y-47.0
X85.5Y-29.0
X85.5Y-35.0
X85.5Y-41.0
X85.5Y-47.0
T5
X84.5Y-54.0
X84.5Y-58.5
T6
X13.0Y-49.0
X14.0Y-62.46
X14.0Y-65.0
X15.54Y-49.0
X16.54Y-62.46
X16.54Y-65.0
X19.08Y-62.46
X19.08Y-65.0
X21.5Y-35.0
X21.5Y-37.54
X21.5Y-40.08
X21.62Y-62.46
X21.62Y-65.0
X24.16Y-62.46
X24.16Y-65.0
X34.0Y-62.8
X34.0Y-65.34
X34.0Y-67.88
X72.0Y-68.2
X74.54Y-68.2
T7
X82.01Y-52.75
X82.01Y-59.76
T8
X3.42Y-40.08
X12.0Y-57.0
X13.58Y-29.92
X17.0Y-57.0
X22.0Y-57.0
X27.0Y-57.0
X32.0Y-57.0
M30
