%TF.GenerationSoftware,KiCad,Pcbnew,10.0.5*%
%TF.CreationDate,2026-09-25T21:53:20+08:00*%
%TF.ProjectId,Aster-MCA-v2.0,41737465-722d-44d4-9341-2d76322e302e,rev?*%
%TF.SameCoordinates,Original*%
%TF.FileFunction,Copper,L2,Inr*%
%TF.FilePolarity,Positive*%
%FSLAX46Y46*%
G04 Gerber Fmt 4.6, Leading zero omitted, Abs format (unit mm)*
G04 Created by KiCad (PCBNEW 10.0.5) date 2026-09-25 21:53:20*
%MOMM*%
%LPD*%
G01*
G04 APERTURE LIST*
G04 Aperture macros list*
%AMRoundRect*
0 Rectangle with rounded corners*
0 $1 Rounding radius*
0 $2 $3 $4 $5 $6 $7 $8 $9 X,Y pos of 4 corners*
0 Add a 4 corners polygon primitive as box body*
4,1,4,$2,$3,$4,$5,$6,$7,$8,$9,$2,$3,0*
0 Add four circle primitives for the rounded corners*
1,1,$1+$1,$2,$3*
1,1,$1+$1,$4,$5*
1,1,$1+$1,$6,$7*
1,1,$1+$1,$8,$9*
0 Add four rect primitives between the rounded corners*
20,1,$1+$1,$2,$3,$4,$5,0*
20,1,$1+$1,$4,$5,$6,$7,0*
20,1,$1+$1,$6,$7,$8,$9,0*
20,1,$1+$1,$8,$9,$2,$3,0*%
G04 Aperture macros list end*
%TA.AperFunction,ComponentPad*%
%ADD10C,3.000000*%
%TD*%
%TA.AperFunction,ComponentPad*%
%ADD11R,1.700000X1.700000*%
%TD*%
%TA.AperFunction,ComponentPad*%
%ADD12C,1.700000*%
%TD*%
%TA.AperFunction,ComponentPad*%
%ADD13R,1.800000X1.800000*%
%TD*%
%TA.AperFunction,ComponentPad*%
%ADD14C,1.800000*%
%TD*%
%TA.AperFunction,ComponentPad*%
%ADD15C,1.500000*%
%TD*%
%TA.AperFunction,ComponentPad*%
%ADD16C,2.100000*%
%TD*%
%TA.AperFunction,ComponentPad*%
%ADD17C,1.750000*%
%TD*%
%TA.AperFunction,ComponentPad*%
%ADD18RoundRect,0.250000X0.450000X0.450000X-0.450000X0.450000X-0.450000X-0.450000X0.450000X-0.450000X0*%
%TD*%
%TA.AperFunction,ComponentPad*%
%ADD19C,1.400000*%
%TD*%
%TA.AperFunction,ComponentPad*%
%ADD20C,4.000000*%
%TD*%
%TA.AperFunction,ComponentPad*%
%ADD21RoundRect,0.400000X0.400000X0.400000X-0.400000X0.400000X-0.400000X-0.400000X0.400000X-0.400000X0*%
%TD*%
%TA.AperFunction,ComponentPad*%
%ADD22C,1.600000*%
%TD*%
%TA.AperFunction,ViaPad*%
%ADD23C,0.600000*%
%TD*%
%TA.AperFunction,ViaPad*%
%ADD24C,0.400000*%
%TD*%
%ADD25C,0.300000*%
%ADD26C,0.200000*%
%ADD27C,0.350000*%
G04 APERTURE END LIST*
D10*
%TO.N,5V_FUSED*%
%TO.C,TP2*%
X17000000Y-57000000D03*
%TD*%
D11*
%TO.N,3V3_D*%
%TO.C,J3*%
X34000000Y-62800000D03*
D12*
%TO.N,EXT_TRIG*%
X34000000Y-65340000D03*
%TO.N,GND*%
X34000000Y-67880000D03*
%TD*%
D10*
%TO.N,3V3_D*%
%TO.C,TP3*%
X22000000Y-57000000D03*
%TD*%
D13*
%TO.N,LED_R3*%
%TO.C,D4*%
X85500000Y-41000000D03*
D14*
%TO.N,FPGA_TRIG*%
X82960000Y-41000000D03*
%TD*%
D11*
%TO.N,ALT_5V_IN*%
%TO.C,J4*%
X72000000Y-68200000D03*
D12*
%TO.N,GND*%
X74540000Y-68200000D03*
%TD*%
D13*
%TO.N,LED_R1*%
%TO.C,D2*%
X85500000Y-29000000D03*
D14*
%TO.N,3V3_D*%
X82960000Y-29000000D03*
%TD*%
D11*
%TO.N,JTAG_TCK*%
%TO.C,J2*%
X14000000Y-65000000D03*
D12*
%TO.N,GND*%
X14000000Y-62460000D03*
%TO.N,JTAG_TDO*%
X16540000Y-65000000D03*
%TO.N,3V3_D*%
X16540000Y-62460000D03*
%TO.N,JTAG_TMS*%
X19080000Y-65000000D03*
%TO.N,N/C*%
X19080000Y-62460000D03*
X21620000Y-65000000D03*
X21620000Y-62460000D03*
%TO.N,JTAG_TDI*%
X24160000Y-65000000D03*
%TO.N,GND*%
X24160000Y-62460000D03*
%TD*%
D10*
%TO.N,ADC_VCM*%
%TO.C,TP5*%
X32000000Y-57000000D03*
%TD*%
D11*
%TO.N,PMT_IN*%
%TO.C,JP1*%
X13000000Y-49000000D03*
D12*
%TO.N,TERM_50*%
X15540000Y-49000000D03*
%TD*%
D15*
%TO.N,AFE_IN*%
%TO.C,C1*%
X21500000Y-31000000D03*
%TO.N,AFE_AC*%
X21500000Y-26000000D03*
%TD*%
D11*
%TO.N,AFE_IN*%
%TO.C,JP2*%
X21500000Y-35000000D03*
D12*
%TO.N,GAIN_SRC*%
X21500000Y-37540000D03*
%TO.N,AFE_AC*%
X21500000Y-40080000D03*
%TD*%
D13*
%TO.N,LED_R4*%
%TO.C,D5*%
X85500000Y-47000000D03*
D14*
%TO.N,FPGA_SAT*%
X82960000Y-47000000D03*
%TD*%
D10*
%TO.N,GND*%
%TO.C,TP1*%
X12000000Y-57000000D03*
%TD*%
D16*
%TO.N,*%
%TO.C,SW2*%
X82010000Y-52750000D03*
X82010000Y-59760000D03*
D17*
%TO.N,NCONFIG*%
X84500000Y-54000000D03*
%TO.N,GND*%
X84500000Y-58500000D03*
%TD*%
D13*
%TO.N,LED_R2*%
%TO.C,D3*%
X85500000Y-35000000D03*
D14*
%TO.N,FPGA_RUN*%
X82960000Y-35000000D03*
%TD*%
D18*
%TO.N,GAIN_H_SIG*%
%TO.C,SW1*%
X28000000Y-6300000D03*
D19*
%TO.N,GAIN_M_SIG*%
X26000000Y-6300000D03*
%TO.N,GAIN_SRC*%
X22000000Y-6300000D03*
%TO.N,GAIN_L_SIG*%
X20000000Y-6300000D03*
%TO.N,GAIN_H_GND*%
X20000000Y-3000000D03*
%TO.N,GAIN_M_GND*%
X22000000Y-3000000D03*
%TO.N,GND*%
X26000000Y-3000000D03*
%TO.N,GAIN_L_GND*%
X28000000Y-3000000D03*
%TD*%
D10*
%TO.N,3V3_A*%
%TO.C,TP4*%
X27000000Y-57000000D03*
%TD*%
D20*
%TO.N,*%
%TO.C,J1*%
X3420000Y-40080000D03*
X13580000Y-29920000D03*
D21*
%TO.N,PMT_IN*%
X8500000Y-35000000D03*
D22*
%TO.N,GND*%
X11040000Y-35000000D03*
%TD*%
D23*
%TO.N,GND*%
X10000000Y-10000000D03*
D24*
X64892997Y-56578195D03*
X40000000Y-38710000D03*
X55562373Y-27972400D03*
X61981836Y-41520217D03*
X40000000Y-41290000D03*
X51603195Y-47665500D03*
X48520000Y-43250000D03*
X38710000Y-38710000D03*
X53965500Y-58678195D03*
X50903195Y-38412228D03*
X47025133Y-30772400D03*
X72228194Y-46064063D03*
X63895636Y-51081100D03*
X70892334Y-31849100D03*
X72228194Y-50556000D03*
X59335000Y-44665000D03*
X38710000Y-41290000D03*
X24464000Y-27115500D03*
X33375499Y-48070369D03*
X63624599Y-60803600D03*
X59335000Y-43335000D03*
X42590500Y-53310564D03*
X72228194Y-39571551D03*
D23*
%TO.N,3V3_A*%
X35665200Y-40450400D03*
X34962500Y-50062500D03*
X40298200Y-30550000D03*
X39250000Y-35672100D03*
%TO.N,CLK40_RAW*%
X38287700Y-34883500D03*
X33946900Y-28608700D03*
%TO.N,FPGA_REFCLK*%
X50531400Y-44750000D03*
X34883000Y-27052400D03*
%TO.N,GAIN_M_GND*%
X23700000Y-30000000D03*
%TO.N,3V3_D*%
X42250000Y-35141100D03*
X50853400Y-41467500D03*
X39253800Y-34106200D03*
X38646200Y-53483700D03*
X40761200Y-45719900D03*
X42723000Y-44340900D03*
%TO.N,CONF_DONE*%
X76406400Y-53906400D03*
X72154400Y-38547200D03*
%TO.N,GAIN_H_GND*%
X23700000Y-33800000D03*
%TO.N,EXT_TRIG*%
X61250000Y-55852900D03*
X72272200Y-41997900D03*
X42410000Y-23745600D03*
%TO.N,JTAGEN*%
X74000000Y-27180300D03*
X68152400Y-36336900D03*
%TO.N,ADC_VCM*%
X35667100Y-37255300D03*
X33225000Y-44439800D03*
%TO.N,FDA_PD*%
X29675000Y-35118300D03*
X23900000Y-48200000D03*
X27373300Y-45373700D03*
%TO.N,JTAG_TMS*%
X52380000Y-52657800D03*
X55836000Y-35863700D03*
X79115000Y-27200700D03*
%TO.N,FPGA_TRIG*%
X74094200Y-50651100D03*
%TO.N,CLK_OE*%
X34168000Y-24969300D03*
X25173600Y-28100000D03*
%TO.N,GAIN_L_GND*%
X23700000Y-36200000D03*
X18800000Y-12000000D03*
%TO.N,GAIN_H_SIG*%
X17400000Y-11000000D03*
X23700000Y-38800000D03*
%TO.N,HOST_D0*%
X55322000Y-53440000D03*
X88130000Y-4377700D03*
%TO.N,HOST_D1*%
X54750000Y-52932900D03*
X83594600Y-4388800D03*
%TO.N,HOST_D2*%
X54177900Y-53448800D03*
X54598500Y-47244600D03*
X62608000Y-47244600D03*
X79916800Y-4287500D03*
%TO.N,HOST_D3*%
X53547500Y-52998900D03*
X55035300Y-39387500D03*
X75573600Y-4408000D03*
X61839300Y-39387500D03*
%TO.N,HOST_D4*%
X53250000Y-55866900D03*
X61794900Y-52692900D03*
X74451400Y-3933500D03*
%TO.N,HOST_D5*%
X53297100Y-19172000D03*
X52750000Y-53472700D03*
%TO.N,HOST_D6*%
X52227700Y-55859700D03*
X52163000Y-17957000D03*
%TO.N,HOST_D7*%
X50721800Y-55635900D03*
X63205900Y-4374100D03*
X62187700Y-51022400D03*
%TO.N,HOST_WR*%
X61499600Y-3668900D03*
X57467300Y-55857900D03*
%TO.N,HOST_RD*%
X57294600Y-52149700D03*
X60901500Y-50496300D03*
X59568900Y-4267500D03*
%TO.N,HOST_CS*%
X59005700Y-50438700D03*
X53607700Y-4647700D03*
%TO.N,HOST_IRQ*%
X53620200Y-3861300D03*
X58257500Y-55856900D03*
%TO.N,HOST_SCK*%
X60259500Y-51655600D03*
X51288300Y-2310000D03*
%TO.N,HOST_MOSI*%
X50819800Y-4287500D03*
X59016300Y-52219400D03*
%TO.N,HOST_MISO*%
X59564900Y-52734000D03*
X47910100Y-7212500D03*
%TO.N,HOST_AUX*%
X39224100Y-4244400D03*
X59988400Y-53373800D03*
%TO.N,FPGA_RESET_N*%
X74402400Y-36065300D03*
X63166200Y-25498100D03*
X62604800Y-53059200D03*
%TO.N,VBUS*%
X87157500Y-23341200D03*
X76593400Y-55738100D03*
%TO.N,JTAG_TCK*%
X56081500Y-35098500D03*
X69448700Y-33496900D03*
%TO.N,JTAG_TDO*%
X36701800Y-32128100D03*
X59250000Y-32128100D03*
%TO.N,JTAG_TDI*%
X40516700Y-44397700D03*
X72492900Y-31216700D03*
X59381300Y-34541000D03*
%TO.N,FPGA_ADC_D4*%
X47485400Y-50407300D03*
X44626100Y-46291700D03*
%TO.N,FPGA_ADC_D6*%
X50529900Y-43873500D03*
X46646900Y-42852600D03*
%TO.N,FPGA_ADCCLK*%
X51602600Y-45750000D03*
X44210200Y-33717800D03*
%TO.N,AFE_IN*%
X20000000Y-42788600D03*
%TO.N,GAIN_SRC*%
X18100000Y-9000000D03*
D24*
%TO.N,FPGA_SAT*%
X72000000Y-47250000D03*
D23*
%TO.N,FPGA_ADC_D10*%
X46155600Y-35089000D03*
X50546300Y-39250000D03*
%TO.N,FPGA_ADC_D8*%
X46513100Y-40792100D03*
X51324600Y-40250000D03*
%TO.N,FPGA_ADC_D2*%
X50528900Y-46750000D03*
X46539600Y-47695300D03*
%TO.N,FPGA_ADC_D0*%
X44681200Y-50101000D03*
X50556000Y-47750000D03*
%TO.N,ADC_OVR*%
X48134300Y-51383700D03*
X41693800Y-35671200D03*
%TO.N,FPGA_RUN*%
X73507900Y-51568800D03*
%TO.N,NCONFIG*%
X69465700Y-42640500D03*
%TO.N,NSTATUS*%
X78586100Y-49086100D03*
X69442900Y-39250000D03*
%TO.N,GAIN_L_SIG*%
X16700000Y-8000000D03*
X23700000Y-41800000D03*
%TO.N,GAIN_M_SIG*%
X16000000Y-10000000D03*
X25000000Y-47500000D03*
%TD*%
%TA.AperFunction,Conductor*%
%TO.N,GND*%
G36*
X89543039Y-419685D02*
G01*
X89588794Y-472489D01*
X89600000Y-524000D01*
X89600000Y-69476000D01*
X89580315Y-69543039D01*
X89527511Y-69588794D01*
X89476000Y-69600000D01*
X524000Y-69600000D01*
X456961Y-69580315D01*
X411206Y-69527511D01*
X400000Y-69476000D01*
X400000Y-65878711D01*
X2149500Y-65878711D01*
X2149500Y-66121288D01*
X2181161Y-66361785D01*
X2243947Y-66596104D01*
X2336773Y-66820205D01*
X2336776Y-66820212D01*
X2458064Y-67030289D01*
X2458066Y-67030292D01*
X2458067Y-67030293D01*
X2605733Y-67222736D01*
X2605739Y-67222743D01*
X2777256Y-67394260D01*
X2777262Y-67394265D01*
X2969711Y-67541936D01*
X3179788Y-67663224D01*
X3403900Y-67756054D01*
X3638211Y-67818838D01*
X3818586Y-67842584D01*
X3878711Y-67850500D01*
X3878712Y-67850500D01*
X4121289Y-67850500D01*
X4169388Y-67844167D01*
X4361789Y-67818838D01*
X4596100Y-67756054D01*
X4820212Y-67663224D01*
X5030289Y-67541936D01*
X5222738Y-67394265D01*
X5286756Y-67330247D01*
X70949500Y-67330247D01*
X70949500Y-69069752D01*
X70961131Y-69128229D01*
X70961132Y-69128230D01*
X71005447Y-69194552D01*
X71071769Y-69238867D01*
X71071770Y-69238868D01*
X71130247Y-69250499D01*
X71130250Y-69250500D01*
X71130252Y-69250500D01*
X72869750Y-69250500D01*
X72869751Y-69250499D01*
X72884568Y-69247552D01*
X72928229Y-69238868D01*
X72928229Y-69238867D01*
X72928231Y-69238867D01*
X72994552Y-69194552D01*
X73038867Y-69128231D01*
X73038867Y-69128229D01*
X73038868Y-69128229D01*
X73050499Y-69069752D01*
X73050500Y-69069750D01*
X73050500Y-67330249D01*
X73050499Y-67330247D01*
X73038868Y-67271770D01*
X73038867Y-67271769D01*
X72994552Y-67205447D01*
X72928230Y-67161132D01*
X72928229Y-67161131D01*
X72869752Y-67149500D01*
X72869748Y-67149500D01*
X71130252Y-67149500D01*
X71130247Y-67149500D01*
X71071770Y-67161131D01*
X71071769Y-67161132D01*
X71005447Y-67205447D01*
X70961132Y-67271769D01*
X70961131Y-67271770D01*
X70949500Y-67330247D01*
X5286756Y-67330247D01*
X5380525Y-67236479D01*
X5394260Y-67222743D01*
X5394265Y-67222738D01*
X5541936Y-67030289D01*
X5663224Y-66820212D01*
X5756054Y-66596100D01*
X5818838Y-66361789D01*
X5850500Y-66121288D01*
X5850500Y-65878712D01*
X5849320Y-65869752D01*
X5822978Y-65669657D01*
X5818838Y-65638211D01*
X5756054Y-65403900D01*
X5663224Y-65179788D01*
X5541936Y-64969711D01*
X5394265Y-64777262D01*
X5394260Y-64777256D01*
X5222743Y-64605739D01*
X5222736Y-64605733D01*
X5030293Y-64458067D01*
X5030292Y-64458066D01*
X5030289Y-64458064D01*
X4820212Y-64336776D01*
X4820205Y-64336773D01*
X4596102Y-64243946D01*
X4596059Y-64243935D01*
X4361789Y-64181162D01*
X4361788Y-64181161D01*
X4361785Y-64181161D01*
X4121289Y-64149500D01*
X4121288Y-64149500D01*
X3878712Y-64149500D01*
X3878711Y-64149500D01*
X3638214Y-64181161D01*
X3403895Y-64243947D01*
X3179794Y-64336773D01*
X3179785Y-64336777D01*
X2969706Y-64458067D01*
X2777263Y-64605733D01*
X2777256Y-64605739D01*
X2605739Y-64777256D01*
X2605733Y-64777263D01*
X2458067Y-64969706D01*
X2336777Y-65179785D01*
X2336773Y-65179794D01*
X2243947Y-65403895D01*
X2181161Y-65638214D01*
X2149500Y-65878711D01*
X400000Y-65878711D01*
X400000Y-64130247D01*
X12949500Y-64130247D01*
X12949500Y-65869752D01*
X12961131Y-65928229D01*
X12961132Y-65928230D01*
X13005447Y-65994552D01*
X13071769Y-66038867D01*
X13071770Y-66038868D01*
X13130247Y-66050499D01*
X13130250Y-66050500D01*
X13130252Y-66050500D01*
X14869750Y-66050500D01*
X14869751Y-66050499D01*
X14884568Y-66047552D01*
X14928229Y-66038868D01*
X14928229Y-66038867D01*
X14928231Y-66038867D01*
X14994552Y-65994552D01*
X15038867Y-65928231D01*
X15038867Y-65928229D01*
X15038868Y-65928229D01*
X15050499Y-65869752D01*
X15050500Y-65869750D01*
X15050500Y-64896530D01*
X15489500Y-64896530D01*
X15489500Y-65103469D01*
X15529868Y-65306412D01*
X15529870Y-65306420D01*
X15609058Y-65497596D01*
X15724024Y-65669657D01*
X15870342Y-65815975D01*
X15870345Y-65815977D01*
X16042402Y-65930941D01*
X16233580Y-66010130D01*
X16378052Y-66038867D01*
X16436530Y-66050499D01*
X16436534Y-66050500D01*
X16436535Y-66050500D01*
X16643466Y-66050500D01*
X16643467Y-66050499D01*
X16846420Y-66010130D01*
X17037598Y-65930941D01*
X17209655Y-65815977D01*
X17355977Y-65669655D01*
X17470941Y-65497598D01*
X17550130Y-65306420D01*
X17590500Y-65103465D01*
X17590500Y-64896535D01*
X17590499Y-64896530D01*
X18029500Y-64896530D01*
X18029500Y-65103469D01*
X18069868Y-65306412D01*
X18069870Y-65306420D01*
X18149058Y-65497596D01*
X18264024Y-65669657D01*
X18410342Y-65815975D01*
X18410345Y-65815977D01*
X18582402Y-65930941D01*
X18773580Y-66010130D01*
X18918052Y-66038867D01*
X18976530Y-66050499D01*
X18976534Y-66050500D01*
X18976535Y-66050500D01*
X19183466Y-66050500D01*
X19183467Y-66050499D01*
X19386420Y-66010130D01*
X19577598Y-65930941D01*
X19749655Y-65815977D01*
X19895977Y-65669655D01*
X20010941Y-65497598D01*
X20090130Y-65306420D01*
X20130500Y-65103465D01*
X20130500Y-64896535D01*
X20130499Y-64896530D01*
X20569500Y-64896530D01*
X20569500Y-65103469D01*
X20609868Y-65306412D01*
X20609870Y-65306420D01*
X20689058Y-65497596D01*
X20804024Y-65669657D01*
X20950342Y-65815975D01*
X20950345Y-65815977D01*
X21122402Y-65930941D01*
X21313580Y-66010130D01*
X21458052Y-66038867D01*
X21516530Y-66050499D01*
X21516534Y-66050500D01*
X21516535Y-66050500D01*
X21723466Y-66050500D01*
X21723467Y-66050499D01*
X21926420Y-66010130D01*
X22117598Y-65930941D01*
X22289655Y-65815977D01*
X22435977Y-65669655D01*
X22550941Y-65497598D01*
X22630130Y-65306420D01*
X22670500Y-65103465D01*
X22670500Y-64896535D01*
X22670499Y-64896530D01*
X23109500Y-64896530D01*
X23109500Y-65103469D01*
X23149868Y-65306412D01*
X23149870Y-65306420D01*
X23229058Y-65497596D01*
X23344024Y-65669657D01*
X23490342Y-65815975D01*
X23490345Y-65815977D01*
X23662402Y-65930941D01*
X23853580Y-66010130D01*
X23998052Y-66038867D01*
X24056530Y-66050499D01*
X24056534Y-66050500D01*
X24056535Y-66050500D01*
X24263466Y-66050500D01*
X24263467Y-66050499D01*
X24466420Y-66010130D01*
X24657598Y-65930941D01*
X24829655Y-65815977D01*
X24975977Y-65669655D01*
X25090941Y-65497598D01*
X25170130Y-65306420D01*
X25184032Y-65236530D01*
X32949500Y-65236530D01*
X32949500Y-65443469D01*
X32989868Y-65646412D01*
X32989870Y-65646420D01*
X33064751Y-65827199D01*
X33069059Y-65837598D01*
X33096530Y-65878711D01*
X33184024Y-66009657D01*
X33330342Y-66155975D01*
X33330345Y-66155977D01*
X33502402Y-66270941D01*
X33693580Y-66350130D01*
X33896530Y-66390499D01*
X33896534Y-66390500D01*
X33896535Y-66390500D01*
X34103466Y-66390500D01*
X34103467Y-66390499D01*
X34306420Y-66350130D01*
X34497598Y-66270941D01*
X34669655Y-66155977D01*
X34815977Y-66009655D01*
X34903470Y-65878711D01*
X80149500Y-65878711D01*
X80149500Y-66121288D01*
X80181161Y-66361785D01*
X80243947Y-66596104D01*
X80336773Y-66820205D01*
X80336776Y-66820212D01*
X80458064Y-67030289D01*
X80458066Y-67030292D01*
X80458067Y-67030293D01*
X80605733Y-67222736D01*
X80605739Y-67222743D01*
X80777256Y-67394260D01*
X80777262Y-67394265D01*
X80969711Y-67541936D01*
X81179788Y-67663224D01*
X81403900Y-67756054D01*
X81638211Y-67818838D01*
X81818586Y-67842584D01*
X81878711Y-67850500D01*
X81878712Y-67850500D01*
X82121289Y-67850500D01*
X82169388Y-67844167D01*
X82361789Y-67818838D01*
X82596100Y-67756054D01*
X82820212Y-67663224D01*
X83030289Y-67541936D01*
X83222738Y-67394265D01*
X83394265Y-67222738D01*
X83541936Y-67030289D01*
X83663224Y-66820212D01*
X83756054Y-66596100D01*
X83818838Y-66361789D01*
X83850500Y-66121288D01*
X83850500Y-65878712D01*
X83849320Y-65869752D01*
X83822978Y-65669657D01*
X83818838Y-65638211D01*
X83756054Y-65403900D01*
X83663224Y-65179788D01*
X83541936Y-64969711D01*
X83394265Y-64777262D01*
X83394260Y-64777256D01*
X83222743Y-64605739D01*
X83222736Y-64605733D01*
X83030293Y-64458067D01*
X83030292Y-64458066D01*
X83030289Y-64458064D01*
X82820212Y-64336776D01*
X82804679Y-64330342D01*
X82596104Y-64243947D01*
X82361785Y-64181161D01*
X82121289Y-64149500D01*
X82121288Y-64149500D01*
X81878712Y-64149500D01*
X81878711Y-64149500D01*
X81638214Y-64181161D01*
X81403895Y-64243947D01*
X81179794Y-64336773D01*
X81179785Y-64336777D01*
X80969706Y-64458067D01*
X80777263Y-64605733D01*
X80777256Y-64605739D01*
X80605739Y-64777256D01*
X80605733Y-64777263D01*
X80458067Y-64969706D01*
X80336777Y-65179785D01*
X80336773Y-65179794D01*
X80243947Y-65403895D01*
X80181161Y-65638214D01*
X80149500Y-65878711D01*
X34903470Y-65878711D01*
X34930941Y-65837598D01*
X35010130Y-65646420D01*
X35050500Y-65443465D01*
X35050500Y-65236535D01*
X35010130Y-65033580D01*
X34930941Y-64842402D01*
X34815977Y-64670345D01*
X34815975Y-64670342D01*
X34669657Y-64524024D01*
X34570940Y-64458064D01*
X34497598Y-64409059D01*
X34306420Y-64329870D01*
X34306412Y-64329868D01*
X34103469Y-64289500D01*
X34103465Y-64289500D01*
X33896535Y-64289500D01*
X33896530Y-64289500D01*
X33693587Y-64329868D01*
X33693579Y-64329870D01*
X33502403Y-64409058D01*
X33330342Y-64524024D01*
X33184024Y-64670342D01*
X33069058Y-64842403D01*
X32989870Y-65033579D01*
X32989868Y-65033587D01*
X32949500Y-65236530D01*
X25184032Y-65236530D01*
X25195318Y-65179794D01*
X25210499Y-65103469D01*
X25210500Y-65103466D01*
X25210500Y-64896534D01*
X25210499Y-64896530D01*
X25170130Y-64693580D01*
X25090941Y-64502402D01*
X24975977Y-64330345D01*
X24975975Y-64330342D01*
X24829657Y-64184024D01*
X24661655Y-64071770D01*
X24657598Y-64069059D01*
X24466420Y-63989870D01*
X24466412Y-63989868D01*
X24263469Y-63949500D01*
X24263465Y-63949500D01*
X24056535Y-63949500D01*
X24056530Y-63949500D01*
X23853587Y-63989868D01*
X23853579Y-63989870D01*
X23662403Y-64069058D01*
X23490342Y-64184024D01*
X23344024Y-64330342D01*
X23229058Y-64502403D01*
X23149870Y-64693579D01*
X23149868Y-64693587D01*
X23109500Y-64896530D01*
X22670499Y-64896530D01*
X22630130Y-64693580D01*
X22550941Y-64502402D01*
X22435977Y-64330345D01*
X22435975Y-64330342D01*
X22289657Y-64184024D01*
X22121655Y-64071770D01*
X22117598Y-64069059D01*
X21926420Y-63989870D01*
X21926412Y-63989868D01*
X21723469Y-63949500D01*
X21723465Y-63949500D01*
X21516535Y-63949500D01*
X21516530Y-63949500D01*
X21313587Y-63989868D01*
X21313579Y-63989870D01*
X21122403Y-64069058D01*
X20950342Y-64184024D01*
X20804024Y-64330342D01*
X20689058Y-64502403D01*
X20609870Y-64693579D01*
X20609868Y-64693587D01*
X20569500Y-64896530D01*
X20130499Y-64896530D01*
X20090130Y-64693580D01*
X20010941Y-64502402D01*
X19895977Y-64330345D01*
X19895975Y-64330342D01*
X19749657Y-64184024D01*
X19581655Y-64071770D01*
X19577598Y-64069059D01*
X19386420Y-63989870D01*
X19386412Y-63989868D01*
X19183469Y-63949500D01*
X19183465Y-63949500D01*
X18976535Y-63949500D01*
X18976530Y-63949500D01*
X18773587Y-63989868D01*
X18773579Y-63989870D01*
X18582403Y-64069058D01*
X18410342Y-64184024D01*
X18264024Y-64330342D01*
X18149058Y-64502403D01*
X18069870Y-64693579D01*
X18069868Y-64693587D01*
X18029500Y-64896530D01*
X17590499Y-64896530D01*
X17550130Y-64693580D01*
X17470941Y-64502402D01*
X17355977Y-64330345D01*
X17355975Y-64330342D01*
X17209657Y-64184024D01*
X17041655Y-64071770D01*
X17037598Y-64069059D01*
X16846420Y-63989870D01*
X16846412Y-63989868D01*
X16643469Y-63949500D01*
X16643465Y-63949500D01*
X16436535Y-63949500D01*
X16436530Y-63949500D01*
X16233587Y-63989868D01*
X16233579Y-63989870D01*
X16042403Y-64069058D01*
X15870342Y-64184024D01*
X15724024Y-64330342D01*
X15609058Y-64502403D01*
X15529870Y-64693579D01*
X15529868Y-64693587D01*
X15489500Y-64896530D01*
X15050500Y-64896530D01*
X15050500Y-64130249D01*
X15050499Y-64130247D01*
X15038868Y-64071770D01*
X15038867Y-64071769D01*
X14994552Y-64005447D01*
X14928230Y-63961132D01*
X14928229Y-63961131D01*
X14869752Y-63949500D01*
X14869748Y-63949500D01*
X13130252Y-63949500D01*
X13130247Y-63949500D01*
X13071770Y-63961131D01*
X13071769Y-63961132D01*
X13005447Y-64005447D01*
X12961132Y-64071769D01*
X12961131Y-64071770D01*
X12949500Y-64130247D01*
X400000Y-64130247D01*
X400000Y-62356530D01*
X15489500Y-62356530D01*
X15489500Y-62563469D01*
X15529868Y-62766412D01*
X15529870Y-62766420D01*
X15609058Y-62957596D01*
X15724024Y-63129657D01*
X15870342Y-63275975D01*
X15870345Y-63275977D01*
X16042402Y-63390941D01*
X16233580Y-63470130D01*
X16436530Y-63510499D01*
X16436534Y-63510500D01*
X16436535Y-63510500D01*
X16643466Y-63510500D01*
X16643467Y-63510499D01*
X16846420Y-63470130D01*
X17037598Y-63390941D01*
X17209655Y-63275977D01*
X17355977Y-63129655D01*
X17470941Y-62957598D01*
X17550130Y-62766420D01*
X17590500Y-62563465D01*
X17590500Y-62356535D01*
X17590499Y-62356530D01*
X18029500Y-62356530D01*
X18029500Y-62563469D01*
X18069868Y-62766412D01*
X18069870Y-62766420D01*
X18149058Y-62957596D01*
X18264024Y-63129657D01*
X18410342Y-63275975D01*
X18410345Y-63275977D01*
X18582402Y-63390941D01*
X18773580Y-63470130D01*
X18976530Y-63510499D01*
X18976534Y-63510500D01*
X18976535Y-63510500D01*
X19183466Y-63510500D01*
X19183467Y-63510499D01*
X19386420Y-63470130D01*
X19577598Y-63390941D01*
X19749655Y-63275977D01*
X19895977Y-63129655D01*
X20010941Y-62957598D01*
X20090130Y-62766420D01*
X20130500Y-62563465D01*
X20130500Y-62356535D01*
X20130499Y-62356530D01*
X20569500Y-62356530D01*
X20569500Y-62563469D01*
X20609868Y-62766412D01*
X20609870Y-62766420D01*
X20689058Y-62957596D01*
X20804024Y-63129657D01*
X20950342Y-63275975D01*
X20950345Y-63275977D01*
X21122402Y-63390941D01*
X21313580Y-63470130D01*
X21516530Y-63510499D01*
X21516534Y-63510500D01*
X21516535Y-63510500D01*
X21723466Y-63510500D01*
X21723467Y-63510499D01*
X21926420Y-63470130D01*
X22117598Y-63390941D01*
X22289655Y-63275977D01*
X22435977Y-63129655D01*
X22550941Y-62957598D01*
X22630130Y-62766420D01*
X22670500Y-62563465D01*
X22670500Y-62356535D01*
X22630130Y-62153580D01*
X22594567Y-62067724D01*
X22554757Y-61971613D01*
X22550941Y-61962403D01*
X22550941Y-61962402D01*
X22529456Y-61930247D01*
X32949500Y-61930247D01*
X32949500Y-63669752D01*
X32961131Y-63728229D01*
X32961132Y-63728230D01*
X33005447Y-63794552D01*
X33071769Y-63838867D01*
X33071770Y-63838868D01*
X33130247Y-63850499D01*
X33130250Y-63850500D01*
X33130252Y-63850500D01*
X34869750Y-63850500D01*
X34869751Y-63850499D01*
X34884568Y-63847552D01*
X34928229Y-63838868D01*
X34928229Y-63838867D01*
X34928231Y-63838867D01*
X34994552Y-63794552D01*
X35038867Y-63728231D01*
X35038867Y-63728229D01*
X35038868Y-63728229D01*
X35050499Y-63669752D01*
X35050500Y-63669750D01*
X35050500Y-61930249D01*
X35050499Y-61930247D01*
X35038868Y-61871770D01*
X35038867Y-61871769D01*
X34994552Y-61805447D01*
X34928230Y-61761132D01*
X34928229Y-61761131D01*
X34869752Y-61749500D01*
X34869748Y-61749500D01*
X33130252Y-61749500D01*
X33130247Y-61749500D01*
X33071770Y-61761131D01*
X33071769Y-61761132D01*
X33005447Y-61805447D01*
X32961132Y-61871769D01*
X32961131Y-61871770D01*
X32949500Y-61930247D01*
X22529456Y-61930247D01*
X22435977Y-61790345D01*
X22435975Y-61790342D01*
X22289657Y-61644024D01*
X22203626Y-61586541D01*
X22117598Y-61529059D01*
X21926420Y-61449870D01*
X21926412Y-61449868D01*
X21723469Y-61409500D01*
X21723465Y-61409500D01*
X21516535Y-61409500D01*
X21516530Y-61409500D01*
X21313587Y-61449868D01*
X21313579Y-61449870D01*
X21122403Y-61529058D01*
X20950342Y-61644024D01*
X20804024Y-61790342D01*
X20689058Y-61962403D01*
X20609870Y-62153579D01*
X20609868Y-62153587D01*
X20569500Y-62356530D01*
X20130499Y-62356530D01*
X20090130Y-62153580D01*
X20010941Y-61962402D01*
X19895977Y-61790345D01*
X19895975Y-61790342D01*
X19749657Y-61644024D01*
X19663626Y-61586541D01*
X19577598Y-61529059D01*
X19386420Y-61449870D01*
X19386412Y-61449868D01*
X19183469Y-61409500D01*
X19183465Y-61409500D01*
X18976535Y-61409500D01*
X18976530Y-61409500D01*
X18773587Y-61449868D01*
X18773579Y-61449870D01*
X18582403Y-61529058D01*
X18410342Y-61644024D01*
X18264024Y-61790342D01*
X18149058Y-61962403D01*
X18069870Y-62153579D01*
X18069868Y-62153587D01*
X18029500Y-62356530D01*
X17590499Y-62356530D01*
X17550130Y-62153580D01*
X17470941Y-61962402D01*
X17355977Y-61790345D01*
X17355975Y-61790342D01*
X17209657Y-61644024D01*
X17123626Y-61586541D01*
X17037598Y-61529059D01*
X16846420Y-61449870D01*
X16846412Y-61449868D01*
X16643469Y-61409500D01*
X16643465Y-61409500D01*
X16436535Y-61409500D01*
X16436530Y-61409500D01*
X16233587Y-61449868D01*
X16233579Y-61449870D01*
X16042403Y-61529058D01*
X15870342Y-61644024D01*
X15724024Y-61790342D01*
X15609058Y-61962403D01*
X15529870Y-62153579D01*
X15529868Y-62153587D01*
X15489500Y-62356530D01*
X400000Y-62356530D01*
X400000Y-59661577D01*
X80759500Y-59661577D01*
X80759500Y-59858422D01*
X80790290Y-60052826D01*
X80851117Y-60240029D01*
X80940476Y-60415405D01*
X81056172Y-60574646D01*
X81195354Y-60713828D01*
X81354595Y-60829524D01*
X81437455Y-60871743D01*
X81529970Y-60918882D01*
X81529972Y-60918882D01*
X81529975Y-60918884D01*
X81630317Y-60951487D01*
X81717173Y-60979709D01*
X81911578Y-61010500D01*
X81911583Y-61010500D01*
X82108422Y-61010500D01*
X82302826Y-60979709D01*
X82490025Y-60918884D01*
X82665405Y-60829524D01*
X82824646Y-60713828D01*
X82963828Y-60574646D01*
X83079524Y-60415405D01*
X83168884Y-60240025D01*
X83229709Y-60052826D01*
X83260500Y-59858422D01*
X83260500Y-59661577D01*
X83229709Y-59467173D01*
X83168882Y-59279970D01*
X83079523Y-59104594D01*
X82963828Y-58945354D01*
X82824646Y-58806172D01*
X82665405Y-58690476D01*
X82627970Y-58671402D01*
X82490029Y-58601117D01*
X82302826Y-58540290D01*
X82108422Y-58509500D01*
X82108417Y-58509500D01*
X81911583Y-58509500D01*
X81911578Y-58509500D01*
X81717173Y-58540290D01*
X81529970Y-58601117D01*
X81354594Y-58690476D01*
X81263741Y-58756485D01*
X81195354Y-58806172D01*
X81195352Y-58806174D01*
X81195351Y-58806174D01*
X81056174Y-58945351D01*
X81056174Y-58945352D01*
X81056172Y-58945354D01*
X81006485Y-59013741D01*
X80940476Y-59104594D01*
X80851117Y-59279970D01*
X80790290Y-59467173D01*
X80759500Y-59661577D01*
X400000Y-59661577D01*
X400000Y-56888549D01*
X15299500Y-56888549D01*
X15299500Y-57111450D01*
X15299501Y-57111466D01*
X15328594Y-57332452D01*
X15328595Y-57332457D01*
X15328596Y-57332463D01*
X15328597Y-57332465D01*
X15386290Y-57547780D01*
X15386293Y-57547790D01*
X15471593Y-57753722D01*
X15471595Y-57753726D01*
X15583052Y-57946774D01*
X15583057Y-57946780D01*
X15583058Y-57946782D01*
X15718751Y-58123622D01*
X15718757Y-58123629D01*
X15876370Y-58281242D01*
X15876376Y-58281247D01*
X16053226Y-58416948D01*
X16246274Y-58528405D01*
X16452219Y-58613710D01*
X16667537Y-58671404D01*
X16888543Y-58700500D01*
X16888550Y-58700500D01*
X17111450Y-58700500D01*
X17111457Y-58700500D01*
X17332463Y-58671404D01*
X17547781Y-58613710D01*
X17753726Y-58528405D01*
X17946774Y-58416948D01*
X18123624Y-58281247D01*
X18281247Y-58123624D01*
X18416948Y-57946774D01*
X18528405Y-57753726D01*
X18613710Y-57547781D01*
X18671404Y-57332463D01*
X18700500Y-57111457D01*
X18700500Y-56888549D01*
X20299500Y-56888549D01*
X20299500Y-57111450D01*
X20299501Y-57111466D01*
X20328594Y-57332452D01*
X20328595Y-57332457D01*
X20328596Y-57332463D01*
X20328597Y-57332465D01*
X20386290Y-57547780D01*
X20386293Y-57547790D01*
X20471593Y-57753722D01*
X20471595Y-57753726D01*
X20583052Y-57946774D01*
X20583057Y-57946780D01*
X20583058Y-57946782D01*
X20718751Y-58123622D01*
X20718757Y-58123629D01*
X20876370Y-58281242D01*
X20876376Y-58281247D01*
X21053226Y-58416948D01*
X21246274Y-58528405D01*
X21452219Y-58613710D01*
X21667537Y-58671404D01*
X21888543Y-58700500D01*
X21888550Y-58700500D01*
X22111450Y-58700500D01*
X22111457Y-58700500D01*
X22332463Y-58671404D01*
X22547781Y-58613710D01*
X22753726Y-58528405D01*
X22946774Y-58416948D01*
X23123624Y-58281247D01*
X23281247Y-58123624D01*
X23416948Y-57946774D01*
X23528405Y-57753726D01*
X23613710Y-57547781D01*
X23671404Y-57332463D01*
X23700500Y-57111457D01*
X23700500Y-56888549D01*
X25299500Y-56888549D01*
X25299500Y-57111450D01*
X25299501Y-57111466D01*
X25328594Y-57332452D01*
X25328595Y-57332457D01*
X25328596Y-57332463D01*
X25328597Y-57332465D01*
X25386290Y-57547780D01*
X25386293Y-57547790D01*
X25471593Y-57753722D01*
X25471595Y-57753726D01*
X25583052Y-57946774D01*
X25583057Y-57946780D01*
X25583058Y-57946782D01*
X25718751Y-58123622D01*
X25718757Y-58123629D01*
X25876370Y-58281242D01*
X25876376Y-58281247D01*
X26053226Y-58416948D01*
X26246274Y-58528405D01*
X26452219Y-58613710D01*
X26667537Y-58671404D01*
X26888543Y-58700500D01*
X26888550Y-58700500D01*
X27111450Y-58700500D01*
X27111457Y-58700500D01*
X27332463Y-58671404D01*
X27547781Y-58613710D01*
X27753726Y-58528405D01*
X27946774Y-58416948D01*
X28123624Y-58281247D01*
X28281247Y-58123624D01*
X28416948Y-57946774D01*
X28528405Y-57753726D01*
X28613710Y-57547781D01*
X28671404Y-57332463D01*
X28700500Y-57111457D01*
X28700500Y-56888549D01*
X30299500Y-56888549D01*
X30299500Y-57111450D01*
X30299501Y-57111466D01*
X30328594Y-57332452D01*
X30328595Y-57332457D01*
X30328596Y-57332463D01*
X30328597Y-57332465D01*
X30386290Y-57547780D01*
X30386293Y-57547790D01*
X30471593Y-57753722D01*
X30471595Y-57753726D01*
X30583052Y-57946774D01*
X30583057Y-57946780D01*
X30583058Y-57946782D01*
X30718751Y-58123622D01*
X30718757Y-58123629D01*
X30876370Y-58281242D01*
X30876376Y-58281247D01*
X31053226Y-58416948D01*
X31246274Y-58528405D01*
X31452219Y-58613710D01*
X31667537Y-58671404D01*
X31888543Y-58700500D01*
X31888550Y-58700500D01*
X32111450Y-58700500D01*
X32111457Y-58700500D01*
X32332463Y-58671404D01*
X32547781Y-58613710D01*
X32753726Y-58528405D01*
X32946774Y-58416948D01*
X33123624Y-58281247D01*
X33281247Y-58123624D01*
X33416948Y-57946774D01*
X33528405Y-57753726D01*
X33613710Y-57547781D01*
X33671404Y-57332463D01*
X33700500Y-57111457D01*
X33700500Y-56888543D01*
X33671404Y-56667537D01*
X33613710Y-56452219D01*
X33528405Y-56246274D01*
X33416948Y-56053226D01*
X33324535Y-55932790D01*
X33281248Y-55876377D01*
X33281242Y-55876370D01*
X33123629Y-55718757D01*
X33123622Y-55718751D01*
X33047391Y-55660257D01*
X32946783Y-55583058D01*
X32946777Y-55583054D01*
X32946774Y-55583052D01*
X32924181Y-55570008D01*
X50221300Y-55570008D01*
X50221300Y-55701791D01*
X50255408Y-55829087D01*
X50288354Y-55886150D01*
X50321300Y-55943214D01*
X50414486Y-56036400D01*
X50528614Y-56102292D01*
X50655908Y-56136400D01*
X50655910Y-56136400D01*
X50787690Y-56136400D01*
X50787692Y-56136400D01*
X50914986Y-56102292D01*
X51029114Y-56036400D01*
X51122300Y-55943214D01*
X51188192Y-55829086D01*
X51197645Y-55793808D01*
X51727200Y-55793808D01*
X51727200Y-55925592D01*
X51731922Y-55943214D01*
X51761308Y-56052887D01*
X51789832Y-56102291D01*
X51827200Y-56167014D01*
X51920386Y-56260200D01*
X52019221Y-56317263D01*
X52031394Y-56324291D01*
X52034514Y-56326092D01*
X52161808Y-56360200D01*
X52161810Y-56360200D01*
X52293590Y-56360200D01*
X52293592Y-56360200D01*
X52420886Y-56326092D01*
X52535014Y-56260200D01*
X52628200Y-56167014D01*
X52629382Y-56164965D01*
X52630831Y-56163584D01*
X52633148Y-56160565D01*
X52633618Y-56160926D01*
X52679945Y-56116750D01*
X52748551Y-56103523D01*
X52813417Y-56129487D01*
X52844157Y-56164960D01*
X52849500Y-56174214D01*
X52942686Y-56267400D01*
X53039492Y-56323291D01*
X53044341Y-56326091D01*
X53056814Y-56333292D01*
X53184108Y-56367400D01*
X53184110Y-56367400D01*
X53315890Y-56367400D01*
X53315892Y-56367400D01*
X53443186Y-56333292D01*
X53557314Y-56267400D01*
X53650500Y-56174214D01*
X53716392Y-56060086D01*
X53750500Y-55932792D01*
X53750500Y-55801008D01*
X53748088Y-55792008D01*
X56966800Y-55792008D01*
X56966800Y-55923792D01*
X56968808Y-55931286D01*
X57000908Y-56051087D01*
X57030471Y-56102291D01*
X57066800Y-56165214D01*
X57159986Y-56258400D01*
X57274114Y-56324292D01*
X57401408Y-56358400D01*
X57401410Y-56358400D01*
X57533190Y-56358400D01*
X57533192Y-56358400D01*
X57660486Y-56324292D01*
X57774614Y-56258400D01*
X57775219Y-56257795D01*
X57775852Y-56257449D01*
X57781060Y-56253453D01*
X57781683Y-56254265D01*
X57836542Y-56224310D01*
X57906234Y-56229294D01*
X57943254Y-56253086D01*
X57943740Y-56252453D01*
X57950181Y-56257395D01*
X57950186Y-56257400D01*
X58064314Y-56323292D01*
X58191608Y-56357400D01*
X58191610Y-56357400D01*
X58323390Y-56357400D01*
X58323392Y-56357400D01*
X58450686Y-56323292D01*
X58564814Y-56257400D01*
X58658000Y-56164214D01*
X58723892Y-56050086D01*
X58758000Y-55922792D01*
X58758000Y-55791008D01*
X58756928Y-55787008D01*
X60749500Y-55787008D01*
X60749500Y-55918792D01*
X60750840Y-55923792D01*
X60783608Y-56046087D01*
X60816058Y-56102291D01*
X60849500Y-56160214D01*
X60942686Y-56253400D01*
X61056814Y-56319292D01*
X61184108Y-56353400D01*
X61184110Y-56353400D01*
X61315890Y-56353400D01*
X61315892Y-56353400D01*
X61443186Y-56319292D01*
X61557314Y-56253400D01*
X61650500Y-56160214D01*
X61716392Y-56046086D01*
X61750500Y-55918792D01*
X61750500Y-55787008D01*
X61719740Y-55672208D01*
X76092900Y-55672208D01*
X76092900Y-55803991D01*
X76127008Y-55931287D01*
X76159954Y-55988350D01*
X76192900Y-56045414D01*
X76286086Y-56138600D01*
X76400214Y-56204492D01*
X76527508Y-56238600D01*
X76527510Y-56238600D01*
X76659290Y-56238600D01*
X76659292Y-56238600D01*
X76786586Y-56204492D01*
X76900714Y-56138600D01*
X76993900Y-56045414D01*
X77059792Y-55931286D01*
X77093900Y-55803992D01*
X77093900Y-55672208D01*
X77059792Y-55544914D01*
X77059660Y-55544686D01*
X77028370Y-55490490D01*
X76993900Y-55430786D01*
X76900714Y-55337600D01*
X76834723Y-55299500D01*
X76786587Y-55271708D01*
X76722939Y-55254654D01*
X76659292Y-55237600D01*
X76527508Y-55237600D01*
X76400212Y-55271708D01*
X76286086Y-55337600D01*
X76286083Y-55337602D01*
X76192902Y-55430783D01*
X76192900Y-55430786D01*
X76127008Y-55544912D01*
X76092900Y-55672208D01*
X61719740Y-55672208D01*
X61716392Y-55659714D01*
X61650500Y-55545586D01*
X61557314Y-55452400D01*
X61467435Y-55400508D01*
X61443187Y-55386508D01*
X61330820Y-55356400D01*
X61315892Y-55352400D01*
X61184108Y-55352400D01*
X61056812Y-55386508D01*
X60942686Y-55452400D01*
X60942683Y-55452402D01*
X60849502Y-55545583D01*
X60849500Y-55545586D01*
X60783608Y-55659712D01*
X60758455Y-55753588D01*
X60749500Y-55787008D01*
X58756928Y-55787008D01*
X58723892Y-55663714D01*
X58721581Y-55659712D01*
X58700429Y-55623075D01*
X58658000Y-55549586D01*
X58564814Y-55456400D01*
X58507750Y-55423454D01*
X58450687Y-55390508D01*
X58387039Y-55373454D01*
X58323392Y-55356400D01*
X58191608Y-55356400D01*
X58064312Y-55390508D01*
X57950186Y-55456400D01*
X57950183Y-55456402D01*
X57949581Y-55457005D01*
X57948947Y-55457350D01*
X57943740Y-55461347D01*
X57943116Y-55460534D01*
X57888258Y-55490490D01*
X57818566Y-55485506D01*
X57781545Y-55461713D01*
X57781060Y-55462347D01*
X57774616Y-55457402D01*
X57774614Y-55457400D01*
X57717550Y-55424454D01*
X57660487Y-55391508D01*
X57596839Y-55374454D01*
X57533192Y-55357400D01*
X57401408Y-55357400D01*
X57274112Y-55391508D01*
X57159986Y-55457400D01*
X57159983Y-55457402D01*
X57066802Y-55550583D01*
X57066800Y-55550586D01*
X57000908Y-55664712D01*
X56968140Y-55787008D01*
X56966800Y-55792008D01*
X53748088Y-55792008D01*
X53716392Y-55673714D01*
X53710618Y-55663714D01*
X53679524Y-55609857D01*
X53650500Y-55559586D01*
X53557314Y-55466400D01*
X53495624Y-55430783D01*
X53443187Y-55400508D01*
X53379539Y-55383454D01*
X53315892Y-55366400D01*
X53184108Y-55366400D01*
X53056812Y-55400508D01*
X52942686Y-55466400D01*
X52942683Y-55466402D01*
X52849502Y-55559583D01*
X52849497Y-55559589D01*
X52848311Y-55561645D01*
X52846856Y-55563031D01*
X52844552Y-55566035D01*
X52844083Y-55565675D01*
X52797740Y-55609857D01*
X52729132Y-55623075D01*
X52664269Y-55597102D01*
X52633541Y-55561637D01*
X52628200Y-55552386D01*
X52535014Y-55459200D01*
X52477950Y-55426254D01*
X52420887Y-55393308D01*
X52357239Y-55376254D01*
X52293592Y-55359200D01*
X52161808Y-55359200D01*
X52034512Y-55393308D01*
X51920386Y-55459200D01*
X51920383Y-55459202D01*
X51827202Y-55552383D01*
X51827200Y-55552386D01*
X51761308Y-55666512D01*
X51727950Y-55791008D01*
X51727200Y-55793808D01*
X51197645Y-55793808D01*
X51222300Y-55701792D01*
X51222300Y-55570008D01*
X51188192Y-55442714D01*
X51122300Y-55328586D01*
X51029114Y-55235400D01*
X50972050Y-55202454D01*
X50914987Y-55169508D01*
X50851339Y-55152454D01*
X50787692Y-55135400D01*
X50655908Y-55135400D01*
X50528612Y-55169508D01*
X50414486Y-55235400D01*
X50414483Y-55235402D01*
X50321302Y-55328583D01*
X50321300Y-55328586D01*
X50255408Y-55442712D01*
X50221300Y-55570008D01*
X32924181Y-55570008D01*
X32753726Y-55471595D01*
X32753722Y-55471593D01*
X32547790Y-55386293D01*
X32547783Y-55386291D01*
X32547781Y-55386290D01*
X32332463Y-55328596D01*
X32332457Y-55328595D01*
X32332452Y-55328594D01*
X32111466Y-55299501D01*
X32111463Y-55299500D01*
X32111457Y-55299500D01*
X31888543Y-55299500D01*
X31888537Y-55299500D01*
X31888533Y-55299501D01*
X31667547Y-55328594D01*
X31667540Y-55328595D01*
X31667537Y-55328596D01*
X31553321Y-55359200D01*
X31452219Y-55386290D01*
X31452209Y-55386293D01*
X31246277Y-55471593D01*
X31246273Y-55471595D01*
X31053226Y-55583052D01*
X31053217Y-55583058D01*
X30876377Y-55718751D01*
X30876370Y-55718757D01*
X30718757Y-55876370D01*
X30718751Y-55876377D01*
X30583058Y-56053217D01*
X30583052Y-56053226D01*
X30471595Y-56246273D01*
X30471593Y-56246277D01*
X30386293Y-56452209D01*
X30386290Y-56452219D01*
X30328597Y-56667534D01*
X30328594Y-56667547D01*
X30299501Y-56888533D01*
X30299500Y-56888549D01*
X28700500Y-56888549D01*
X28700500Y-56888543D01*
X28671404Y-56667537D01*
X28613710Y-56452219D01*
X28528405Y-56246274D01*
X28416948Y-56053226D01*
X28324535Y-55932790D01*
X28281248Y-55876377D01*
X28281242Y-55876370D01*
X28123629Y-55718757D01*
X28123622Y-55718751D01*
X27946782Y-55583058D01*
X27946780Y-55583057D01*
X27946774Y-55583052D01*
X27753726Y-55471595D01*
X27753722Y-55471593D01*
X27547790Y-55386293D01*
X27547783Y-55386291D01*
X27547781Y-55386290D01*
X27332463Y-55328596D01*
X27332457Y-55328595D01*
X27332452Y-55328594D01*
X27111466Y-55299501D01*
X27111463Y-55299500D01*
X27111457Y-55299500D01*
X26888543Y-55299500D01*
X26888537Y-55299500D01*
X26888533Y-55299501D01*
X26667547Y-55328594D01*
X26667540Y-55328595D01*
X26667537Y-55328596D01*
X26553321Y-55359200D01*
X26452219Y-55386290D01*
X26452209Y-55386293D01*
X26246277Y-55471593D01*
X26246273Y-55471595D01*
X26053226Y-55583052D01*
X26053217Y-55583058D01*
X25876377Y-55718751D01*
X25876370Y-55718757D01*
X25718757Y-55876370D01*
X25718751Y-55876377D01*
X25583058Y-56053217D01*
X25583052Y-56053226D01*
X25471595Y-56246273D01*
X25471593Y-56246277D01*
X25386293Y-56452209D01*
X25386290Y-56452219D01*
X25328597Y-56667534D01*
X25328594Y-56667547D01*
X25299501Y-56888533D01*
X25299500Y-56888549D01*
X23700500Y-56888549D01*
X23700500Y-56888543D01*
X23671404Y-56667537D01*
X23613710Y-56452219D01*
X23528405Y-56246274D01*
X23416948Y-56053226D01*
X23324535Y-55932790D01*
X23281248Y-55876377D01*
X23281242Y-55876370D01*
X23123629Y-55718757D01*
X23123622Y-55718751D01*
X22946782Y-55583058D01*
X22946780Y-55583057D01*
X22946774Y-55583052D01*
X22753726Y-55471595D01*
X22753722Y-55471593D01*
X22547790Y-55386293D01*
X22547783Y-55386291D01*
X22547781Y-55386290D01*
X22332463Y-55328596D01*
X22332457Y-55328595D01*
X22332452Y-55328594D01*
X22111466Y-55299501D01*
X22111463Y-55299500D01*
X22111457Y-55299500D01*
X21888543Y-55299500D01*
X21888537Y-55299500D01*
X21888533Y-55299501D01*
X21667547Y-55328594D01*
X21667540Y-55328595D01*
X21667537Y-55328596D01*
X21553321Y-55359200D01*
X21452219Y-55386290D01*
X21452209Y-55386293D01*
X21246277Y-55471593D01*
X21246273Y-55471595D01*
X21053226Y-55583052D01*
X21053217Y-55583058D01*
X20876377Y-55718751D01*
X20876370Y-55718757D01*
X20718757Y-55876370D01*
X20718751Y-55876377D01*
X20583058Y-56053217D01*
X20583052Y-56053226D01*
X20471595Y-56246273D01*
X20471593Y-56246277D01*
X20386293Y-56452209D01*
X20386290Y-56452219D01*
X20328597Y-56667534D01*
X20328594Y-56667547D01*
X20299501Y-56888533D01*
X20299500Y-56888549D01*
X18700500Y-56888549D01*
X18700500Y-56888543D01*
X18671404Y-56667537D01*
X18613710Y-56452219D01*
X18528405Y-56246274D01*
X18416948Y-56053226D01*
X18324535Y-55932790D01*
X18281248Y-55876377D01*
X18281242Y-55876370D01*
X18123629Y-55718757D01*
X18123622Y-55718751D01*
X17946782Y-55583058D01*
X17946780Y-55583057D01*
X17946774Y-55583052D01*
X17753726Y-55471595D01*
X17753722Y-55471593D01*
X17547790Y-55386293D01*
X17547783Y-55386291D01*
X17547781Y-55386290D01*
X17332463Y-55328596D01*
X17332457Y-55328595D01*
X17332452Y-55328594D01*
X17111466Y-55299501D01*
X17111463Y-55299500D01*
X17111457Y-55299500D01*
X16888543Y-55299500D01*
X16888537Y-55299500D01*
X16888533Y-55299501D01*
X16667547Y-55328594D01*
X16667540Y-55328595D01*
X16667537Y-55328596D01*
X16553321Y-55359200D01*
X16452219Y-55386290D01*
X16452209Y-55386293D01*
X16246277Y-55471593D01*
X16246273Y-55471595D01*
X16053226Y-55583052D01*
X16053217Y-55583058D01*
X15876377Y-55718751D01*
X15876370Y-55718757D01*
X15718757Y-55876370D01*
X15718751Y-55876377D01*
X15583058Y-56053217D01*
X15583052Y-56053226D01*
X15471595Y-56246273D01*
X15471593Y-56246277D01*
X15386293Y-56452209D01*
X15386290Y-56452219D01*
X15328597Y-56667534D01*
X15328594Y-56667547D01*
X15299501Y-56888533D01*
X15299500Y-56888549D01*
X400000Y-56888549D01*
X400000Y-53417808D01*
X38145700Y-53417808D01*
X38145700Y-53549592D01*
X38155764Y-53587151D01*
X38179808Y-53676887D01*
X38182248Y-53681113D01*
X38245700Y-53791014D01*
X38338886Y-53884200D01*
X38453014Y-53950092D01*
X38580308Y-53984200D01*
X38580310Y-53984200D01*
X38712090Y-53984200D01*
X38712092Y-53984200D01*
X38839386Y-53950092D01*
X38953514Y-53884200D01*
X39046700Y-53791014D01*
X39112592Y-53676886D01*
X39146700Y-53549592D01*
X39146700Y-53417808D01*
X39112592Y-53290514D01*
X39046700Y-53176386D01*
X38953514Y-53083200D01*
X38896450Y-53050254D01*
X38839387Y-53017308D01*
X38749816Y-52993308D01*
X38712092Y-52983200D01*
X38580308Y-52983200D01*
X38453012Y-53017308D01*
X38338886Y-53083200D01*
X38338883Y-53083202D01*
X38245702Y-53176383D01*
X38245700Y-53176386D01*
X38179808Y-53290512D01*
X38157409Y-53374108D01*
X38145700Y-53417808D01*
X400000Y-53417808D01*
X400000Y-52591908D01*
X51879500Y-52591908D01*
X51879500Y-52723692D01*
X51887193Y-52752403D01*
X51913608Y-52850987D01*
X51946183Y-52907407D01*
X51979500Y-52965114D01*
X52072686Y-53058300D01*
X52186814Y-53124192D01*
X52196179Y-53126701D01*
X52255840Y-53163066D01*
X52286369Y-53225913D01*
X52283861Y-53278569D01*
X52278290Y-53299360D01*
X52249500Y-53406808D01*
X52249500Y-53538592D01*
X52256482Y-53564648D01*
X52283608Y-53665887D01*
X52292401Y-53681116D01*
X52349500Y-53780014D01*
X52442686Y-53873200D01*
X52556814Y-53939092D01*
X52684108Y-53973200D01*
X52684110Y-53973200D01*
X52815890Y-53973200D01*
X52815892Y-53973200D01*
X52943186Y-53939092D01*
X53057314Y-53873200D01*
X53150500Y-53780014D01*
X53216392Y-53665886D01*
X53243686Y-53564020D01*
X53280050Y-53504363D01*
X53342896Y-53473833D01*
X53395548Y-53476340D01*
X53481608Y-53499400D01*
X53481611Y-53499400D01*
X53578154Y-53499400D01*
X53645193Y-53519085D01*
X53690948Y-53571889D01*
X53697929Y-53591307D01*
X53711508Y-53641987D01*
X53734100Y-53681116D01*
X53777400Y-53756114D01*
X53870586Y-53849300D01*
X53984714Y-53915192D01*
X54112008Y-53949300D01*
X54112010Y-53949300D01*
X54243790Y-53949300D01*
X54243792Y-53949300D01*
X54371086Y-53915192D01*
X54485214Y-53849300D01*
X54578400Y-53756114D01*
X54644292Y-53641986D01*
X54644292Y-53641985D01*
X54645103Y-53640581D01*
X54695670Y-53592365D01*
X54764277Y-53579142D01*
X54829142Y-53605110D01*
X54859877Y-53640581D01*
X54921497Y-53747310D01*
X54921499Y-53747312D01*
X54921500Y-53747314D01*
X55014686Y-53840500D01*
X55128814Y-53906392D01*
X55256108Y-53940500D01*
X55256110Y-53940500D01*
X55387890Y-53940500D01*
X55387892Y-53940500D01*
X55515186Y-53906392D01*
X55629314Y-53840500D01*
X55722500Y-53747314D01*
X55788392Y-53633186D01*
X55822500Y-53505892D01*
X55822500Y-53374108D01*
X55788392Y-53246814D01*
X55781282Y-53234500D01*
X55761590Y-53200392D01*
X55722500Y-53132686D01*
X55629314Y-53039500D01*
X55549311Y-52993310D01*
X55515187Y-52973608D01*
X55451539Y-52956554D01*
X55387892Y-52939500D01*
X55365072Y-52939500D01*
X55298033Y-52919815D01*
X55252278Y-52867011D01*
X55245300Y-52847601D01*
X55216392Y-52739714D01*
X55150500Y-52625586D01*
X55057314Y-52532400D01*
X54998424Y-52498400D01*
X54943187Y-52466508D01*
X54879539Y-52449454D01*
X54815892Y-52432400D01*
X54684108Y-52432400D01*
X54556812Y-52466508D01*
X54442686Y-52532400D01*
X54442683Y-52532402D01*
X54349502Y-52625583D01*
X54349500Y-52625586D01*
X54311397Y-52691583D01*
X54283608Y-52739714D01*
X54278496Y-52758792D01*
X54259682Y-52829007D01*
X54223316Y-52888667D01*
X54160469Y-52919196D01*
X54091094Y-52910901D01*
X54037216Y-52866415D01*
X54020134Y-52829011D01*
X54013892Y-52805714D01*
X53948000Y-52691586D01*
X53854814Y-52598400D01*
X53773119Y-52551233D01*
X53740687Y-52532508D01*
X53677039Y-52515454D01*
X53613392Y-52498400D01*
X53481608Y-52498400D01*
X53354312Y-52532508D01*
X53240186Y-52598400D01*
X53240183Y-52598402D01*
X53147002Y-52691583D01*
X53147000Y-52691586D01*
X53111887Y-52752403D01*
X53061319Y-52800618D01*
X52992712Y-52813840D01*
X52927847Y-52787872D01*
X52887319Y-52730957D01*
X52880500Y-52690402D01*
X52880500Y-52591910D01*
X52880500Y-52591908D01*
X52846392Y-52464614D01*
X52780500Y-52350486D01*
X52687314Y-52257300D01*
X52615072Y-52215591D01*
X52573187Y-52191408D01*
X52509539Y-52174354D01*
X52445892Y-52157300D01*
X52314108Y-52157300D01*
X52186812Y-52191408D01*
X52072686Y-52257300D01*
X52072683Y-52257302D01*
X51979502Y-52350483D01*
X51979500Y-52350486D01*
X51913608Y-52464612D01*
X51890399Y-52551233D01*
X51879500Y-52591908D01*
X400000Y-52591908D01*
X400000Y-52083808D01*
X56794100Y-52083808D01*
X56794100Y-52215592D01*
X56805276Y-52257300D01*
X56828208Y-52342887D01*
X56852859Y-52385583D01*
X56894100Y-52457014D01*
X56987286Y-52550200D01*
X57101414Y-52616092D01*
X57228708Y-52650200D01*
X57228710Y-52650200D01*
X57360490Y-52650200D01*
X57360492Y-52650200D01*
X57487786Y-52616092D01*
X57601914Y-52550200D01*
X57695100Y-52457014D01*
X57760992Y-52342886D01*
X57795100Y-52215592D01*
X57795100Y-52153508D01*
X58515800Y-52153508D01*
X58515800Y-52285291D01*
X58549908Y-52412587D01*
X58575560Y-52457016D01*
X58615800Y-52526714D01*
X58708986Y-52619900D01*
X58823114Y-52685792D01*
X58950408Y-52719900D01*
X58950416Y-52719900D01*
X58958468Y-52720961D01*
X58958206Y-52722950D01*
X59014857Y-52739585D01*
X59060612Y-52792389D01*
X59067591Y-52811802D01*
X59078091Y-52850987D01*
X59098508Y-52927187D01*
X59120405Y-52965113D01*
X59164400Y-53041314D01*
X59257586Y-53134500D01*
X59335795Y-53179654D01*
X59359603Y-53193400D01*
X59371714Y-53200392D01*
X59395994Y-53206897D01*
X59455653Y-53243262D01*
X59486183Y-53306108D01*
X59487900Y-53326672D01*
X59487900Y-53439692D01*
X59497048Y-53473833D01*
X59522008Y-53566987D01*
X59540539Y-53599083D01*
X59587900Y-53681114D01*
X59681086Y-53774300D01*
X59795214Y-53840192D01*
X59922508Y-53874300D01*
X59922510Y-53874300D01*
X60054290Y-53874300D01*
X60054292Y-53874300D01*
X60180407Y-53840508D01*
X75905900Y-53840508D01*
X75905900Y-53972292D01*
X75909091Y-53984200D01*
X75940008Y-54099587D01*
X75972954Y-54156650D01*
X76005900Y-54213714D01*
X76099086Y-54306900D01*
X76213214Y-54372792D01*
X76340508Y-54406900D01*
X76340510Y-54406900D01*
X76472290Y-54406900D01*
X76472292Y-54406900D01*
X76599586Y-54372792D01*
X76713714Y-54306900D01*
X76806900Y-54213714D01*
X76872792Y-54099586D01*
X76906900Y-53972292D01*
X76906900Y-53840508D01*
X76872792Y-53713214D01*
X76806900Y-53599086D01*
X76713714Y-53505900D01*
X76643379Y-53465292D01*
X76599587Y-53440008D01*
X76516741Y-53417810D01*
X76472292Y-53405900D01*
X76340508Y-53405900D01*
X76213212Y-53440008D01*
X76099086Y-53505900D01*
X76099083Y-53505902D01*
X76005902Y-53599083D01*
X76005900Y-53599086D01*
X75940008Y-53713212D01*
X75919162Y-53791013D01*
X75905900Y-53840508D01*
X60180407Y-53840508D01*
X60181586Y-53840192D01*
X60295714Y-53774300D01*
X60388900Y-53681114D01*
X60454792Y-53566986D01*
X60488900Y-53439692D01*
X60488900Y-53307908D01*
X60454792Y-53180614D01*
X60388900Y-53066486D01*
X60295714Y-52973300D01*
X60215844Y-52927187D01*
X60181585Y-52907407D01*
X60181586Y-52907407D01*
X60157304Y-52900901D01*
X60136301Y-52888099D01*
X60113401Y-52879108D01*
X60106991Y-52870232D01*
X60097644Y-52864535D01*
X60086895Y-52842407D01*
X60072494Y-52822466D01*
X60069918Y-52807455D01*
X60067116Y-52801687D01*
X60065583Y-52787855D01*
X60065400Y-52784487D01*
X60065400Y-52668108D01*
X60054387Y-52627008D01*
X61294400Y-52627008D01*
X61294400Y-52758791D01*
X61328508Y-52886087D01*
X61340818Y-52907408D01*
X61394400Y-53000214D01*
X61487586Y-53093400D01*
X61601714Y-53159292D01*
X61729008Y-53193400D01*
X61729010Y-53193400D01*
X61860789Y-53193400D01*
X61860792Y-53193400D01*
X61985293Y-53160040D01*
X62055139Y-53161703D01*
X62113002Y-53200865D01*
X62137156Y-53247716D01*
X62138406Y-53252383D01*
X62138407Y-53252385D01*
X62153525Y-53278569D01*
X62204300Y-53366514D01*
X62297486Y-53459700D01*
X62411614Y-53525592D01*
X62538908Y-53559700D01*
X62538910Y-53559700D01*
X62670690Y-53559700D01*
X62670692Y-53559700D01*
X62797986Y-53525592D01*
X62912114Y-53459700D01*
X63005300Y-53366514D01*
X63071192Y-53252386D01*
X63105300Y-53125092D01*
X63105300Y-52993308D01*
X63071192Y-52866014D01*
X63005300Y-52751886D01*
X62912114Y-52658700D01*
X62899777Y-52651577D01*
X80759500Y-52651577D01*
X80759500Y-52848422D01*
X80790290Y-53042826D01*
X80851117Y-53230029D01*
X80940314Y-53405088D01*
X80940476Y-53405405D01*
X81056172Y-53564646D01*
X81195354Y-53703828D01*
X81354595Y-53819524D01*
X81395763Y-53840500D01*
X81529970Y-53908882D01*
X81529972Y-53908882D01*
X81529975Y-53908884D01*
X81630317Y-53941487D01*
X81717173Y-53969709D01*
X81911578Y-54000500D01*
X81911583Y-54000500D01*
X82108422Y-54000500D01*
X82302826Y-53969709D01*
X82470125Y-53915350D01*
X83424500Y-53915350D01*
X83424500Y-54084649D01*
X83450981Y-54251847D01*
X83503296Y-54412853D01*
X83580152Y-54563688D01*
X83679648Y-54700634D01*
X83679652Y-54700639D01*
X83799360Y-54820347D01*
X83799365Y-54820351D01*
X83918817Y-54907137D01*
X83936315Y-54919850D01*
X84032425Y-54968820D01*
X84087146Y-54996703D01*
X84087148Y-54996703D01*
X84087151Y-54996705D01*
X84173450Y-55024745D01*
X84248152Y-55049018D01*
X84415351Y-55075500D01*
X84415356Y-55075500D01*
X84584649Y-55075500D01*
X84751847Y-55049018D01*
X84912849Y-54996705D01*
X85063685Y-54919850D01*
X85200641Y-54820346D01*
X85320346Y-54700641D01*
X85419850Y-54563685D01*
X85496705Y-54412849D01*
X85549018Y-54251847D01*
X85555058Y-54213713D01*
X85575500Y-54084649D01*
X85575500Y-53915350D01*
X85549018Y-53748152D01*
X85514522Y-53641986D01*
X85496705Y-53587151D01*
X85496703Y-53587148D01*
X85496703Y-53587146D01*
X85465339Y-53525592D01*
X85419850Y-53436315D01*
X85374654Y-53374108D01*
X85320351Y-53299365D01*
X85320347Y-53299360D01*
X85200639Y-53179652D01*
X85200634Y-53179648D01*
X85063688Y-53080152D01*
X85063687Y-53080151D01*
X85063685Y-53080150D01*
X84990433Y-53042826D01*
X84912853Y-53003296D01*
X84751847Y-52950981D01*
X84584649Y-52924500D01*
X84584644Y-52924500D01*
X84415356Y-52924500D01*
X84415351Y-52924500D01*
X84248152Y-52950981D01*
X84087146Y-53003296D01*
X83936311Y-53080152D01*
X83799365Y-53179648D01*
X83799360Y-53179652D01*
X83679652Y-53299360D01*
X83679648Y-53299365D01*
X83580152Y-53436311D01*
X83503296Y-53587146D01*
X83450981Y-53748152D01*
X83424500Y-53915350D01*
X82470125Y-53915350D01*
X82490025Y-53908884D01*
X82665405Y-53819524D01*
X82824646Y-53703828D01*
X82963828Y-53564646D01*
X83079524Y-53405405D01*
X83168884Y-53230025D01*
X83229709Y-53042826D01*
X83236458Y-53000213D01*
X83260500Y-52848422D01*
X83260500Y-52651577D01*
X83229709Y-52457173D01*
X83168882Y-52269970D01*
X83113364Y-52161011D01*
X83079524Y-52094595D01*
X82963828Y-51935354D01*
X82824646Y-51796172D01*
X82665405Y-51680476D01*
X82490029Y-51591117D01*
X82302826Y-51530290D01*
X82108422Y-51499500D01*
X82108417Y-51499500D01*
X81911583Y-51499500D01*
X81911578Y-51499500D01*
X81717173Y-51530290D01*
X81529970Y-51591117D01*
X81354594Y-51680476D01*
X81263741Y-51746485D01*
X81195354Y-51796172D01*
X81195352Y-51796174D01*
X81195351Y-51796174D01*
X81056174Y-51935351D01*
X81056174Y-51935352D01*
X81056172Y-51935354D01*
X81031509Y-51969300D01*
X80940476Y-52094594D01*
X80851117Y-52269970D01*
X80790290Y-52457173D01*
X80759500Y-52651577D01*
X62899777Y-52651577D01*
X62844909Y-52619899D01*
X62797987Y-52592808D01*
X62734339Y-52575754D01*
X62670692Y-52558700D01*
X62538908Y-52558700D01*
X62414409Y-52592059D01*
X62344559Y-52590396D01*
X62286697Y-52551233D01*
X62262541Y-52504377D01*
X62261291Y-52499712D01*
X62236639Y-52457014D01*
X62195400Y-52385586D01*
X62102214Y-52292400D01*
X62041419Y-52257300D01*
X61988087Y-52226508D01*
X61924439Y-52209454D01*
X61860792Y-52192400D01*
X61729008Y-52192400D01*
X61601712Y-52226508D01*
X61487586Y-52292400D01*
X61487583Y-52292402D01*
X61394402Y-52385583D01*
X61394400Y-52385586D01*
X61328508Y-52499712D01*
X61294400Y-52627008D01*
X60054387Y-52627008D01*
X60031292Y-52540814D01*
X59965400Y-52426686D01*
X59872214Y-52333500D01*
X59815150Y-52300554D01*
X59758087Y-52267608D01*
X59694439Y-52250554D01*
X59630792Y-52233500D01*
X59630791Y-52233500D01*
X59622732Y-52232439D01*
X59622993Y-52230449D01*
X59566343Y-52213815D01*
X59520588Y-52161011D01*
X59513607Y-52141593D01*
X59501014Y-52094594D01*
X59482692Y-52026214D01*
X59416800Y-51912086D01*
X59323614Y-51818900D01*
X59263507Y-51784197D01*
X59209487Y-51753008D01*
X59145839Y-51735954D01*
X59082192Y-51718900D01*
X58950408Y-51718900D01*
X58823112Y-51753008D01*
X58708986Y-51818900D01*
X58708983Y-51818902D01*
X58615802Y-51912083D01*
X58615800Y-51912086D01*
X58549908Y-52026212D01*
X58515800Y-52153508D01*
X57795100Y-52153508D01*
X57795100Y-52083808D01*
X57760992Y-51956514D01*
X57695100Y-51842386D01*
X57601914Y-51749200D01*
X57501137Y-51691016D01*
X57497590Y-51688968D01*
X57497589Y-51688967D01*
X57487791Y-51683310D01*
X57487788Y-51683309D01*
X57487787Y-51683308D01*
X57487786Y-51683308D01*
X57360492Y-51649200D01*
X57228708Y-51649200D01*
X57101412Y-51683308D01*
X56987286Y-51749200D01*
X56987283Y-51749202D01*
X56894102Y-51842383D01*
X56894100Y-51842386D01*
X56828208Y-51956512D01*
X56801524Y-52056100D01*
X56794100Y-52083808D01*
X400000Y-52083808D01*
X400000Y-48130247D01*
X11949500Y-48130247D01*
X11949500Y-49869752D01*
X11961131Y-49928229D01*
X11961132Y-49928230D01*
X12005447Y-49994552D01*
X12071769Y-50038867D01*
X12071770Y-50038868D01*
X12130247Y-50050499D01*
X12130250Y-50050500D01*
X12130252Y-50050500D01*
X13869750Y-50050500D01*
X13869751Y-50050499D01*
X13884568Y-50047552D01*
X13928229Y-50038868D01*
X13928229Y-50038867D01*
X13928231Y-50038867D01*
X13994552Y-49994552D01*
X14038867Y-49928231D01*
X14038867Y-49928229D01*
X14038868Y-49928229D01*
X14050499Y-49869752D01*
X14050500Y-49869750D01*
X14050500Y-48896530D01*
X14489500Y-48896530D01*
X14489500Y-49103469D01*
X14529868Y-49306412D01*
X14529870Y-49306420D01*
X14609058Y-49497596D01*
X14724024Y-49669657D01*
X14870342Y-49815975D01*
X14870345Y-49815977D01*
X15042402Y-49930941D01*
X15233580Y-50010130D01*
X15378052Y-50038867D01*
X15436530Y-50050499D01*
X15436534Y-50050500D01*
X15436535Y-50050500D01*
X15643466Y-50050500D01*
X15643467Y-50050499D01*
X15846420Y-50010130D01*
X15879065Y-49996608D01*
X34462000Y-49996608D01*
X34462000Y-50128392D01*
X34462802Y-50131386D01*
X34496108Y-50255687D01*
X34518338Y-50294189D01*
X34562000Y-50369814D01*
X34655186Y-50463000D01*
X34754021Y-50520063D01*
X34757203Y-50521900D01*
X34769314Y-50528892D01*
X34896608Y-50563000D01*
X34896610Y-50563000D01*
X35028390Y-50563000D01*
X35028392Y-50563000D01*
X35155686Y-50528892D01*
X35269814Y-50463000D01*
X35363000Y-50369814D01*
X35428892Y-50255686D01*
X35463000Y-50128392D01*
X35463000Y-50035108D01*
X44180700Y-50035108D01*
X44180700Y-50166892D01*
X44193353Y-50214114D01*
X44214808Y-50294187D01*
X44242072Y-50341408D01*
X44280700Y-50408314D01*
X44373886Y-50501500D01*
X44488014Y-50567392D01*
X44615308Y-50601500D01*
X44615310Y-50601500D01*
X44747090Y-50601500D01*
X44747092Y-50601500D01*
X44874386Y-50567392D01*
X44988514Y-50501500D01*
X45081700Y-50408314D01*
X45120328Y-50341408D01*
X46984900Y-50341408D01*
X46984900Y-50473191D01*
X47019008Y-50600487D01*
X47037137Y-50631886D01*
X47084900Y-50714614D01*
X47178086Y-50807800D01*
X47292214Y-50873692D01*
X47419508Y-50907800D01*
X47419510Y-50907800D01*
X47551289Y-50907800D01*
X47551292Y-50907800D01*
X47593188Y-50896574D01*
X47663035Y-50898237D01*
X47720898Y-50937399D01*
X47748402Y-51001628D01*
X47736816Y-51070530D01*
X47732666Y-51078349D01*
X47667909Y-51190510D01*
X47667909Y-51190511D01*
X47633800Y-51317808D01*
X47633800Y-51449591D01*
X47667908Y-51576887D01*
X47676124Y-51591117D01*
X47733800Y-51691014D01*
X47826986Y-51784200D01*
X47925821Y-51841263D01*
X47938853Y-51848787D01*
X47941114Y-51850092D01*
X48068408Y-51884200D01*
X48068410Y-51884200D01*
X48200190Y-51884200D01*
X48200192Y-51884200D01*
X48327486Y-51850092D01*
X48441614Y-51784200D01*
X48534800Y-51691014D01*
X48593289Y-51589708D01*
X59759000Y-51589708D01*
X59759000Y-51721492D01*
X59775802Y-51784197D01*
X59793108Y-51848787D01*
X59808885Y-51876113D01*
X59859000Y-51962914D01*
X59952186Y-52056100D01*
X60066314Y-52121992D01*
X60193608Y-52156100D01*
X60193610Y-52156100D01*
X60325390Y-52156100D01*
X60325392Y-52156100D01*
X60452686Y-52121992D01*
X60566814Y-52056100D01*
X60660000Y-51962914D01*
X60725892Y-51848786D01*
X60760000Y-51721492D01*
X60760000Y-51589708D01*
X60725892Y-51462414D01*
X60660000Y-51348286D01*
X60566814Y-51255100D01*
X60498374Y-51215586D01*
X60452687Y-51189208D01*
X60374663Y-51168302D01*
X60325392Y-51155100D01*
X60193608Y-51155100D01*
X60066312Y-51189208D01*
X59952186Y-51255100D01*
X59952183Y-51255102D01*
X59859002Y-51348283D01*
X59859000Y-51348286D01*
X59793108Y-51462412D01*
X59762436Y-51576886D01*
X59759000Y-51589708D01*
X48593289Y-51589708D01*
X48600692Y-51576886D01*
X48634800Y-51449592D01*
X48634800Y-51317808D01*
X48600692Y-51190514D01*
X48534800Y-51076386D01*
X48441614Y-50983200D01*
X48365404Y-50939200D01*
X48327487Y-50917308D01*
X48250948Y-50896800D01*
X48200192Y-50883200D01*
X48068408Y-50883200D01*
X48068403Y-50883200D01*
X48026511Y-50894425D01*
X47956661Y-50892761D01*
X47898799Y-50853598D01*
X47871297Y-50789369D01*
X47882885Y-50720467D01*
X47887034Y-50712649D01*
X47900408Y-50689486D01*
X47951792Y-50600486D01*
X47985900Y-50473192D01*
X47985900Y-50372808D01*
X58505200Y-50372808D01*
X58505200Y-50504591D01*
X58539308Y-50631887D01*
X58572254Y-50688950D01*
X58605200Y-50746014D01*
X58698386Y-50839200D01*
X58812514Y-50905092D01*
X58939808Y-50939200D01*
X58939810Y-50939200D01*
X59071590Y-50939200D01*
X59071592Y-50939200D01*
X59198886Y-50905092D01*
X59313014Y-50839200D01*
X59406200Y-50746014D01*
X59472092Y-50631886D01*
X59506200Y-50504592D01*
X59506200Y-50430408D01*
X60401000Y-50430408D01*
X60401000Y-50562192D01*
X60416999Y-50621900D01*
X60435108Y-50689487D01*
X60452995Y-50720467D01*
X60501000Y-50803614D01*
X60594186Y-50896800D01*
X60667623Y-50939199D01*
X60700902Y-50958413D01*
X60708314Y-50962692D01*
X60835608Y-50996800D01*
X60835610Y-50996800D01*
X60967390Y-50996800D01*
X60967392Y-50996800D01*
X61094686Y-50962692D01*
X61105397Y-50956508D01*
X61687200Y-50956508D01*
X61687200Y-51088292D01*
X61695024Y-51117491D01*
X61721308Y-51215587D01*
X61747807Y-51261483D01*
X61787200Y-51329714D01*
X61880386Y-51422900D01*
X61994514Y-51488792D01*
X62121808Y-51522900D01*
X62121810Y-51522900D01*
X62253590Y-51522900D01*
X62253592Y-51522900D01*
X62328204Y-51502908D01*
X73007400Y-51502908D01*
X73007400Y-51634692D01*
X73020427Y-51683309D01*
X73041508Y-51761987D01*
X73074367Y-51818900D01*
X73107400Y-51876114D01*
X73200586Y-51969300D01*
X73314714Y-52035192D01*
X73442008Y-52069300D01*
X73442010Y-52069300D01*
X73573790Y-52069300D01*
X73573792Y-52069300D01*
X73701086Y-52035192D01*
X73815214Y-51969300D01*
X73908400Y-51876114D01*
X73974292Y-51761986D01*
X74008400Y-51634692D01*
X74008400Y-51502908D01*
X73974292Y-51375614D01*
X73974290Y-51375610D01*
X73952345Y-51337600D01*
X73935872Y-51269700D01*
X73958724Y-51203673D01*
X74013645Y-51160483D01*
X74059732Y-51151600D01*
X74160090Y-51151600D01*
X74160092Y-51151600D01*
X74287386Y-51117492D01*
X74401514Y-51051600D01*
X74494700Y-50958414D01*
X74560592Y-50844286D01*
X74594700Y-50716992D01*
X74594700Y-50585208D01*
X74560592Y-50457914D01*
X74494700Y-50343786D01*
X74401514Y-50250600D01*
X74338315Y-50214112D01*
X74287387Y-50184708D01*
X74220884Y-50166889D01*
X74160092Y-50150600D01*
X74028308Y-50150600D01*
X73901012Y-50184708D01*
X73786886Y-50250600D01*
X73786883Y-50250602D01*
X73693702Y-50343783D01*
X73693700Y-50343786D01*
X73627808Y-50457912D01*
X73598474Y-50567391D01*
X73593700Y-50585208D01*
X73593700Y-50716992D01*
X73626445Y-50839200D01*
X73627809Y-50844288D01*
X73627809Y-50844289D01*
X73649755Y-50882300D01*
X73666228Y-50950200D01*
X73643376Y-51016227D01*
X73588455Y-51059417D01*
X73542368Y-51068300D01*
X73442008Y-51068300D01*
X73314712Y-51102408D01*
X73200586Y-51168300D01*
X73200583Y-51168302D01*
X73107402Y-51261483D01*
X73107400Y-51261486D01*
X73041508Y-51375612D01*
X73028838Y-51422899D01*
X73007400Y-51502908D01*
X62328204Y-51502908D01*
X62380886Y-51488792D01*
X62495014Y-51422900D01*
X62588200Y-51329714D01*
X62654092Y-51215586D01*
X62688200Y-51088292D01*
X62688200Y-50956508D01*
X62654092Y-50829214D01*
X62588200Y-50715086D01*
X62495014Y-50621900D01*
X62400604Y-50567392D01*
X62380887Y-50556008D01*
X62317239Y-50538954D01*
X62253592Y-50521900D01*
X62121808Y-50521900D01*
X61994512Y-50556008D01*
X61880386Y-50621900D01*
X61880383Y-50621902D01*
X61787202Y-50715083D01*
X61787200Y-50715086D01*
X61721308Y-50829212D01*
X61692320Y-50937399D01*
X61687200Y-50956508D01*
X61105397Y-50956508D01*
X61208814Y-50896800D01*
X61302000Y-50803614D01*
X61367892Y-50689486D01*
X61402000Y-50562192D01*
X61402000Y-50430408D01*
X61367892Y-50303114D01*
X61302000Y-50188986D01*
X61208814Y-50095800D01*
X61151750Y-50062854D01*
X61094687Y-50029908D01*
X61031039Y-50012854D01*
X60967392Y-49995800D01*
X60835608Y-49995800D01*
X60708312Y-50029908D01*
X60594186Y-50095800D01*
X60594183Y-50095802D01*
X60501002Y-50188983D01*
X60501000Y-50188986D01*
X60435108Y-50303112D01*
X60416433Y-50372810D01*
X60401000Y-50430408D01*
X59506200Y-50430408D01*
X59506200Y-50372808D01*
X59472092Y-50245514D01*
X59406200Y-50131386D01*
X59313014Y-50038200D01*
X59240975Y-49996608D01*
X59198887Y-49972308D01*
X59081698Y-49940908D01*
X59071592Y-49938200D01*
X58939808Y-49938200D01*
X58812512Y-49972308D01*
X58698386Y-50038200D01*
X58698383Y-50038202D01*
X58605202Y-50131383D01*
X58605200Y-50131386D01*
X58539308Y-50245512D01*
X58505200Y-50372808D01*
X47985900Y-50372808D01*
X47985900Y-50341408D01*
X47951792Y-50214114D01*
X47885900Y-50099986D01*
X47792714Y-50006800D01*
X47732972Y-49972308D01*
X47678587Y-49940908D01*
X47614939Y-49923854D01*
X47551292Y-49906800D01*
X47419508Y-49906800D01*
X47292212Y-49940908D01*
X47178086Y-50006800D01*
X47178083Y-50006802D01*
X47084902Y-50099983D01*
X47084900Y-50099986D01*
X47019008Y-50214112D01*
X46984900Y-50341408D01*
X45120328Y-50341408D01*
X45147592Y-50294186D01*
X45181700Y-50166892D01*
X45181700Y-50035108D01*
X45147592Y-49907814D01*
X45081700Y-49793686D01*
X44988514Y-49700500D01*
X44921830Y-49662000D01*
X44874387Y-49634608D01*
X44810739Y-49617554D01*
X44747092Y-49600500D01*
X44615308Y-49600500D01*
X44488012Y-49634608D01*
X44373886Y-49700500D01*
X44373883Y-49700502D01*
X44280702Y-49793683D01*
X44280700Y-49793686D01*
X44214808Y-49907812D01*
X44182093Y-50029908D01*
X44180700Y-50035108D01*
X35463000Y-50035108D01*
X35463000Y-49996608D01*
X35428892Y-49869314D01*
X35363000Y-49755186D01*
X35269814Y-49662000D01*
X35212750Y-49629054D01*
X35155687Y-49596108D01*
X35092039Y-49579054D01*
X35028392Y-49562000D01*
X34896608Y-49562000D01*
X34769312Y-49596108D01*
X34655186Y-49662000D01*
X34655183Y-49662002D01*
X34562002Y-49755183D01*
X34562000Y-49755186D01*
X34496108Y-49869312D01*
X34462000Y-49996608D01*
X15879065Y-49996608D01*
X16037598Y-49930941D01*
X16209655Y-49815977D01*
X16355977Y-49669655D01*
X16470941Y-49497598D01*
X16550130Y-49306420D01*
X16590500Y-49103465D01*
X16590500Y-49020208D01*
X78085600Y-49020208D01*
X78085600Y-49151991D01*
X78119708Y-49279287D01*
X78135369Y-49306412D01*
X78185600Y-49393414D01*
X78278786Y-49486600D01*
X78392914Y-49552492D01*
X78520208Y-49586600D01*
X78520210Y-49586600D01*
X78651990Y-49586600D01*
X78651992Y-49586600D01*
X78779286Y-49552492D01*
X78893414Y-49486600D01*
X78986600Y-49393414D01*
X79052492Y-49279286D01*
X79086600Y-49151992D01*
X79086600Y-49020208D01*
X79052492Y-48892914D01*
X78986600Y-48778786D01*
X78893414Y-48685600D01*
X78836350Y-48652654D01*
X78779287Y-48619708D01*
X78707589Y-48600497D01*
X78651992Y-48585600D01*
X78520208Y-48585600D01*
X78392912Y-48619708D01*
X78278786Y-48685600D01*
X78278783Y-48685602D01*
X78185602Y-48778783D01*
X78185600Y-48778786D01*
X78119708Y-48892912D01*
X78085600Y-49020208D01*
X16590500Y-49020208D01*
X16590500Y-48896535D01*
X16550130Y-48693580D01*
X16470941Y-48502402D01*
X16355977Y-48330345D01*
X16355975Y-48330342D01*
X16209657Y-48184024D01*
X16134952Y-48134108D01*
X23399500Y-48134108D01*
X23399500Y-48265891D01*
X23433608Y-48393187D01*
X23466554Y-48450250D01*
X23499500Y-48507314D01*
X23592686Y-48600500D01*
X23706814Y-48666392D01*
X23834108Y-48700500D01*
X23834110Y-48700500D01*
X23965890Y-48700500D01*
X23965892Y-48700500D01*
X24093186Y-48666392D01*
X24207314Y-48600500D01*
X24300500Y-48507314D01*
X24366392Y-48393186D01*
X24400500Y-48265892D01*
X24400500Y-48134108D01*
X24366392Y-48006814D01*
X24300500Y-47892686D01*
X24207314Y-47799500D01*
X24113091Y-47745100D01*
X24093187Y-47733608D01*
X24008777Y-47710991D01*
X23965892Y-47699500D01*
X23834108Y-47699500D01*
X23706812Y-47733608D01*
X23592686Y-47799500D01*
X23592683Y-47799502D01*
X23499502Y-47892683D01*
X23499500Y-47892686D01*
X23433608Y-48006812D01*
X23399500Y-48134108D01*
X16134952Y-48134108D01*
X16084653Y-48100500D01*
X16037598Y-48069059D01*
X16009243Y-48057314D01*
X15846420Y-47989870D01*
X15846412Y-47989868D01*
X15643469Y-47949500D01*
X15643465Y-47949500D01*
X15436535Y-47949500D01*
X15436530Y-47949500D01*
X15233587Y-47989868D01*
X15233579Y-47989870D01*
X15042403Y-48069058D01*
X14870342Y-48184024D01*
X14724024Y-48330342D01*
X14609058Y-48502403D01*
X14529870Y-48693579D01*
X14529868Y-48693587D01*
X14489500Y-48896530D01*
X14050500Y-48896530D01*
X14050500Y-48130249D01*
X14050499Y-48130247D01*
X14038868Y-48071770D01*
X14038867Y-48071769D01*
X13994552Y-48005447D01*
X13928230Y-47961132D01*
X13928229Y-47961131D01*
X13869752Y-47949500D01*
X13869748Y-47949500D01*
X12130252Y-47949500D01*
X12130247Y-47949500D01*
X12071770Y-47961131D01*
X12071769Y-47961132D01*
X12005447Y-48005447D01*
X11961132Y-48071769D01*
X11961131Y-48071770D01*
X11949500Y-48130247D01*
X400000Y-48130247D01*
X400000Y-47434108D01*
X24499500Y-47434108D01*
X24499500Y-47565892D01*
X24502420Y-47576788D01*
X24533608Y-47693187D01*
X24556946Y-47733608D01*
X24599500Y-47807314D01*
X24692686Y-47900500D01*
X24806814Y-47966392D01*
X24934108Y-48000500D01*
X24934110Y-48000500D01*
X25065890Y-48000500D01*
X25065892Y-48000500D01*
X25193186Y-47966392D01*
X25307314Y-47900500D01*
X25400500Y-47807314D01*
X25466392Y-47693186D01*
X25483481Y-47629408D01*
X46039100Y-47629408D01*
X46039100Y-47761191D01*
X46073208Y-47888487D01*
X46080144Y-47900500D01*
X46139100Y-48002614D01*
X46232286Y-48095800D01*
X46346414Y-48161692D01*
X46473708Y-48195800D01*
X46473710Y-48195800D01*
X46605490Y-48195800D01*
X46605492Y-48195800D01*
X46732786Y-48161692D01*
X46846914Y-48095800D01*
X46940100Y-48002614D01*
X47005992Y-47888486D01*
X47040100Y-47761192D01*
X47040100Y-47629408D01*
X47005992Y-47502114D01*
X47002412Y-47495914D01*
X46971679Y-47442683D01*
X46940100Y-47387986D01*
X46846914Y-47294800D01*
X46782650Y-47257697D01*
X46732787Y-47228908D01*
X46636177Y-47203022D01*
X46605492Y-47194800D01*
X46473708Y-47194800D01*
X46346412Y-47228908D01*
X46232286Y-47294800D01*
X46232283Y-47294802D01*
X46139102Y-47387983D01*
X46139100Y-47387986D01*
X46073208Y-47502112D01*
X46039100Y-47629408D01*
X25483481Y-47629408D01*
X25500500Y-47565892D01*
X25500500Y-47434108D01*
X25466392Y-47306814D01*
X25400500Y-47192686D01*
X25307314Y-47099500D01*
X25250250Y-47066554D01*
X25193187Y-47033608D01*
X25129539Y-47016554D01*
X25065892Y-46999500D01*
X24934108Y-46999500D01*
X24806812Y-47033608D01*
X24692686Y-47099500D01*
X24692683Y-47099502D01*
X24599502Y-47192683D01*
X24599500Y-47192686D01*
X24533608Y-47306812D01*
X24499500Y-47434108D01*
X400000Y-47434108D01*
X400000Y-46225808D01*
X44125600Y-46225808D01*
X44125600Y-46357591D01*
X44159708Y-46484887D01*
X44192654Y-46541950D01*
X44225600Y-46599014D01*
X44318786Y-46692200D01*
X44432914Y-46758092D01*
X44560208Y-46792200D01*
X44560210Y-46792200D01*
X44691990Y-46792200D01*
X44691992Y-46792200D01*
X44819286Y-46758092D01*
X44933414Y-46692200D01*
X44941506Y-46684108D01*
X50028400Y-46684108D01*
X50028400Y-46815891D01*
X50062508Y-46943187D01*
X50095021Y-46999500D01*
X50128400Y-47057314D01*
X50221586Y-47150500D01*
X50224976Y-47152457D01*
X50227263Y-47154855D01*
X50228035Y-47155448D01*
X50227942Y-47155568D01*
X50273192Y-47203022D01*
X50286417Y-47271629D01*
X50260450Y-47336494D01*
X50250660Y-47347526D01*
X50155500Y-47442686D01*
X50089608Y-47556812D01*
X50055500Y-47684108D01*
X50055500Y-47815891D01*
X50089608Y-47943187D01*
X50109841Y-47978231D01*
X50155500Y-48057314D01*
X50248686Y-48150500D01*
X50362814Y-48216392D01*
X50490108Y-48250500D01*
X50490110Y-48250500D01*
X50621890Y-48250500D01*
X50621892Y-48250500D01*
X50749186Y-48216392D01*
X50863314Y-48150500D01*
X50956500Y-48057314D01*
X51022392Y-47943186D01*
X51056500Y-47815892D01*
X51056500Y-47684108D01*
X51022392Y-47556814D01*
X51019562Y-47551913D01*
X51013563Y-47541521D01*
X50956500Y-47442686D01*
X50863314Y-47349500D01*
X50859918Y-47347539D01*
X50857629Y-47345138D01*
X50856865Y-47344552D01*
X50856956Y-47344432D01*
X50842667Y-47329446D01*
X50822653Y-47314464D01*
X50818972Y-47304594D01*
X50811705Y-47296973D01*
X50806974Y-47272425D01*
X50798237Y-47248999D01*
X50800475Y-47238706D01*
X50798483Y-47228366D01*
X50807773Y-47205158D01*
X50813089Y-47180726D01*
X50814599Y-47178708D01*
X54098000Y-47178708D01*
X54098000Y-47310492D01*
X54103079Y-47329446D01*
X54132108Y-47437787D01*
X54165054Y-47494850D01*
X54198000Y-47551914D01*
X54291186Y-47645100D01*
X54405314Y-47710992D01*
X54532608Y-47745100D01*
X54532610Y-47745100D01*
X54664390Y-47745100D01*
X54664392Y-47745100D01*
X54791686Y-47710992D01*
X54905814Y-47645100D01*
X54999000Y-47551914D01*
X55064892Y-47437786D01*
X55099000Y-47310492D01*
X55099000Y-47178708D01*
X62107500Y-47178708D01*
X62107500Y-47310492D01*
X62112579Y-47329446D01*
X62141608Y-47437787D01*
X62174554Y-47494850D01*
X62207500Y-47551914D01*
X62300686Y-47645100D01*
X62414814Y-47710992D01*
X62542108Y-47745100D01*
X62542110Y-47745100D01*
X62673890Y-47745100D01*
X62673892Y-47745100D01*
X62801186Y-47710992D01*
X62915314Y-47645100D01*
X63008500Y-47551914D01*
X63074392Y-47437786D01*
X63108500Y-47310492D01*
X63108500Y-47197273D01*
X71599500Y-47197273D01*
X71599500Y-47302727D01*
X71626793Y-47404587D01*
X71679520Y-47495913D01*
X71754087Y-47570480D01*
X71845413Y-47623207D01*
X71947273Y-47650500D01*
X71947275Y-47650500D01*
X72052725Y-47650500D01*
X72052727Y-47650500D01*
X72154587Y-47623207D01*
X72245913Y-47570480D01*
X72320480Y-47495913D01*
X72373207Y-47404587D01*
X72400500Y-47302727D01*
X72400500Y-47197273D01*
X72373207Y-47095413D01*
X72320480Y-47004087D01*
X72245913Y-46929520D01*
X72217973Y-46913389D01*
X81859500Y-46913389D01*
X81859500Y-47086611D01*
X81861542Y-47099502D01*
X81885219Y-47248999D01*
X81886598Y-47257701D01*
X81940127Y-47422445D01*
X82018768Y-47576788D01*
X82120586Y-47716928D01*
X82243072Y-47839414D01*
X82383212Y-47941232D01*
X82537555Y-48019873D01*
X82702299Y-48073402D01*
X82873389Y-48100500D01*
X82873390Y-48100500D01*
X83046610Y-48100500D01*
X83046611Y-48100500D01*
X83217701Y-48073402D01*
X83382445Y-48019873D01*
X83536788Y-47941232D01*
X83676928Y-47839414D01*
X83799414Y-47716928D01*
X83901232Y-47576788D01*
X83979873Y-47422445D01*
X84033402Y-47257701D01*
X84060500Y-47086611D01*
X84060500Y-46913389D01*
X84033402Y-46742299D01*
X83979873Y-46577555D01*
X83901232Y-46423212D01*
X83799414Y-46283072D01*
X83676928Y-46160586D01*
X83566351Y-46080247D01*
X84399500Y-46080247D01*
X84399500Y-47919752D01*
X84411131Y-47978229D01*
X84411132Y-47978230D01*
X84455447Y-48044552D01*
X84521769Y-48088867D01*
X84521770Y-48088868D01*
X84580247Y-48100499D01*
X84580250Y-48100500D01*
X84580252Y-48100500D01*
X86419750Y-48100500D01*
X86419751Y-48100499D01*
X86434568Y-48097552D01*
X86478229Y-48088868D01*
X86478229Y-48088867D01*
X86478231Y-48088867D01*
X86544552Y-48044552D01*
X86588867Y-47978231D01*
X86588867Y-47978229D01*
X86588868Y-47978229D01*
X86600499Y-47919752D01*
X86600500Y-47919750D01*
X86600500Y-46080249D01*
X86600499Y-46080247D01*
X86588868Y-46021770D01*
X86588867Y-46021769D01*
X86544552Y-45955447D01*
X86478230Y-45911132D01*
X86478229Y-45911131D01*
X86419752Y-45899500D01*
X86419748Y-45899500D01*
X84580252Y-45899500D01*
X84580247Y-45899500D01*
X84521770Y-45911131D01*
X84521769Y-45911132D01*
X84455447Y-45955447D01*
X84411132Y-46021769D01*
X84411131Y-46021770D01*
X84399500Y-46080247D01*
X83566351Y-46080247D01*
X83536788Y-46058768D01*
X83382445Y-45980127D01*
X83217701Y-45926598D01*
X83217699Y-45926597D01*
X83217698Y-45926597D01*
X83086271Y-45905781D01*
X83046611Y-45899500D01*
X82873389Y-45899500D01*
X82833728Y-45905781D01*
X82702302Y-45926597D01*
X82537552Y-45980128D01*
X82383211Y-46058768D01*
X82303256Y-46116859D01*
X82243072Y-46160586D01*
X82243070Y-46160588D01*
X82243069Y-46160588D01*
X82120588Y-46283069D01*
X82120588Y-46283070D01*
X82120586Y-46283072D01*
X82120197Y-46283608D01*
X82018768Y-46423211D01*
X81940128Y-46577552D01*
X81940127Y-46577554D01*
X81940127Y-46577555D01*
X81933154Y-46599015D01*
X81886597Y-46742302D01*
X81878694Y-46792200D01*
X81859500Y-46913389D01*
X72217973Y-46913389D01*
X72154587Y-46876793D01*
X72052727Y-46849500D01*
X71947273Y-46849500D01*
X71845413Y-46876793D01*
X71845410Y-46876794D01*
X71754085Y-46929521D01*
X71679521Y-47004085D01*
X71626794Y-47095410D01*
X71626793Y-47095413D01*
X71599500Y-47197273D01*
X63108500Y-47197273D01*
X63108500Y-47178708D01*
X63074392Y-47051414D01*
X63008500Y-46937286D01*
X62915314Y-46844100D01*
X62825421Y-46792200D01*
X62801187Y-46778208D01*
X62726111Y-46758092D01*
X62673892Y-46744100D01*
X62542108Y-46744100D01*
X62414812Y-46778208D01*
X62300686Y-46844100D01*
X62300683Y-46844102D01*
X62207502Y-46937283D01*
X62207500Y-46937286D01*
X62141608Y-47051412D01*
X62115058Y-47150500D01*
X62107500Y-47178708D01*
X55099000Y-47178708D01*
X55064892Y-47051414D01*
X54999000Y-46937286D01*
X54905814Y-46844100D01*
X54815921Y-46792200D01*
X54791687Y-46778208D01*
X54716611Y-46758092D01*
X54664392Y-46744100D01*
X54532608Y-46744100D01*
X54405312Y-46778208D01*
X54291186Y-46844100D01*
X54291183Y-46844102D01*
X54198002Y-46937283D01*
X54198000Y-46937286D01*
X54132108Y-47051412D01*
X54105558Y-47150500D01*
X54098000Y-47178708D01*
X50814599Y-47178708D01*
X50822689Y-47167900D01*
X50824451Y-47163502D01*
X50834240Y-47152472D01*
X50836209Y-47150502D01*
X50836214Y-47150500D01*
X50929400Y-47057314D01*
X50995292Y-46943186D01*
X51029400Y-46815892D01*
X51029400Y-46684108D01*
X50995292Y-46556814D01*
X50929400Y-46442686D01*
X50836214Y-46349500D01*
X50779150Y-46316554D01*
X50722087Y-46283608D01*
X50658439Y-46266554D01*
X50594792Y-46249500D01*
X50463008Y-46249500D01*
X50335712Y-46283608D01*
X50221586Y-46349500D01*
X50221583Y-46349502D01*
X50128402Y-46442683D01*
X50128400Y-46442686D01*
X50062508Y-46556812D01*
X50028400Y-46684108D01*
X44941506Y-46684108D01*
X45026600Y-46599014D01*
X45092492Y-46484886D01*
X45126600Y-46357592D01*
X45126600Y-46225808D01*
X45092492Y-46098514D01*
X45026600Y-45984386D01*
X44933414Y-45891200D01*
X44844891Y-45840091D01*
X44819287Y-45825308D01*
X44773047Y-45812918D01*
X44691992Y-45791200D01*
X44560208Y-45791200D01*
X44432912Y-45825308D01*
X44318786Y-45891200D01*
X44318783Y-45891202D01*
X44225602Y-45984383D01*
X44225600Y-45984386D01*
X44159708Y-46098512D01*
X44125600Y-46225808D01*
X400000Y-46225808D01*
X400000Y-45307808D01*
X26872800Y-45307808D01*
X26872800Y-45439591D01*
X26906908Y-45566887D01*
X26916720Y-45583881D01*
X26972800Y-45681014D01*
X27065986Y-45774200D01*
X27180114Y-45840092D01*
X27307408Y-45874200D01*
X27307410Y-45874200D01*
X27439190Y-45874200D01*
X27439192Y-45874200D01*
X27566486Y-45840092D01*
X27680614Y-45774200D01*
X27773800Y-45681014D01*
X27789392Y-45654008D01*
X40260700Y-45654008D01*
X40260700Y-45785791D01*
X40294808Y-45913087D01*
X40302609Y-45926598D01*
X40360700Y-46027214D01*
X40453886Y-46120400D01*
X40568014Y-46186292D01*
X40695308Y-46220400D01*
X40695310Y-46220400D01*
X40827090Y-46220400D01*
X40827092Y-46220400D01*
X40954386Y-46186292D01*
X41068514Y-46120400D01*
X41161700Y-46027214D01*
X41227592Y-45913086D01*
X41261700Y-45785792D01*
X41261700Y-45684108D01*
X51102100Y-45684108D01*
X51102100Y-45815891D01*
X51136208Y-45943187D01*
X51159993Y-45984383D01*
X51202100Y-46057314D01*
X51295286Y-46150500D01*
X51409414Y-46216392D01*
X51536708Y-46250500D01*
X51536710Y-46250500D01*
X51668490Y-46250500D01*
X51668492Y-46250500D01*
X51795786Y-46216392D01*
X51909914Y-46150500D01*
X52003100Y-46057314D01*
X52068992Y-45943186D01*
X52103100Y-45815892D01*
X52103100Y-45684108D01*
X52068992Y-45556814D01*
X52003100Y-45442686D01*
X51909914Y-45349500D01*
X51837702Y-45307808D01*
X51795787Y-45283608D01*
X51732139Y-45266554D01*
X51668492Y-45249500D01*
X51536708Y-45249500D01*
X51409412Y-45283608D01*
X51295286Y-45349500D01*
X51295283Y-45349502D01*
X51202102Y-45442683D01*
X51202100Y-45442686D01*
X51136208Y-45556812D01*
X51102100Y-45684108D01*
X41261700Y-45684108D01*
X41261700Y-45654008D01*
X41227592Y-45526714D01*
X41161700Y-45412586D01*
X41068514Y-45319400D01*
X41006521Y-45283608D01*
X40954387Y-45253508D01*
X40890739Y-45236454D01*
X40827092Y-45219400D01*
X40695308Y-45219400D01*
X40568012Y-45253508D01*
X40453886Y-45319400D01*
X40453883Y-45319402D01*
X40360702Y-45412583D01*
X40360700Y-45412586D01*
X40294808Y-45526712D01*
X40260700Y-45654008D01*
X27789392Y-45654008D01*
X27839692Y-45566886D01*
X27873800Y-45439592D01*
X27873800Y-45307808D01*
X27839692Y-45180514D01*
X27773800Y-45066386D01*
X27680614Y-44973200D01*
X27623550Y-44940254D01*
X27566487Y-44907308D01*
X27502839Y-44890254D01*
X27439192Y-44873200D01*
X27307408Y-44873200D01*
X27180112Y-44907308D01*
X27065986Y-44973200D01*
X27065983Y-44973202D01*
X26972802Y-45066383D01*
X26972800Y-45066386D01*
X26906908Y-45180512D01*
X26872800Y-45307808D01*
X400000Y-45307808D01*
X400000Y-44373908D01*
X32724500Y-44373908D01*
X32724500Y-44505691D01*
X32758608Y-44632987D01*
X32791554Y-44690050D01*
X32824500Y-44747114D01*
X32917686Y-44840300D01*
X33031814Y-44906192D01*
X33159108Y-44940300D01*
X33159110Y-44940300D01*
X33290890Y-44940300D01*
X33290892Y-44940300D01*
X33418186Y-44906192D01*
X33532314Y-44840300D01*
X33625500Y-44747114D01*
X33691392Y-44632986D01*
X33725500Y-44505692D01*
X33725500Y-44373908D01*
X33714219Y-44331808D01*
X40016200Y-44331808D01*
X40016200Y-44463591D01*
X40050308Y-44590887D01*
X40074615Y-44632987D01*
X40116200Y-44705014D01*
X40209386Y-44798200D01*
X40323514Y-44864092D01*
X40450808Y-44898200D01*
X40450810Y-44898200D01*
X40582590Y-44898200D01*
X40582592Y-44898200D01*
X40709886Y-44864092D01*
X40824014Y-44798200D01*
X40917200Y-44705014D01*
X40983092Y-44590886D01*
X41017200Y-44463592D01*
X41017200Y-44331808D01*
X41001981Y-44275008D01*
X42222500Y-44275008D01*
X42222500Y-44406791D01*
X42256608Y-44534087D01*
X42269729Y-44556812D01*
X42322500Y-44648214D01*
X42415686Y-44741400D01*
X42529814Y-44807292D01*
X42657108Y-44841400D01*
X42657110Y-44841400D01*
X42788890Y-44841400D01*
X42788892Y-44841400D01*
X42916186Y-44807292D01*
X43030314Y-44741400D01*
X43123500Y-44648214D01*
X43189392Y-44534086D01*
X43223500Y-44406792D01*
X43223500Y-44275008D01*
X43189392Y-44147714D01*
X43123500Y-44033586D01*
X43030314Y-43940400D01*
X42972234Y-43906867D01*
X42972233Y-43906866D01*
X42916189Y-43874509D01*
X42916186Y-43874508D01*
X42788892Y-43840400D01*
X42657108Y-43840400D01*
X42529812Y-43874508D01*
X42415686Y-43940400D01*
X42415683Y-43940402D01*
X42322502Y-44033583D01*
X42322500Y-44033586D01*
X42256608Y-44147712D01*
X42222500Y-44275008D01*
X41001981Y-44275008D01*
X40983092Y-44204514D01*
X40917200Y-44090386D01*
X40824014Y-43997200D01*
X40766950Y-43964254D01*
X40709887Y-43931308D01*
X40646239Y-43914254D01*
X40582592Y-43897200D01*
X40450808Y-43897200D01*
X40323512Y-43931308D01*
X40209386Y-43997200D01*
X40209383Y-43997202D01*
X40116202Y-44090383D01*
X40116200Y-44090386D01*
X40050308Y-44204512D01*
X40016200Y-44331808D01*
X33714219Y-44331808D01*
X33691392Y-44246614D01*
X33625500Y-44132486D01*
X33532314Y-44039300D01*
X33475250Y-44006354D01*
X33418187Y-43973408D01*
X33354539Y-43956354D01*
X33290892Y-43939300D01*
X33159108Y-43939300D01*
X33031812Y-43973408D01*
X32917686Y-44039300D01*
X32917683Y-44039302D01*
X32824502Y-44132483D01*
X32824500Y-44132486D01*
X32758608Y-44246612D01*
X32724500Y-44373908D01*
X400000Y-44373908D01*
X400000Y-43807608D01*
X50029400Y-43807608D01*
X50029400Y-43939392D01*
X50044889Y-43997200D01*
X50063508Y-44066687D01*
X50077191Y-44090386D01*
X50129400Y-44180814D01*
X50129402Y-44180816D01*
X50173405Y-44224819D01*
X50206890Y-44286142D01*
X50201906Y-44355834D01*
X50173405Y-44400181D01*
X50130902Y-44442683D01*
X50130900Y-44442686D01*
X50065008Y-44556812D01*
X50040518Y-44648213D01*
X50030900Y-44684108D01*
X50030900Y-44815892D01*
X50047954Y-44879539D01*
X50065008Y-44943187D01*
X50082338Y-44973202D01*
X50130900Y-45057314D01*
X50224086Y-45150500D01*
X50338214Y-45216392D01*
X50465508Y-45250500D01*
X50465510Y-45250500D01*
X50597290Y-45250500D01*
X50597292Y-45250500D01*
X50724586Y-45216392D01*
X50838714Y-45150500D01*
X50931900Y-45057314D01*
X50997792Y-44943186D01*
X51031900Y-44815892D01*
X51031900Y-44684108D01*
X50997792Y-44556814D01*
X50931900Y-44442686D01*
X50931896Y-44442682D01*
X50887894Y-44398679D01*
X50854410Y-44337356D01*
X50859395Y-44267664D01*
X50887894Y-44223319D01*
X50930400Y-44180814D01*
X50996292Y-44066686D01*
X51030400Y-43939392D01*
X51030400Y-43807608D01*
X50996292Y-43680314D01*
X50930400Y-43566186D01*
X50837214Y-43473000D01*
X50780150Y-43440054D01*
X50723087Y-43407108D01*
X50659439Y-43390054D01*
X50595792Y-43373000D01*
X50464008Y-43373000D01*
X50336712Y-43407108D01*
X50222586Y-43473000D01*
X50222583Y-43473002D01*
X50129402Y-43566183D01*
X50129400Y-43566186D01*
X50063508Y-43680312D01*
X50029400Y-43807608D01*
X400000Y-43807608D01*
X400000Y-42722708D01*
X19499500Y-42722708D01*
X19499500Y-42854491D01*
X19533608Y-42981787D01*
X19566554Y-43038850D01*
X19599500Y-43095914D01*
X19692686Y-43189100D01*
X19806814Y-43254992D01*
X19934108Y-43289100D01*
X19934110Y-43289100D01*
X20065890Y-43289100D01*
X20065892Y-43289100D01*
X20193186Y-43254992D01*
X20307314Y-43189100D01*
X20400500Y-43095914D01*
X20466392Y-42981786D01*
X20500500Y-42854492D01*
X20500500Y-42786708D01*
X46146400Y-42786708D01*
X46146400Y-42918492D01*
X46154257Y-42947814D01*
X46180508Y-43045787D01*
X46209449Y-43095913D01*
X46246400Y-43159914D01*
X46339586Y-43253100D01*
X46453714Y-43318992D01*
X46581008Y-43353100D01*
X46581010Y-43353100D01*
X46712790Y-43353100D01*
X46712792Y-43353100D01*
X46840086Y-43318992D01*
X46954214Y-43253100D01*
X47047400Y-43159914D01*
X47113292Y-43045786D01*
X47147400Y-42918492D01*
X47147400Y-42786708D01*
X47113292Y-42659414D01*
X47064329Y-42574608D01*
X68965200Y-42574608D01*
X68965200Y-42706392D01*
X68982254Y-42770039D01*
X68999308Y-42833687D01*
X69011320Y-42854492D01*
X69065200Y-42947814D01*
X69158386Y-43041000D01*
X69272514Y-43106892D01*
X69399808Y-43141000D01*
X69399810Y-43141000D01*
X69531590Y-43141000D01*
X69531592Y-43141000D01*
X69658886Y-43106892D01*
X69773014Y-43041000D01*
X69866200Y-42947814D01*
X69932092Y-42833686D01*
X69966200Y-42706392D01*
X69966200Y-42574608D01*
X69932092Y-42447314D01*
X69866200Y-42333186D01*
X69773014Y-42240000D01*
X69704598Y-42200500D01*
X69658887Y-42174108D01*
X69595239Y-42157054D01*
X69531592Y-42140000D01*
X69399808Y-42140000D01*
X69272512Y-42174108D01*
X69158386Y-42240000D01*
X69158383Y-42240002D01*
X69065202Y-42333183D01*
X69065200Y-42333186D01*
X68999308Y-42447312D01*
X68973057Y-42545286D01*
X68965200Y-42574608D01*
X47064329Y-42574608D01*
X47047400Y-42545286D01*
X46954214Y-42452100D01*
X46897150Y-42419154D01*
X46840087Y-42386208D01*
X46776439Y-42369154D01*
X46712792Y-42352100D01*
X46581008Y-42352100D01*
X46453712Y-42386208D01*
X46339586Y-42452100D01*
X46339583Y-42452102D01*
X46246402Y-42545283D01*
X46246400Y-42545286D01*
X46180508Y-42659412D01*
X46163548Y-42722710D01*
X46146400Y-42786708D01*
X20500500Y-42786708D01*
X20500500Y-42722708D01*
X20466392Y-42595414D01*
X20400500Y-42481286D01*
X20307314Y-42388100D01*
X20244960Y-42352100D01*
X20193187Y-42322208D01*
X20112166Y-42300499D01*
X20065892Y-42288100D01*
X19934108Y-42288100D01*
X19806812Y-42322208D01*
X19692686Y-42388100D01*
X19692683Y-42388102D01*
X19599502Y-42481283D01*
X19599500Y-42481286D01*
X19533608Y-42595412D01*
X19499500Y-42722708D01*
X400000Y-42722708D01*
X400000Y-39935778D01*
X1219500Y-39935778D01*
X1219500Y-40224221D01*
X1219501Y-40224238D01*
X1257149Y-40510206D01*
X1257150Y-40510211D01*
X1257151Y-40510217D01*
X1323468Y-40757716D01*
X1331809Y-40788844D01*
X1331814Y-40788860D01*
X1442191Y-41055336D01*
X1442199Y-41055352D01*
X1586420Y-41305148D01*
X1586431Y-41305164D01*
X1762024Y-41534002D01*
X1762030Y-41534009D01*
X1965990Y-41737969D01*
X1965997Y-41737975D01*
X2014007Y-41774814D01*
X2194844Y-41913575D01*
X2194851Y-41913579D01*
X2444647Y-42057800D01*
X2444663Y-42057808D01*
X2711139Y-42168185D01*
X2711145Y-42168186D01*
X2711155Y-42168191D01*
X2989783Y-42242849D01*
X3275772Y-42280500D01*
X3275779Y-42280500D01*
X3564221Y-42280500D01*
X3564228Y-42280500D01*
X3850217Y-42242849D01*
X4128845Y-42168191D01*
X4128857Y-42168185D01*
X4128860Y-42168185D01*
X4395336Y-42057808D01*
X4395339Y-42057806D01*
X4395345Y-42057804D01*
X4645156Y-41913575D01*
X4874004Y-41737974D01*
X4877870Y-41734108D01*
X23199500Y-41734108D01*
X23199500Y-41865892D01*
X23212278Y-41913579D01*
X23233608Y-41993187D01*
X23263264Y-42044552D01*
X23299500Y-42107314D01*
X23392686Y-42200500D01*
X23506814Y-42266392D01*
X23634108Y-42300500D01*
X23634110Y-42300500D01*
X23765890Y-42300500D01*
X23765892Y-42300500D01*
X23893186Y-42266392D01*
X24007314Y-42200500D01*
X24100500Y-42107314D01*
X24166392Y-41993186D01*
X24200500Y-41865892D01*
X24200500Y-41734108D01*
X24166392Y-41606814D01*
X24100500Y-41492686D01*
X24009422Y-41401608D01*
X50352900Y-41401608D01*
X50352900Y-41533392D01*
X50364528Y-41576788D01*
X50387008Y-41660687D01*
X50404269Y-41690583D01*
X50452900Y-41774814D01*
X50546086Y-41868000D01*
X50660214Y-41933892D01*
X50787508Y-41968000D01*
X50787510Y-41968000D01*
X50919290Y-41968000D01*
X50919292Y-41968000D01*
X51046586Y-41933892D01*
X51049849Y-41932008D01*
X71771700Y-41932008D01*
X71771700Y-42063791D01*
X71805808Y-42191087D01*
X71811243Y-42200500D01*
X71871700Y-42305214D01*
X71964886Y-42398400D01*
X72079014Y-42464292D01*
X72206308Y-42498400D01*
X72206310Y-42498400D01*
X72338090Y-42498400D01*
X72338092Y-42498400D01*
X72465386Y-42464292D01*
X72579514Y-42398400D01*
X72672700Y-42305214D01*
X72738592Y-42191086D01*
X72772700Y-42063792D01*
X72772700Y-41932008D01*
X72738592Y-41804714D01*
X72672700Y-41690586D01*
X72579514Y-41597400D01*
X72522450Y-41564454D01*
X72465387Y-41531508D01*
X72401739Y-41514454D01*
X72338092Y-41497400D01*
X72206308Y-41497400D01*
X72079012Y-41531508D01*
X71964886Y-41597400D01*
X71964883Y-41597402D01*
X71871702Y-41690583D01*
X71871700Y-41690586D01*
X71805808Y-41804712D01*
X71771700Y-41932008D01*
X51049849Y-41932008D01*
X51160714Y-41868000D01*
X51253900Y-41774814D01*
X51319792Y-41660686D01*
X51353900Y-41533392D01*
X51353900Y-41401608D01*
X51319792Y-41274314D01*
X51253900Y-41160186D01*
X51160714Y-41067000D01*
X51160712Y-41066999D01*
X51160710Y-41066997D01*
X51072214Y-41015904D01*
X51072213Y-41015904D01*
X51046587Y-41001108D01*
X50982939Y-40984054D01*
X50919292Y-40967000D01*
X50787508Y-40967000D01*
X50660212Y-41001108D01*
X50546086Y-41067000D01*
X50546083Y-41067002D01*
X50452902Y-41160183D01*
X50452900Y-41160186D01*
X50387008Y-41274312D01*
X50371120Y-41333608D01*
X50352900Y-41401608D01*
X24009422Y-41401608D01*
X24007314Y-41399500D01*
X23950250Y-41366554D01*
X23893187Y-41333608D01*
X23829539Y-41316554D01*
X23765892Y-41299500D01*
X23634108Y-41299500D01*
X23506812Y-41333608D01*
X23392686Y-41399500D01*
X23392683Y-41399502D01*
X23299502Y-41492683D01*
X23299500Y-41492686D01*
X23233608Y-41606812D01*
X23204103Y-41716928D01*
X23199500Y-41734108D01*
X4877870Y-41734108D01*
X4921395Y-41690583D01*
X4973679Y-41638300D01*
X5077969Y-41534009D01*
X5077974Y-41534004D01*
X5253575Y-41305156D01*
X5397804Y-41055345D01*
X5434398Y-40967000D01*
X5508185Y-40788860D01*
X5508185Y-40788857D01*
X5508191Y-40788845D01*
X5582849Y-40510217D01*
X5620500Y-40224228D01*
X5620500Y-39976530D01*
X20449500Y-39976530D01*
X20449500Y-40183469D01*
X20489868Y-40386412D01*
X20489870Y-40386420D01*
X20560656Y-40557313D01*
X20569059Y-40577598D01*
X20613151Y-40643587D01*
X20684024Y-40749657D01*
X20830342Y-40895975D01*
X20830345Y-40895977D01*
X21002402Y-41010941D01*
X21193580Y-41090130D01*
X21396530Y-41130499D01*
X21396534Y-41130500D01*
X21396535Y-41130500D01*
X21603466Y-41130500D01*
X21603467Y-41130499D01*
X21806420Y-41090130D01*
X21997598Y-41010941D01*
X22169655Y-40895977D01*
X22315977Y-40749655D01*
X22430941Y-40577598D01*
X22510130Y-40386420D01*
X22510510Y-40384508D01*
X35164700Y-40384508D01*
X35164700Y-40516292D01*
X35175692Y-40557314D01*
X35198808Y-40643587D01*
X35206020Y-40656078D01*
X35264700Y-40757714D01*
X35357886Y-40850900D01*
X35472014Y-40916792D01*
X35599308Y-40950900D01*
X35599310Y-40950900D01*
X35731090Y-40950900D01*
X35731092Y-40950900D01*
X35858386Y-40916792D01*
X35972514Y-40850900D01*
X36065700Y-40757714D01*
X36083890Y-40726208D01*
X46012600Y-40726208D01*
X46012600Y-40857992D01*
X46022778Y-40895977D01*
X46046708Y-40985287D01*
X46061520Y-41010941D01*
X46112600Y-41099414D01*
X46205786Y-41192600D01*
X46319914Y-41258492D01*
X46447208Y-41292600D01*
X46447210Y-41292600D01*
X46578990Y-41292600D01*
X46578992Y-41292600D01*
X46706286Y-41258492D01*
X46820414Y-41192600D01*
X46913600Y-41099414D01*
X46979492Y-40985286D01*
X46998757Y-40913389D01*
X81859500Y-40913389D01*
X81859500Y-41086611D01*
X81860058Y-41090131D01*
X81876286Y-41192597D01*
X81886598Y-41257701D01*
X81940127Y-41422445D01*
X82018768Y-41576788D01*
X82120586Y-41716928D01*
X82243072Y-41839414D01*
X82383212Y-41941232D01*
X82537555Y-42019873D01*
X82702299Y-42073402D01*
X82873389Y-42100500D01*
X82873390Y-42100500D01*
X83046610Y-42100500D01*
X83046611Y-42100500D01*
X83217701Y-42073402D01*
X83382445Y-42019873D01*
X83536788Y-41941232D01*
X83676928Y-41839414D01*
X83799414Y-41716928D01*
X83901232Y-41576788D01*
X83979873Y-41422445D01*
X84033402Y-41257701D01*
X84060500Y-41086611D01*
X84060500Y-40913389D01*
X84033402Y-40742299D01*
X83979873Y-40577555D01*
X83901232Y-40423212D01*
X83799414Y-40283072D01*
X83676928Y-40160586D01*
X83566351Y-40080247D01*
X84399500Y-40080247D01*
X84399500Y-41919752D01*
X84411131Y-41978229D01*
X84411132Y-41978230D01*
X84455447Y-42044552D01*
X84521769Y-42088867D01*
X84521770Y-42088868D01*
X84580247Y-42100499D01*
X84580250Y-42100500D01*
X84580252Y-42100500D01*
X86419750Y-42100500D01*
X86419751Y-42100499D01*
X86434568Y-42097552D01*
X86478229Y-42088868D01*
X86478229Y-42088867D01*
X86478231Y-42088867D01*
X86544552Y-42044552D01*
X86588867Y-41978231D01*
X86588867Y-41978229D01*
X86588868Y-41978229D01*
X86600499Y-41919752D01*
X86600500Y-41919750D01*
X86600500Y-40080249D01*
X86600499Y-40080247D01*
X86588868Y-40021770D01*
X86588867Y-40021769D01*
X86544552Y-39955447D01*
X86478230Y-39911132D01*
X86478229Y-39911131D01*
X86419752Y-39899500D01*
X86419748Y-39899500D01*
X84580252Y-39899500D01*
X84580247Y-39899500D01*
X84521770Y-39911131D01*
X84521769Y-39911132D01*
X84455447Y-39955447D01*
X84411132Y-40021769D01*
X84411131Y-40021770D01*
X84399500Y-40080247D01*
X83566351Y-40080247D01*
X83536788Y-40058768D01*
X83382445Y-39980127D01*
X83217701Y-39926598D01*
X83217699Y-39926597D01*
X83217698Y-39926597D01*
X83086271Y-39905781D01*
X83046611Y-39899500D01*
X82873389Y-39899500D01*
X82833728Y-39905781D01*
X82702302Y-39926597D01*
X82537552Y-39980128D01*
X82383211Y-40058768D01*
X82303256Y-40116859D01*
X82243072Y-40160586D01*
X82243070Y-40160588D01*
X82243069Y-40160588D01*
X82120588Y-40283069D01*
X82120588Y-40283070D01*
X82120586Y-40283072D01*
X82114390Y-40291600D01*
X82018768Y-40423211D01*
X81940128Y-40577552D01*
X81886597Y-40742302D01*
X81879223Y-40788860D01*
X81859500Y-40913389D01*
X46998757Y-40913389D01*
X47013600Y-40857992D01*
X47013600Y-40726208D01*
X46979492Y-40598914D01*
X46913600Y-40484786D01*
X46820414Y-40391600D01*
X46752151Y-40352188D01*
X46706287Y-40325708D01*
X46662461Y-40313965D01*
X46578992Y-40291600D01*
X46447208Y-40291600D01*
X46319912Y-40325708D01*
X46205786Y-40391600D01*
X46205783Y-40391602D01*
X46112602Y-40484783D01*
X46112600Y-40484786D01*
X46046708Y-40598912D01*
X46031391Y-40656078D01*
X46012600Y-40726208D01*
X36083890Y-40726208D01*
X36131592Y-40643586D01*
X36165700Y-40516292D01*
X36165700Y-40384508D01*
X36131592Y-40257214D01*
X36089384Y-40184108D01*
X50824100Y-40184108D01*
X50824100Y-40315892D01*
X50833826Y-40352191D01*
X50858208Y-40443187D01*
X50882224Y-40484783D01*
X50924100Y-40557314D01*
X51017286Y-40650500D01*
X51131414Y-40716392D01*
X51258708Y-40750500D01*
X51258710Y-40750500D01*
X51390490Y-40750500D01*
X51390492Y-40750500D01*
X51517786Y-40716392D01*
X51631914Y-40650500D01*
X51725100Y-40557314D01*
X51790992Y-40443186D01*
X51825100Y-40315892D01*
X51825100Y-40184108D01*
X51790992Y-40056814D01*
X51725100Y-39942686D01*
X51631914Y-39849500D01*
X51574850Y-39816554D01*
X51517787Y-39783608D01*
X51454139Y-39766554D01*
X51390492Y-39749500D01*
X51258708Y-39749500D01*
X51131412Y-39783608D01*
X51017286Y-39849500D01*
X51017283Y-39849502D01*
X50924102Y-39942683D01*
X50924100Y-39942686D01*
X50858208Y-40056812D01*
X50835092Y-40143086D01*
X50824100Y-40184108D01*
X36089384Y-40184108D01*
X36065700Y-40143086D01*
X35972514Y-40049900D01*
X35915450Y-40016954D01*
X35858387Y-39984008D01*
X35794739Y-39966954D01*
X35731092Y-39949900D01*
X35599308Y-39949900D01*
X35472012Y-39984008D01*
X35357886Y-40049900D01*
X35357883Y-40049902D01*
X35264702Y-40143083D01*
X35264700Y-40143086D01*
X35198808Y-40257212D01*
X35183085Y-40315892D01*
X35164700Y-40384508D01*
X22510510Y-40384508D01*
X22550500Y-40183465D01*
X22550500Y-39976535D01*
X22510130Y-39773580D01*
X22430941Y-39582402D01*
X22315977Y-39410345D01*
X22315975Y-39410342D01*
X22169657Y-39264024D01*
X22050053Y-39184108D01*
X21997598Y-39149059D01*
X21806420Y-39069870D01*
X21806412Y-39069868D01*
X21603469Y-39029500D01*
X21603465Y-39029500D01*
X21396535Y-39029500D01*
X21396530Y-39029500D01*
X21193587Y-39069868D01*
X21193579Y-39069870D01*
X21002403Y-39149058D01*
X20830342Y-39264024D01*
X20684024Y-39410342D01*
X20569058Y-39582403D01*
X20489870Y-39773579D01*
X20489868Y-39773587D01*
X20449500Y-39976530D01*
X5620500Y-39976530D01*
X5620500Y-39935772D01*
X5582849Y-39649783D01*
X5508191Y-39371155D01*
X5508186Y-39371145D01*
X5508185Y-39371139D01*
X5397808Y-39104663D01*
X5397800Y-39104647D01*
X5253579Y-38854851D01*
X5253575Y-38854844D01*
X5253571Y-38854839D01*
X5253568Y-38854834D01*
X5212618Y-38801467D01*
X5160932Y-38734108D01*
X23199500Y-38734108D01*
X23199500Y-38865891D01*
X23233608Y-38993187D01*
X23245389Y-39013592D01*
X23299500Y-39107314D01*
X23392686Y-39200500D01*
X23491521Y-39257563D01*
X23502712Y-39264024D01*
X23506814Y-39266392D01*
X23634108Y-39300500D01*
X23634110Y-39300500D01*
X23765890Y-39300500D01*
X23765892Y-39300500D01*
X23893186Y-39266392D01*
X24007314Y-39200500D01*
X24023706Y-39184108D01*
X50045800Y-39184108D01*
X50045800Y-39315891D01*
X50079908Y-39443187D01*
X50085800Y-39453392D01*
X50145800Y-39557314D01*
X50238986Y-39650500D01*
X50353114Y-39716392D01*
X50480408Y-39750500D01*
X50480410Y-39750500D01*
X50612190Y-39750500D01*
X50612192Y-39750500D01*
X50739486Y-39716392D01*
X50853614Y-39650500D01*
X50946800Y-39557314D01*
X51012692Y-39443186D01*
X51045268Y-39321608D01*
X54534800Y-39321608D01*
X54534800Y-39453391D01*
X54568908Y-39580687D01*
X54569899Y-39582403D01*
X54634800Y-39694814D01*
X54727986Y-39788000D01*
X54842114Y-39853892D01*
X54969408Y-39888000D01*
X54969410Y-39888000D01*
X55101190Y-39888000D01*
X55101192Y-39888000D01*
X55228486Y-39853892D01*
X55342614Y-39788000D01*
X55435800Y-39694814D01*
X55501692Y-39580686D01*
X55535800Y-39453392D01*
X55535800Y-39321608D01*
X61338800Y-39321608D01*
X61338800Y-39453391D01*
X61372908Y-39580687D01*
X61373899Y-39582403D01*
X61438800Y-39694814D01*
X61531986Y-39788000D01*
X61646114Y-39853892D01*
X61773408Y-39888000D01*
X61773410Y-39888000D01*
X61905190Y-39888000D01*
X61905192Y-39888000D01*
X62032486Y-39853892D01*
X62146614Y-39788000D01*
X62239800Y-39694814D01*
X62305692Y-39580686D01*
X62339800Y-39453392D01*
X62339800Y-39321608D01*
X62309379Y-39208074D01*
X62309379Y-39208072D01*
X62305692Y-39194315D01*
X62305692Y-39194314D01*
X62299801Y-39184110D01*
X62299800Y-39184108D01*
X68942400Y-39184108D01*
X68942400Y-39315891D01*
X68976508Y-39443187D01*
X68982400Y-39453392D01*
X69042400Y-39557314D01*
X69135586Y-39650500D01*
X69249714Y-39716392D01*
X69377008Y-39750500D01*
X69377010Y-39750500D01*
X69508790Y-39750500D01*
X69508792Y-39750500D01*
X69636086Y-39716392D01*
X69750214Y-39650500D01*
X69843400Y-39557314D01*
X69909292Y-39443186D01*
X69943400Y-39315892D01*
X69943400Y-39184108D01*
X69909292Y-39056814D01*
X69904029Y-39047699D01*
X69893522Y-39029500D01*
X69843400Y-38942686D01*
X69750214Y-38849500D01*
X69667019Y-38801467D01*
X69636087Y-38783608D01*
X69572439Y-38766554D01*
X69508792Y-38749500D01*
X69377008Y-38749500D01*
X69249712Y-38783608D01*
X69135586Y-38849500D01*
X69135583Y-38849502D01*
X69042402Y-38942683D01*
X69042400Y-38942686D01*
X68976508Y-39056812D01*
X68942400Y-39184108D01*
X62299800Y-39184108D01*
X62239800Y-39080186D01*
X62146614Y-38987000D01*
X62078543Y-38947699D01*
X62032487Y-38921108D01*
X61968839Y-38904054D01*
X61905192Y-38887000D01*
X61773408Y-38887000D01*
X61646112Y-38921108D01*
X61531986Y-38987000D01*
X61531983Y-38987002D01*
X61438802Y-39080183D01*
X61438800Y-39080186D01*
X61372908Y-39194312D01*
X61338800Y-39321608D01*
X55535800Y-39321608D01*
X55501692Y-39194314D01*
X55435800Y-39080186D01*
X55342614Y-38987000D01*
X55274543Y-38947699D01*
X55228487Y-38921108D01*
X55164839Y-38904054D01*
X55101192Y-38887000D01*
X54969408Y-38887000D01*
X54842112Y-38921108D01*
X54727986Y-38987000D01*
X54727983Y-38987002D01*
X54634802Y-39080183D01*
X54634800Y-39080186D01*
X54568908Y-39194312D01*
X54534800Y-39321608D01*
X51045268Y-39321608D01*
X51046800Y-39315892D01*
X51046800Y-39184108D01*
X51012692Y-39056814D01*
X51007429Y-39047699D01*
X50996922Y-39029500D01*
X50946800Y-38942686D01*
X50853614Y-38849500D01*
X50770419Y-38801467D01*
X50739487Y-38783608D01*
X50675839Y-38766554D01*
X50612192Y-38749500D01*
X50480408Y-38749500D01*
X50353112Y-38783608D01*
X50238986Y-38849500D01*
X50238983Y-38849502D01*
X50145802Y-38942683D01*
X50145800Y-38942686D01*
X50079908Y-39056812D01*
X50045800Y-39184108D01*
X24023706Y-39184108D01*
X24100500Y-39107314D01*
X24166392Y-38993186D01*
X24200500Y-38865892D01*
X24200500Y-38734108D01*
X24166392Y-38606814D01*
X24133665Y-38550130D01*
X24125036Y-38535183D01*
X24125035Y-38535182D01*
X24100500Y-38492686D01*
X24089122Y-38481308D01*
X71653900Y-38481308D01*
X71653900Y-38613091D01*
X71688008Y-38740387D01*
X71712962Y-38783608D01*
X71753900Y-38854514D01*
X71847086Y-38947700D01*
X71961214Y-39013592D01*
X72088508Y-39047700D01*
X72088510Y-39047700D01*
X72220290Y-39047700D01*
X72220292Y-39047700D01*
X72347586Y-39013592D01*
X72461714Y-38947700D01*
X72554900Y-38854514D01*
X72620792Y-38740386D01*
X72654900Y-38613092D01*
X72654900Y-38481308D01*
X72620792Y-38354014D01*
X72554900Y-38239886D01*
X72461714Y-38146700D01*
X72404650Y-38113754D01*
X72347587Y-38080808D01*
X72283939Y-38063754D01*
X72220292Y-38046700D01*
X72088508Y-38046700D01*
X71961212Y-38080808D01*
X71847086Y-38146700D01*
X71847083Y-38146702D01*
X71753902Y-38239883D01*
X71753900Y-38239886D01*
X71688008Y-38354012D01*
X71653900Y-38481308D01*
X24089122Y-38481308D01*
X24007314Y-38399500D01*
X23931927Y-38355975D01*
X23893187Y-38333608D01*
X23829539Y-38316554D01*
X23765892Y-38299500D01*
X23634108Y-38299500D01*
X23506812Y-38333608D01*
X23392686Y-38399500D01*
X23392683Y-38399502D01*
X23299502Y-38492683D01*
X23299500Y-38492686D01*
X23233608Y-38606812D01*
X23199500Y-38734108D01*
X5160932Y-38734108D01*
X5077975Y-38625997D01*
X5077969Y-38625990D01*
X4874009Y-38422030D01*
X4874002Y-38422024D01*
X4645164Y-38246431D01*
X4645162Y-38246429D01*
X4645156Y-38246425D01*
X4645151Y-38246422D01*
X4645148Y-38246420D01*
X4395352Y-38102199D01*
X4395336Y-38102191D01*
X4128860Y-37991814D01*
X4128848Y-37991810D01*
X4128845Y-37991809D01*
X3850217Y-37917151D01*
X3850211Y-37917150D01*
X3850206Y-37917149D01*
X3564238Y-37879501D01*
X3564233Y-37879500D01*
X3564228Y-37879500D01*
X3275772Y-37879500D01*
X3275766Y-37879500D01*
X3275761Y-37879501D01*
X2989793Y-37917149D01*
X2989786Y-37917150D01*
X2989783Y-37917151D01*
X2711155Y-37991809D01*
X2711139Y-37991814D01*
X2444663Y-38102191D01*
X2444647Y-38102199D01*
X2194851Y-38246420D01*
X2194835Y-38246431D01*
X1965997Y-38422024D01*
X1965990Y-38422030D01*
X1762030Y-38625990D01*
X1762024Y-38625997D01*
X1586431Y-38854835D01*
X1586420Y-38854851D01*
X1442199Y-39104647D01*
X1442191Y-39104663D01*
X1331814Y-39371139D01*
X1331809Y-39371155D01*
X1275206Y-39582403D01*
X1257152Y-39649780D01*
X1257149Y-39649793D01*
X1219501Y-39935761D01*
X1219500Y-39935778D01*
X400000Y-39935778D01*
X400000Y-37436530D01*
X20449500Y-37436530D01*
X20449500Y-37643469D01*
X20489868Y-37846412D01*
X20489870Y-37846420D01*
X20569058Y-38037596D01*
X20684024Y-38209657D01*
X20830342Y-38355975D01*
X20830345Y-38355977D01*
X21002402Y-38470941D01*
X21193580Y-38550130D01*
X21396530Y-38590499D01*
X21396534Y-38590500D01*
X21396535Y-38590500D01*
X21603466Y-38590500D01*
X21603467Y-38590499D01*
X21806420Y-38550130D01*
X21997598Y-38470941D01*
X22169655Y-38355977D01*
X22315977Y-38209655D01*
X22430941Y-38037598D01*
X22510130Y-37846420D01*
X22550500Y-37643465D01*
X22550500Y-37436535D01*
X22510130Y-37233580D01*
X22491834Y-37189410D01*
X22491833Y-37189408D01*
X35166600Y-37189408D01*
X35166600Y-37321191D01*
X35200708Y-37448487D01*
X35233654Y-37505550D01*
X35266600Y-37562614D01*
X35359786Y-37655800D01*
X35473914Y-37721692D01*
X35601208Y-37755800D01*
X35601210Y-37755800D01*
X35732990Y-37755800D01*
X35732992Y-37755800D01*
X35860286Y-37721692D01*
X35974414Y-37655800D01*
X36067600Y-37562614D01*
X36133492Y-37448486D01*
X36167600Y-37321192D01*
X36167600Y-37189408D01*
X36133492Y-37062114D01*
X36067600Y-36947986D01*
X35974414Y-36854800D01*
X35885200Y-36803292D01*
X35860287Y-36788908D01*
X35796639Y-36771854D01*
X35732992Y-36754800D01*
X35601208Y-36754800D01*
X35473912Y-36788908D01*
X35359786Y-36854800D01*
X35359783Y-36854802D01*
X35266602Y-36947983D01*
X35266600Y-36947986D01*
X35200708Y-37062112D01*
X35166600Y-37189408D01*
X22491833Y-37189408D01*
X22430942Y-37042403D01*
X22315975Y-36870342D01*
X22169657Y-36724024D01*
X22083402Y-36666391D01*
X21997598Y-36609059D01*
X21976932Y-36600499D01*
X21806420Y-36529870D01*
X21806412Y-36529868D01*
X21603469Y-36489500D01*
X21603465Y-36489500D01*
X21396535Y-36489500D01*
X21396530Y-36489500D01*
X21193587Y-36529868D01*
X21193579Y-36529870D01*
X21002403Y-36609058D01*
X20830342Y-36724024D01*
X20684024Y-36870342D01*
X20569058Y-37042403D01*
X20489870Y-37233579D01*
X20489868Y-37233587D01*
X20449500Y-37436530D01*
X400000Y-37436530D01*
X400000Y-36134108D01*
X23199500Y-36134108D01*
X23199500Y-36265892D01*
X23216554Y-36329539D01*
X23233608Y-36393187D01*
X23239153Y-36402791D01*
X23299500Y-36507314D01*
X23392686Y-36600500D01*
X23506814Y-36666392D01*
X23634108Y-36700500D01*
X23634110Y-36700500D01*
X23765890Y-36700500D01*
X23765892Y-36700500D01*
X23893186Y-36666392D01*
X24007314Y-36600500D01*
X24100500Y-36507314D01*
X24166392Y-36393186D01*
X24200500Y-36265892D01*
X24200500Y-36134108D01*
X24166392Y-36006814D01*
X24100500Y-35892686D01*
X24007314Y-35799500D01*
X23935405Y-35757983D01*
X23893187Y-35733608D01*
X23829539Y-35716554D01*
X23765892Y-35699500D01*
X23634108Y-35699500D01*
X23506812Y-35733608D01*
X23392686Y-35799500D01*
X23392683Y-35799502D01*
X23299502Y-35892683D01*
X23299500Y-35892686D01*
X23233608Y-36006812D01*
X23215981Y-36072599D01*
X23199500Y-36134108D01*
X400000Y-36134108D01*
X400000Y-34560638D01*
X7499500Y-34560638D01*
X7499500Y-35439363D01*
X7514953Y-35556753D01*
X7514956Y-35556762D01*
X7575464Y-35702841D01*
X7671718Y-35828282D01*
X7797159Y-35924536D01*
X7943238Y-35985044D01*
X8060639Y-36000500D01*
X8939360Y-36000499D01*
X8939363Y-36000499D01*
X9056753Y-35985046D01*
X9056757Y-35985044D01*
X9056762Y-35985044D01*
X9202841Y-35924536D01*
X9328282Y-35828282D01*
X9424536Y-35702841D01*
X9485044Y-35556762D01*
X9500500Y-35439361D01*
X9500499Y-34560640D01*
X9500499Y-34560638D01*
X9500499Y-34560636D01*
X9485046Y-34443246D01*
X9485044Y-34443239D01*
X9485044Y-34443238D01*
X9424536Y-34297159D01*
X9424535Y-34297158D01*
X9424535Y-34297157D01*
X9349712Y-34199646D01*
X9349711Y-34199645D01*
X9328282Y-34171718D01*
X9274236Y-34130247D01*
X20449500Y-34130247D01*
X20449500Y-35869752D01*
X20461131Y-35928229D01*
X20461132Y-35928230D01*
X20505447Y-35994552D01*
X20571769Y-36038867D01*
X20571770Y-36038868D01*
X20630247Y-36050499D01*
X20630250Y-36050500D01*
X20630252Y-36050500D01*
X22369750Y-36050500D01*
X22369751Y-36050499D01*
X22384568Y-36047552D01*
X22428229Y-36038868D01*
X22428229Y-36038867D01*
X22428231Y-36038867D01*
X22442659Y-36029225D01*
X22452159Y-36022879D01*
X22494552Y-35994552D01*
X22505269Y-35978513D01*
X22538867Y-35928231D01*
X22538867Y-35928229D01*
X22538868Y-35928229D01*
X22550499Y-35869752D01*
X22550500Y-35869750D01*
X22550500Y-35052408D01*
X29174500Y-35052408D01*
X29174500Y-35184192D01*
X29176275Y-35190816D01*
X29208608Y-35311487D01*
X29221772Y-35334287D01*
X29274500Y-35425614D01*
X29367686Y-35518800D01*
X29481814Y-35584692D01*
X29609108Y-35618800D01*
X29609110Y-35618800D01*
X29740890Y-35618800D01*
X29740892Y-35618800D01*
X29787886Y-35606208D01*
X38749500Y-35606208D01*
X38749500Y-35737992D01*
X38765528Y-35797810D01*
X38783608Y-35865287D01*
X38799427Y-35892686D01*
X38849500Y-35979414D01*
X38942686Y-36072600D01*
X39056814Y-36138492D01*
X39184108Y-36172600D01*
X39184110Y-36172600D01*
X39315890Y-36172600D01*
X39315892Y-36172600D01*
X39443186Y-36138492D01*
X39557314Y-36072600D01*
X39650500Y-35979414D01*
X39716392Y-35865286D01*
X39750500Y-35737992D01*
X39750500Y-35606208D01*
X39750259Y-35605308D01*
X41193300Y-35605308D01*
X41193300Y-35737092D01*
X41209569Y-35797808D01*
X41227408Y-35864387D01*
X41259374Y-35919752D01*
X41293300Y-35978514D01*
X41386486Y-36071700D01*
X41485321Y-36128763D01*
X41494579Y-36134108D01*
X41500614Y-36137592D01*
X41627908Y-36171700D01*
X41627910Y-36171700D01*
X41759690Y-36171700D01*
X41759692Y-36171700D01*
X41886986Y-36137592D01*
X42001114Y-36071700D01*
X42094300Y-35978514D01*
X42160192Y-35864386D01*
X42178031Y-35797808D01*
X55335500Y-35797808D01*
X55335500Y-35929592D01*
X55348609Y-35978516D01*
X55369608Y-36056887D01*
X55402554Y-36113950D01*
X55435500Y-36171014D01*
X55528686Y-36264200D01*
X55642814Y-36330092D01*
X55770108Y-36364200D01*
X55770110Y-36364200D01*
X55901890Y-36364200D01*
X55901892Y-36364200D01*
X56029186Y-36330092D01*
X56131522Y-36271008D01*
X67651900Y-36271008D01*
X67651900Y-36402791D01*
X67686008Y-36530087D01*
X67718954Y-36587150D01*
X67751900Y-36644214D01*
X67845086Y-36737400D01*
X67959214Y-36803292D01*
X68086508Y-36837400D01*
X68086510Y-36837400D01*
X68218290Y-36837400D01*
X68218292Y-36837400D01*
X68345586Y-36803292D01*
X68459714Y-36737400D01*
X68552900Y-36644214D01*
X68618792Y-36530086D01*
X68652900Y-36402792D01*
X68652900Y-36271008D01*
X68618792Y-36143714D01*
X68552900Y-36029586D01*
X68522722Y-35999408D01*
X73901900Y-35999408D01*
X73901900Y-36131192D01*
X73902682Y-36134110D01*
X73936008Y-36258487D01*
X73968954Y-36315550D01*
X74001900Y-36372614D01*
X74095086Y-36465800D01*
X74209214Y-36531692D01*
X74336508Y-36565800D01*
X74336510Y-36565800D01*
X74468290Y-36565800D01*
X74468292Y-36565800D01*
X74595586Y-36531692D01*
X74709714Y-36465800D01*
X74802900Y-36372614D01*
X74868792Y-36258486D01*
X74902900Y-36131192D01*
X74902900Y-35999408D01*
X74868792Y-35872114D01*
X74864850Y-35865287D01*
X74859963Y-35856821D01*
X74802900Y-35757986D01*
X74709714Y-35664800D01*
X74630040Y-35618800D01*
X74595587Y-35598908D01*
X74513032Y-35576788D01*
X74468292Y-35564800D01*
X74336508Y-35564800D01*
X74209212Y-35598908D01*
X74095086Y-35664800D01*
X74095083Y-35664802D01*
X74001902Y-35757983D01*
X74001900Y-35757986D01*
X73936008Y-35872112D01*
X73907574Y-35978231D01*
X73901900Y-35999408D01*
X68522722Y-35999408D01*
X68459714Y-35936400D01*
X68402650Y-35903454D01*
X68345587Y-35870508D01*
X68281939Y-35853454D01*
X68218292Y-35836400D01*
X68086508Y-35836400D01*
X67959212Y-35870508D01*
X67845086Y-35936400D01*
X67845083Y-35936402D01*
X67751902Y-36029583D01*
X67751900Y-36029586D01*
X67686008Y-36143712D01*
X67651900Y-36271008D01*
X56131522Y-36271008D01*
X56143314Y-36264200D01*
X56236500Y-36171014D01*
X56302392Y-36056886D01*
X56336500Y-35929592D01*
X56336500Y-35797808D01*
X56302392Y-35670514D01*
X56302391Y-35670512D01*
X56300288Y-35662663D01*
X56302202Y-35662149D01*
X56295885Y-35603357D01*
X56327164Y-35540880D01*
X56355912Y-35517995D01*
X56388814Y-35499000D01*
X56482000Y-35405814D01*
X56547892Y-35291686D01*
X56582000Y-35164392D01*
X56582000Y-35032608D01*
X56547892Y-34905314D01*
X56482000Y-34791186D01*
X56388814Y-34698000D01*
X56289395Y-34640600D01*
X56274687Y-34632108D01*
X56211039Y-34615054D01*
X56147392Y-34598000D01*
X56015608Y-34598000D01*
X55888312Y-34632108D01*
X55774186Y-34698000D01*
X55774183Y-34698002D01*
X55681002Y-34791183D01*
X55681000Y-34791186D01*
X55615108Y-34905312D01*
X55583545Y-35023108D01*
X55581000Y-35032608D01*
X55581000Y-35164392D01*
X55613048Y-35283999D01*
X55617212Y-35299537D01*
X55615298Y-35300049D01*
X55621611Y-35358853D01*
X55590327Y-35421328D01*
X55561587Y-35444204D01*
X55528689Y-35463198D01*
X55528683Y-35463202D01*
X55435502Y-35556383D01*
X55435500Y-35556386D01*
X55369608Y-35670512D01*
X55351528Y-35737990D01*
X55335500Y-35797808D01*
X42178031Y-35797808D01*
X42194300Y-35737092D01*
X42194300Y-35737091D01*
X42195260Y-35733509D01*
X42231623Y-35673848D01*
X42294470Y-35643317D01*
X42315035Y-35641600D01*
X42315890Y-35641600D01*
X42315892Y-35641600D01*
X42443186Y-35607492D01*
X42557314Y-35541600D01*
X42650500Y-35448414D01*
X42716392Y-35334286D01*
X42750500Y-35206992D01*
X42750500Y-35075208D01*
X42736540Y-35023108D01*
X45655100Y-35023108D01*
X45655100Y-35154892D01*
X45669060Y-35206991D01*
X45689208Y-35282187D01*
X45699521Y-35300049D01*
X45755100Y-35396314D01*
X45848286Y-35489500D01*
X45962414Y-35555392D01*
X46089708Y-35589500D01*
X46089710Y-35589500D01*
X46221490Y-35589500D01*
X46221492Y-35589500D01*
X46348786Y-35555392D01*
X46462914Y-35489500D01*
X46556100Y-35396314D01*
X46621992Y-35282186D01*
X46656100Y-35154892D01*
X46656100Y-35023108D01*
X46621992Y-34895814D01*
X46556100Y-34781686D01*
X46462914Y-34688500D01*
X46379949Y-34640600D01*
X46348787Y-34622608D01*
X46285139Y-34605554D01*
X46221492Y-34588500D01*
X46089708Y-34588500D01*
X45962412Y-34622608D01*
X45848286Y-34688500D01*
X45848283Y-34688502D01*
X45755102Y-34781683D01*
X45755100Y-34781686D01*
X45689208Y-34895812D01*
X45675248Y-34947914D01*
X45655100Y-35023108D01*
X42736540Y-35023108D01*
X42716392Y-34947914D01*
X42650500Y-34833786D01*
X42557314Y-34740600D01*
X42500250Y-34707654D01*
X42443187Y-34674708D01*
X42358094Y-34651908D01*
X42315892Y-34640600D01*
X42184108Y-34640600D01*
X42056812Y-34674708D01*
X41942686Y-34740600D01*
X41942683Y-34740602D01*
X41849502Y-34833783D01*
X41849500Y-34833786D01*
X41783608Y-34947912D01*
X41767671Y-35007391D01*
X41749500Y-35075208D01*
X41749500Y-35075210D01*
X41748540Y-35078793D01*
X41712175Y-35138454D01*
X41649328Y-35168983D01*
X41628765Y-35170700D01*
X41627908Y-35170700D01*
X41500612Y-35204808D01*
X41386486Y-35270700D01*
X41386483Y-35270702D01*
X41293302Y-35363883D01*
X41293300Y-35363886D01*
X41227408Y-35478012D01*
X41200942Y-35576788D01*
X41193300Y-35605308D01*
X39750259Y-35605308D01*
X39716392Y-35478914D01*
X39715872Y-35478014D01*
X39685619Y-35425614D01*
X39650500Y-35364786D01*
X39557314Y-35271600D01*
X39500250Y-35238654D01*
X39443187Y-35205708D01*
X39362886Y-35184192D01*
X39315892Y-35171600D01*
X39184108Y-35171600D01*
X39056812Y-35205708D01*
X38942686Y-35271600D01*
X38942682Y-35271603D01*
X38900100Y-35314184D01*
X38900089Y-35314196D01*
X38849500Y-35364786D01*
X38831170Y-35396533D01*
X38831165Y-35396540D01*
X38783609Y-35478910D01*
X38783609Y-35478911D01*
X38783609Y-35478912D01*
X38783608Y-35478914D01*
X38749500Y-35606208D01*
X29787886Y-35606208D01*
X29868186Y-35584692D01*
X29982314Y-35518800D01*
X30075500Y-35425614D01*
X30141392Y-35311486D01*
X30175500Y-35184192D01*
X30175500Y-35052408D01*
X30141392Y-34925114D01*
X30079323Y-34817608D01*
X37787200Y-34817608D01*
X37787200Y-34949391D01*
X37821308Y-35076687D01*
X37827038Y-35086611D01*
X37887200Y-35190814D01*
X37980386Y-35284000D01*
X38094514Y-35349892D01*
X38221808Y-35384000D01*
X38221810Y-35384000D01*
X38353590Y-35384000D01*
X38353592Y-35384000D01*
X38480886Y-35349892D01*
X38595014Y-35284000D01*
X38688200Y-35190814D01*
X38754092Y-35076686D01*
X38788200Y-34949392D01*
X38788200Y-34817608D01*
X38754092Y-34690314D01*
X38688200Y-34576186D01*
X38595014Y-34483000D01*
X38526146Y-34443239D01*
X38480887Y-34417108D01*
X38417239Y-34400054D01*
X38353592Y-34383000D01*
X38221808Y-34383000D01*
X38094512Y-34417108D01*
X37980386Y-34483000D01*
X37980383Y-34483002D01*
X37887202Y-34576183D01*
X37887200Y-34576186D01*
X37821308Y-34690312D01*
X37787200Y-34817608D01*
X30079323Y-34817608D01*
X30075500Y-34810986D01*
X29982314Y-34717800D01*
X29907677Y-34674708D01*
X29868187Y-34651908D01*
X29794291Y-34632108D01*
X29740892Y-34617800D01*
X29609108Y-34617800D01*
X29481812Y-34651908D01*
X29367686Y-34717800D01*
X29367683Y-34717802D01*
X29274502Y-34810983D01*
X29274500Y-34810986D01*
X29208608Y-34925112D01*
X29186562Y-35007391D01*
X29174500Y-35052408D01*
X22550500Y-35052408D01*
X22550500Y-34130249D01*
X22550499Y-34130247D01*
X22538868Y-34071770D01*
X22538867Y-34071769D01*
X22494552Y-34005447D01*
X22428230Y-33961132D01*
X22428229Y-33961131D01*
X22369752Y-33949500D01*
X22369748Y-33949500D01*
X20630252Y-33949500D01*
X20630247Y-33949500D01*
X20571770Y-33961131D01*
X20571769Y-33961132D01*
X20505447Y-34005447D01*
X20461132Y-34071769D01*
X20461131Y-34071770D01*
X20449500Y-34130247D01*
X9274236Y-34130247D01*
X9202841Y-34075464D01*
X9200774Y-34074608D01*
X9056762Y-34014956D01*
X9056760Y-34014955D01*
X8939361Y-33999500D01*
X8060636Y-33999500D01*
X7943246Y-34014953D01*
X7943237Y-34014956D01*
X7797160Y-34075463D01*
X7671718Y-34171718D01*
X7575463Y-34297160D01*
X7514956Y-34443237D01*
X7514955Y-34443239D01*
X7499500Y-34560638D01*
X400000Y-34560638D01*
X400000Y-33734108D01*
X23199500Y-33734108D01*
X23199500Y-33865892D01*
X23208505Y-33899500D01*
X23233608Y-33993187D01*
X23252043Y-34025116D01*
X23299500Y-34107314D01*
X23392686Y-34200500D01*
X23506814Y-34266392D01*
X23634108Y-34300500D01*
X23634110Y-34300500D01*
X23765890Y-34300500D01*
X23765892Y-34300500D01*
X23893186Y-34266392D01*
X24007314Y-34200500D01*
X24100500Y-34107314D01*
X24139186Y-34040308D01*
X38753300Y-34040308D01*
X38753300Y-34172092D01*
X38786811Y-34297159D01*
X38787409Y-34299388D01*
X38787409Y-34299389D01*
X38825276Y-34364976D01*
X38825277Y-34364978D01*
X38853300Y-34413514D01*
X38946486Y-34506700D01*
X39060614Y-34572592D01*
X39187908Y-34606700D01*
X39187910Y-34606700D01*
X39319690Y-34606700D01*
X39319692Y-34606700D01*
X39446986Y-34572592D01*
X39561114Y-34506700D01*
X39592706Y-34475108D01*
X58880800Y-34475108D01*
X58880800Y-34606891D01*
X58914908Y-34734187D01*
X58942330Y-34781683D01*
X58980800Y-34848314D01*
X59073986Y-34941500D01*
X59188114Y-35007392D01*
X59315408Y-35041500D01*
X59315410Y-35041500D01*
X59447190Y-35041500D01*
X59447192Y-35041500D01*
X59574486Y-35007392D01*
X59688614Y-34941500D01*
X59716725Y-34913389D01*
X81859500Y-34913389D01*
X81859500Y-35086610D01*
X81884018Y-35241415D01*
X81886598Y-35257701D01*
X81934723Y-35405814D01*
X81940128Y-35422447D01*
X81960893Y-35463200D01*
X82018768Y-35576788D01*
X82120586Y-35716928D01*
X82243072Y-35839414D01*
X82383212Y-35941232D01*
X82537555Y-36019873D01*
X82702299Y-36073402D01*
X82873389Y-36100500D01*
X82873390Y-36100500D01*
X83046610Y-36100500D01*
X83046611Y-36100500D01*
X83217701Y-36073402D01*
X83382445Y-36019873D01*
X83536788Y-35941232D01*
X83676928Y-35839414D01*
X83799414Y-35716928D01*
X83901232Y-35576788D01*
X83979873Y-35422445D01*
X84033402Y-35257701D01*
X84060500Y-35086611D01*
X84060500Y-34913389D01*
X84033402Y-34742299D01*
X83979873Y-34577555D01*
X83901232Y-34423212D01*
X83799414Y-34283072D01*
X83676928Y-34160586D01*
X83566351Y-34080247D01*
X84399500Y-34080247D01*
X84399500Y-35919752D01*
X84411131Y-35978229D01*
X84411132Y-35978230D01*
X84455447Y-36044552D01*
X84521769Y-36088867D01*
X84521770Y-36088868D01*
X84580247Y-36100499D01*
X84580250Y-36100500D01*
X84580252Y-36100500D01*
X86419750Y-36100500D01*
X86419751Y-36100499D01*
X86434568Y-36097552D01*
X86478229Y-36088868D01*
X86478229Y-36088867D01*
X86478231Y-36088867D01*
X86544552Y-36044552D01*
X86588867Y-35978231D01*
X86588867Y-35978229D01*
X86588868Y-35978229D01*
X86598813Y-35928229D01*
X86600500Y-35919748D01*
X86600500Y-34080252D01*
X86600500Y-34080249D01*
X86600499Y-34080247D01*
X86588868Y-34021770D01*
X86588867Y-34021769D01*
X86544552Y-33955447D01*
X86478230Y-33911132D01*
X86478229Y-33911131D01*
X86419752Y-33899500D01*
X86419748Y-33899500D01*
X84580252Y-33899500D01*
X84580247Y-33899500D01*
X84521770Y-33911131D01*
X84521769Y-33911132D01*
X84455447Y-33955447D01*
X84411132Y-34021769D01*
X84411131Y-34021770D01*
X84399500Y-34080247D01*
X83566351Y-34080247D01*
X83536788Y-34058768D01*
X83382445Y-33980127D01*
X83217701Y-33926598D01*
X83217699Y-33926597D01*
X83217698Y-33926597D01*
X83086271Y-33905781D01*
X83046611Y-33899500D01*
X82873389Y-33899500D01*
X82833728Y-33905781D01*
X82702302Y-33926597D01*
X82537552Y-33980128D01*
X82383211Y-34058768D01*
X82303256Y-34116859D01*
X82243072Y-34160586D01*
X82243070Y-34160588D01*
X82243069Y-34160588D01*
X82120588Y-34283069D01*
X82120588Y-34283070D01*
X82120586Y-34283072D01*
X82108732Y-34299388D01*
X82018768Y-34423211D01*
X81940128Y-34577552D01*
X81886597Y-34742302D01*
X81859500Y-34913389D01*
X59716725Y-34913389D01*
X59781800Y-34848314D01*
X59781869Y-34848193D01*
X59782841Y-34846512D01*
X59843008Y-34742299D01*
X59847692Y-34734186D01*
X59881800Y-34606892D01*
X59881800Y-34475108D01*
X59847692Y-34347814D01*
X59781800Y-34233686D01*
X59688614Y-34140500D01*
X59584262Y-34080252D01*
X59574487Y-34074608D01*
X59510839Y-34057554D01*
X59447192Y-34040500D01*
X59315408Y-34040500D01*
X59188112Y-34074608D01*
X59073986Y-34140500D01*
X59073983Y-34140502D01*
X58980802Y-34233683D01*
X58980800Y-34233686D01*
X58914908Y-34347812D01*
X58880800Y-34475108D01*
X39592706Y-34475108D01*
X39654300Y-34413514D01*
X39720192Y-34299386D01*
X39754300Y-34172092D01*
X39754300Y-34040308D01*
X39720192Y-33913014D01*
X39719105Y-33911132D01*
X39692985Y-33865890D01*
X39654300Y-33798886D01*
X39561114Y-33705700D01*
X39504050Y-33672754D01*
X39467944Y-33651908D01*
X43709700Y-33651908D01*
X43709700Y-33783692D01*
X43726754Y-33847339D01*
X43743808Y-33910987D01*
X43766044Y-33949500D01*
X43809700Y-34025114D01*
X43902886Y-34118300D01*
X44017014Y-34184192D01*
X44144308Y-34218300D01*
X44144310Y-34218300D01*
X44276090Y-34218300D01*
X44276092Y-34218300D01*
X44403386Y-34184192D01*
X44517514Y-34118300D01*
X44610700Y-34025114D01*
X44676592Y-33910986D01*
X44710700Y-33783692D01*
X44710700Y-33651908D01*
X44676592Y-33524614D01*
X44658158Y-33492686D01*
X44653653Y-33484882D01*
X44653652Y-33484881D01*
X44622548Y-33431008D01*
X68948200Y-33431008D01*
X68948200Y-33562791D01*
X68982308Y-33690087D01*
X68991324Y-33705702D01*
X69048200Y-33804214D01*
X69141386Y-33897400D01*
X69231626Y-33949500D01*
X69251774Y-33961133D01*
X69255514Y-33963292D01*
X69382808Y-33997400D01*
X69382810Y-33997400D01*
X69514590Y-33997400D01*
X69514592Y-33997400D01*
X69641886Y-33963292D01*
X69756014Y-33897400D01*
X69849200Y-33804214D01*
X69915092Y-33690086D01*
X69949200Y-33562792D01*
X69949200Y-33431008D01*
X69915092Y-33303714D01*
X69849200Y-33189586D01*
X69756014Y-33096400D01*
X69698950Y-33063454D01*
X69641887Y-33030508D01*
X69578239Y-33013454D01*
X69514592Y-32996400D01*
X69382808Y-32996400D01*
X69255512Y-33030508D01*
X69141386Y-33096400D01*
X69141383Y-33096402D01*
X69048202Y-33189583D01*
X69048200Y-33189586D01*
X68982308Y-33303712D01*
X68948200Y-33431008D01*
X44622548Y-33431008D01*
X44610700Y-33410486D01*
X44517514Y-33317300D01*
X44460450Y-33284354D01*
X44403387Y-33251408D01*
X44339739Y-33234354D01*
X44276092Y-33217300D01*
X44144308Y-33217300D01*
X44017012Y-33251408D01*
X43902886Y-33317300D01*
X43902883Y-33317302D01*
X43809702Y-33410483D01*
X43809700Y-33410486D01*
X43743808Y-33524612D01*
X43733578Y-33562792D01*
X43709700Y-33651908D01*
X39467944Y-33651908D01*
X39446987Y-33639808D01*
X39383339Y-33622754D01*
X39319692Y-33605700D01*
X39187908Y-33605700D01*
X39060612Y-33639808D01*
X38946486Y-33705700D01*
X38946483Y-33705702D01*
X38853302Y-33798883D01*
X38853300Y-33798886D01*
X38787408Y-33913012D01*
X38760094Y-34014953D01*
X38753300Y-34040308D01*
X24139186Y-34040308D01*
X24166392Y-33993186D01*
X24200500Y-33865892D01*
X24200500Y-33734108D01*
X24166392Y-33606814D01*
X24100500Y-33492686D01*
X24007314Y-33399500D01*
X23950250Y-33366554D01*
X23893187Y-33333608D01*
X23829539Y-33316554D01*
X23765892Y-33299500D01*
X23634108Y-33299500D01*
X23506812Y-33333608D01*
X23392686Y-33399500D01*
X23392683Y-33399502D01*
X23299502Y-33492683D01*
X23299500Y-33492686D01*
X23233608Y-33606812D01*
X23211295Y-33690087D01*
X23199500Y-33734108D01*
X400000Y-33734108D01*
X400000Y-29775778D01*
X11379500Y-29775778D01*
X11379500Y-30064221D01*
X11379501Y-30064238D01*
X11417149Y-30350206D01*
X11417150Y-30350211D01*
X11417151Y-30350217D01*
X11491809Y-30628844D01*
X11491814Y-30628860D01*
X11602191Y-30895336D01*
X11602199Y-30895352D01*
X11746420Y-31145148D01*
X11746431Y-31145164D01*
X11922024Y-31374002D01*
X11922030Y-31374009D01*
X12125990Y-31577969D01*
X12125996Y-31577974D01*
X12354844Y-31753575D01*
X12354851Y-31753579D01*
X12604647Y-31897800D01*
X12604663Y-31897808D01*
X12871139Y-32008185D01*
X12871145Y-32008186D01*
X12871155Y-32008191D01*
X13149783Y-32082849D01*
X13435772Y-32120500D01*
X13435779Y-32120500D01*
X13724221Y-32120500D01*
X13724228Y-32120500D01*
X14010217Y-32082849D01*
X14087250Y-32062208D01*
X36201300Y-32062208D01*
X36201300Y-32193991D01*
X36235408Y-32321287D01*
X36268354Y-32378350D01*
X36301300Y-32435414D01*
X36394486Y-32528600D01*
X36508614Y-32594492D01*
X36635908Y-32628600D01*
X36635910Y-32628600D01*
X36767690Y-32628600D01*
X36767692Y-32628600D01*
X36894986Y-32594492D01*
X37009114Y-32528600D01*
X37102300Y-32435414D01*
X37168192Y-32321286D01*
X37202300Y-32193992D01*
X37202300Y-32062208D01*
X58749500Y-32062208D01*
X58749500Y-32193991D01*
X58783608Y-32321287D01*
X58816554Y-32378350D01*
X58849500Y-32435414D01*
X58942686Y-32528600D01*
X59056814Y-32594492D01*
X59184108Y-32628600D01*
X59184110Y-32628600D01*
X59315890Y-32628600D01*
X59315892Y-32628600D01*
X59443186Y-32594492D01*
X59557314Y-32528600D01*
X59650500Y-32435414D01*
X59716392Y-32321286D01*
X59750500Y-32193992D01*
X59750500Y-32062208D01*
X59716392Y-31934914D01*
X59714977Y-31932464D01*
X59662934Y-31842323D01*
X59650500Y-31820786D01*
X59557314Y-31727600D01*
X59480224Y-31683092D01*
X59443187Y-31661708D01*
X59379539Y-31644654D01*
X59315892Y-31627600D01*
X59184108Y-31627600D01*
X59056812Y-31661708D01*
X58942686Y-31727600D01*
X58942683Y-31727602D01*
X58849502Y-31820783D01*
X58849500Y-31820786D01*
X58783608Y-31934912D01*
X58749500Y-32062208D01*
X37202300Y-32062208D01*
X37168192Y-31934914D01*
X37166777Y-31932464D01*
X37114734Y-31842323D01*
X37102300Y-31820786D01*
X37009114Y-31727600D01*
X36932024Y-31683092D01*
X36894987Y-31661708D01*
X36831339Y-31644654D01*
X36767692Y-31627600D01*
X36635908Y-31627600D01*
X36508612Y-31661708D01*
X36394486Y-31727600D01*
X36394483Y-31727602D01*
X36301302Y-31820783D01*
X36301300Y-31820786D01*
X36235408Y-31934912D01*
X36201300Y-32062208D01*
X14087250Y-32062208D01*
X14288845Y-32008191D01*
X14288857Y-32008185D01*
X14288860Y-32008185D01*
X14555336Y-31897808D01*
X14555339Y-31897806D01*
X14555345Y-31897804D01*
X14805156Y-31753575D01*
X15034004Y-31577974D01*
X15237974Y-31374004D01*
X15413575Y-31145156D01*
X15551431Y-30906383D01*
X15551433Y-30906379D01*
X20549500Y-30906379D01*
X20549500Y-31093620D01*
X20586025Y-31277243D01*
X20586027Y-31277251D01*
X20657676Y-31450228D01*
X20657681Y-31450237D01*
X20761697Y-31605907D01*
X20761700Y-31605911D01*
X20894088Y-31738299D01*
X20894092Y-31738302D01*
X21049762Y-31842318D01*
X21049768Y-31842321D01*
X21049769Y-31842322D01*
X21222749Y-31913973D01*
X21406379Y-31950499D01*
X21406383Y-31950500D01*
X21406384Y-31950500D01*
X21593617Y-31950500D01*
X21593618Y-31950499D01*
X21622233Y-31944807D01*
X21684292Y-31932464D01*
X21724115Y-31924542D01*
X21777251Y-31913973D01*
X21950231Y-31842322D01*
X22105908Y-31738302D01*
X22238302Y-31605908D01*
X22342322Y-31450231D01*
X22413973Y-31277251D01*
X22439124Y-31150808D01*
X71992400Y-31150808D01*
X71992400Y-31282591D01*
X72026508Y-31409887D01*
X72049801Y-31450231D01*
X72092400Y-31524014D01*
X72185586Y-31617200D01*
X72299714Y-31683092D01*
X72427008Y-31717200D01*
X72427010Y-31717200D01*
X72558790Y-31717200D01*
X72558792Y-31717200D01*
X72686086Y-31683092D01*
X72800214Y-31617200D01*
X72893400Y-31524014D01*
X72959292Y-31409886D01*
X72993400Y-31282592D01*
X72993400Y-31150808D01*
X72959292Y-31023514D01*
X72893400Y-30909386D01*
X72800214Y-30816200D01*
X72743150Y-30783254D01*
X72686087Y-30750308D01*
X72622439Y-30733254D01*
X72558792Y-30716200D01*
X72427008Y-30716200D01*
X72299712Y-30750308D01*
X72185586Y-30816200D01*
X72185583Y-30816202D01*
X72092402Y-30909383D01*
X72092400Y-30909386D01*
X72026508Y-31023512D01*
X71992400Y-31150808D01*
X22439124Y-31150808D01*
X22450500Y-31093616D01*
X22450500Y-30906384D01*
X22413973Y-30722749D01*
X22342322Y-30549769D01*
X22342321Y-30549768D01*
X22342318Y-30549762D01*
X22238302Y-30394092D01*
X22238299Y-30394088D01*
X22105911Y-30261700D01*
X22105907Y-30261697D01*
X21950237Y-30157681D01*
X21950228Y-30157676D01*
X21777251Y-30086027D01*
X21777243Y-30086025D01*
X21593620Y-30049500D01*
X21593616Y-30049500D01*
X21406384Y-30049500D01*
X21406379Y-30049500D01*
X21222756Y-30086025D01*
X21222748Y-30086027D01*
X21049771Y-30157676D01*
X21049762Y-30157681D01*
X20894092Y-30261697D01*
X20894088Y-30261700D01*
X20761700Y-30394088D01*
X20761697Y-30394092D01*
X20657681Y-30549762D01*
X20657676Y-30549771D01*
X20586027Y-30722748D01*
X20586025Y-30722756D01*
X20549500Y-30906379D01*
X15551433Y-30906379D01*
X15557800Y-30895352D01*
X15557800Y-30895351D01*
X15557804Y-30895345D01*
X15573557Y-30857314D01*
X15575411Y-30852839D01*
X15575411Y-30852837D01*
X15590587Y-30816200D01*
X15668191Y-30628845D01*
X15742849Y-30350217D01*
X15780500Y-30064228D01*
X15780500Y-29934108D01*
X23199500Y-29934108D01*
X23199500Y-30065892D01*
X23208773Y-30100499D01*
X23233608Y-30193187D01*
X23262185Y-30242683D01*
X23299500Y-30307314D01*
X23392686Y-30400500D01*
X23506814Y-30466392D01*
X23634108Y-30500500D01*
X23634110Y-30500500D01*
X23765890Y-30500500D01*
X23765892Y-30500500D01*
X23827068Y-30484108D01*
X39797700Y-30484108D01*
X39797700Y-30615892D01*
X39801171Y-30628845D01*
X39831808Y-30743187D01*
X39864754Y-30800250D01*
X39897700Y-30857314D01*
X39990886Y-30950500D01*
X40105014Y-31016392D01*
X40232308Y-31050500D01*
X40232310Y-31050500D01*
X40364090Y-31050500D01*
X40364092Y-31050500D01*
X40491386Y-31016392D01*
X40605514Y-30950500D01*
X40698700Y-30857314D01*
X40764592Y-30743186D01*
X40798700Y-30615892D01*
X40798700Y-30484108D01*
X40764592Y-30356814D01*
X40698700Y-30242686D01*
X40605514Y-30149500D01*
X40500497Y-30088868D01*
X40491387Y-30083608D01*
X40419032Y-30064221D01*
X40364092Y-30049500D01*
X40232308Y-30049500D01*
X40105012Y-30083608D01*
X39990886Y-30149500D01*
X39990883Y-30149502D01*
X39897702Y-30242683D01*
X39897700Y-30242686D01*
X39831808Y-30356812D01*
X39820102Y-30400500D01*
X39797700Y-30484108D01*
X23827068Y-30484108D01*
X23893186Y-30466392D01*
X24007314Y-30400500D01*
X24100500Y-30307314D01*
X24166392Y-30193186D01*
X24200500Y-30065892D01*
X24200500Y-29934108D01*
X24166392Y-29806814D01*
X24100500Y-29692686D01*
X24007314Y-29599500D01*
X23950250Y-29566554D01*
X23893187Y-29533608D01*
X23829539Y-29516554D01*
X23765892Y-29499500D01*
X23634108Y-29499500D01*
X23506812Y-29533608D01*
X23392686Y-29599500D01*
X23392683Y-29599502D01*
X23299502Y-29692683D01*
X23299500Y-29692686D01*
X23233608Y-29806812D01*
X23224873Y-29839414D01*
X23199500Y-29934108D01*
X15780500Y-29934108D01*
X15780500Y-29775772D01*
X15742849Y-29489783D01*
X15668191Y-29211155D01*
X15668186Y-29211145D01*
X15668185Y-29211139D01*
X15557808Y-28944663D01*
X15557800Y-28944647D01*
X15413579Y-28694851D01*
X15413575Y-28694844D01*
X15323574Y-28577552D01*
X15237975Y-28465997D01*
X15237969Y-28465990D01*
X15034009Y-28262030D01*
X15034002Y-28262024D01*
X14930039Y-28182251D01*
X14805156Y-28086425D01*
X14805150Y-28086421D01*
X14805148Y-28086420D01*
X14714542Y-28034108D01*
X24673100Y-28034108D01*
X24673100Y-28165891D01*
X24707208Y-28293187D01*
X24711942Y-28301386D01*
X24773100Y-28407314D01*
X24866286Y-28500500D01*
X24980414Y-28566392D01*
X25107708Y-28600500D01*
X25107710Y-28600500D01*
X25239490Y-28600500D01*
X25239492Y-28600500D01*
X25366786Y-28566392D01*
X25407635Y-28542808D01*
X33446400Y-28542808D01*
X33446400Y-28674592D01*
X33463454Y-28738239D01*
X33480508Y-28801887D01*
X33506274Y-28846514D01*
X33546400Y-28916014D01*
X33639586Y-29009200D01*
X33753714Y-29075092D01*
X33881008Y-29109200D01*
X33881010Y-29109200D01*
X34012790Y-29109200D01*
X34012792Y-29109200D01*
X34140086Y-29075092D01*
X34254214Y-29009200D01*
X34347400Y-28916014D01*
X34348916Y-28913389D01*
X81859500Y-28913389D01*
X81859500Y-29086611D01*
X81886598Y-29257701D01*
X81940127Y-29422445D01*
X82018768Y-29576788D01*
X82120586Y-29716928D01*
X82243072Y-29839414D01*
X82383212Y-29941232D01*
X82537555Y-30019873D01*
X82702299Y-30073402D01*
X82873389Y-30100500D01*
X82873390Y-30100500D01*
X83046610Y-30100500D01*
X83046611Y-30100500D01*
X83217701Y-30073402D01*
X83382445Y-30019873D01*
X83536788Y-29941232D01*
X83676928Y-29839414D01*
X83799414Y-29716928D01*
X83901232Y-29576788D01*
X83979873Y-29422445D01*
X84033402Y-29257701D01*
X84060500Y-29086611D01*
X84060500Y-28913389D01*
X84033402Y-28742299D01*
X83979873Y-28577555D01*
X83901232Y-28423212D01*
X83799414Y-28283072D01*
X83676928Y-28160586D01*
X83566351Y-28080247D01*
X84399500Y-28080247D01*
X84399500Y-29919752D01*
X84411131Y-29978229D01*
X84411132Y-29978230D01*
X84455447Y-30044552D01*
X84521769Y-30088867D01*
X84521770Y-30088868D01*
X84580247Y-30100499D01*
X84580250Y-30100500D01*
X84580252Y-30100500D01*
X86419750Y-30100500D01*
X86419751Y-30100499D01*
X86434568Y-30097552D01*
X86478229Y-30088868D01*
X86478229Y-30088867D01*
X86478231Y-30088867D01*
X86544552Y-30044552D01*
X86588867Y-29978231D01*
X86588867Y-29978229D01*
X86588868Y-29978229D01*
X86600499Y-29919752D01*
X86600500Y-29919750D01*
X86600500Y-28080249D01*
X86600499Y-28080247D01*
X86588868Y-28021770D01*
X86588867Y-28021769D01*
X86544552Y-27955447D01*
X86478230Y-27911132D01*
X86478229Y-27911131D01*
X86419752Y-27899500D01*
X86419748Y-27899500D01*
X84580252Y-27899500D01*
X84580247Y-27899500D01*
X84521770Y-27911131D01*
X84521769Y-27911132D01*
X84455447Y-27955447D01*
X84411132Y-28021769D01*
X84411131Y-28021770D01*
X84399500Y-28080247D01*
X83566351Y-28080247D01*
X83536788Y-28058768D01*
X83382445Y-27980127D01*
X83217701Y-27926598D01*
X83217699Y-27926597D01*
X83217698Y-27926597D01*
X83086271Y-27905781D01*
X83046611Y-27899500D01*
X82873389Y-27899500D01*
X82833728Y-27905781D01*
X82702302Y-27926597D01*
X82537552Y-27980128D01*
X82383211Y-28058768D01*
X82345144Y-28086426D01*
X82243072Y-28160586D01*
X82243070Y-28160588D01*
X82243069Y-28160588D01*
X82120588Y-28283069D01*
X82120588Y-28283070D01*
X82120586Y-28283072D01*
X82107280Y-28301386D01*
X82018768Y-28423211D01*
X81940128Y-28577552D01*
X81886597Y-28742302D01*
X81859500Y-28913389D01*
X34348916Y-28913389D01*
X34413292Y-28801886D01*
X34447400Y-28674592D01*
X34447400Y-28542808D01*
X34413292Y-28415514D01*
X34347400Y-28301386D01*
X34254214Y-28208200D01*
X34171748Y-28160588D01*
X34140087Y-28142308D01*
X34073091Y-28124357D01*
X34012792Y-28108200D01*
X33881008Y-28108200D01*
X33753712Y-28142308D01*
X33639586Y-28208200D01*
X33639583Y-28208202D01*
X33546402Y-28301383D01*
X33546400Y-28301386D01*
X33480508Y-28415512D01*
X33457736Y-28500500D01*
X33446400Y-28542808D01*
X25407635Y-28542808D01*
X25480914Y-28500500D01*
X25574100Y-28407314D01*
X25639992Y-28293186D01*
X25674100Y-28165892D01*
X25674100Y-28034108D01*
X25639992Y-27906814D01*
X25574100Y-27792686D01*
X25480914Y-27699500D01*
X25423850Y-27666554D01*
X25366787Y-27633608D01*
X25303139Y-27616554D01*
X25239492Y-27599500D01*
X25107708Y-27599500D01*
X24980412Y-27633608D01*
X24866286Y-27699500D01*
X24866283Y-27699502D01*
X24773102Y-27792683D01*
X24773100Y-27792686D01*
X24707208Y-27906812D01*
X24673100Y-28034108D01*
X14714542Y-28034108D01*
X14555352Y-27942199D01*
X14555336Y-27942191D01*
X14288860Y-27831814D01*
X14288848Y-27831810D01*
X14288845Y-27831809D01*
X14010217Y-27757151D01*
X14010211Y-27757150D01*
X14010206Y-27757149D01*
X13724238Y-27719501D01*
X13724233Y-27719500D01*
X13724228Y-27719500D01*
X13435772Y-27719500D01*
X13435766Y-27719500D01*
X13435761Y-27719501D01*
X13149793Y-27757149D01*
X13149786Y-27757150D01*
X13149783Y-27757151D01*
X12871155Y-27831809D01*
X12871139Y-27831814D01*
X12604663Y-27942191D01*
X12604647Y-27942199D01*
X12354851Y-28086420D01*
X12354835Y-28086431D01*
X12125997Y-28262024D01*
X12125990Y-28262030D01*
X11922030Y-28465990D01*
X11922024Y-28465997D01*
X11746431Y-28694835D01*
X11746420Y-28694851D01*
X11602199Y-28944647D01*
X11602191Y-28944663D01*
X11491814Y-29211139D01*
X11491809Y-29211155D01*
X11417152Y-29489780D01*
X11417149Y-29489793D01*
X11379501Y-29775761D01*
X11379500Y-29775778D01*
X400000Y-29775778D01*
X400000Y-26986508D01*
X34382500Y-26986508D01*
X34382500Y-27118292D01*
X34386926Y-27134810D01*
X34416608Y-27245587D01*
X34449554Y-27302650D01*
X34482500Y-27359714D01*
X34575686Y-27452900D01*
X34689814Y-27518792D01*
X34817108Y-27552900D01*
X34817110Y-27552900D01*
X34948890Y-27552900D01*
X34948892Y-27552900D01*
X35076186Y-27518792D01*
X35190314Y-27452900D01*
X35283500Y-27359714D01*
X35349392Y-27245586D01*
X35383500Y-27118292D01*
X35383500Y-27114408D01*
X73499500Y-27114408D01*
X73499500Y-27246191D01*
X73533608Y-27373487D01*
X73566554Y-27430550D01*
X73599500Y-27487614D01*
X73692686Y-27580800D01*
X73806814Y-27646692D01*
X73934108Y-27680800D01*
X73934110Y-27680800D01*
X74065890Y-27680800D01*
X74065892Y-27680800D01*
X74193186Y-27646692D01*
X74307314Y-27580800D01*
X74400500Y-27487614D01*
X74466392Y-27373486D01*
X74500500Y-27246192D01*
X74500500Y-27134808D01*
X78614500Y-27134808D01*
X78614500Y-27266591D01*
X78648608Y-27393887D01*
X78681554Y-27450950D01*
X78714500Y-27508014D01*
X78807686Y-27601200D01*
X78921814Y-27667092D01*
X79049108Y-27701200D01*
X79049110Y-27701200D01*
X79180890Y-27701200D01*
X79180892Y-27701200D01*
X79308186Y-27667092D01*
X79422314Y-27601200D01*
X79515500Y-27508014D01*
X79581392Y-27393886D01*
X79615500Y-27266592D01*
X79615500Y-27134808D01*
X79581392Y-27007514D01*
X79515500Y-26893386D01*
X79422314Y-26800200D01*
X79365250Y-26767254D01*
X79308187Y-26734308D01*
X79232051Y-26713908D01*
X79180892Y-26700200D01*
X79049108Y-26700200D01*
X78921812Y-26734308D01*
X78807686Y-26800200D01*
X78807683Y-26800202D01*
X78714502Y-26893383D01*
X78714500Y-26893386D01*
X78648608Y-27007512D01*
X78614500Y-27134808D01*
X74500500Y-27134808D01*
X74500500Y-27114408D01*
X74466392Y-26987114D01*
X74400500Y-26872986D01*
X74307314Y-26779800D01*
X74235438Y-26738302D01*
X74193187Y-26713908D01*
X74129539Y-26696854D01*
X74065892Y-26679800D01*
X73934108Y-26679800D01*
X73806812Y-26713908D01*
X73692686Y-26779800D01*
X73692683Y-26779802D01*
X73599502Y-26872983D01*
X73599500Y-26872986D01*
X73533608Y-26987112D01*
X73499500Y-27114408D01*
X35383500Y-27114408D01*
X35383500Y-26986508D01*
X35349392Y-26859214D01*
X35283500Y-26745086D01*
X35190314Y-26651900D01*
X35110652Y-26605907D01*
X35076187Y-26586008D01*
X35012539Y-26568954D01*
X34948892Y-26551900D01*
X34817108Y-26551900D01*
X34689812Y-26586008D01*
X34575686Y-26651900D01*
X34575683Y-26651902D01*
X34482502Y-26745083D01*
X34482500Y-26745086D01*
X34416608Y-26859212D01*
X34401935Y-26913974D01*
X34382500Y-26986508D01*
X400000Y-26986508D01*
X400000Y-25906379D01*
X20549500Y-25906379D01*
X20549500Y-26093620D01*
X20586025Y-26277243D01*
X20586027Y-26277251D01*
X20657676Y-26450228D01*
X20657681Y-26450237D01*
X20761697Y-26605907D01*
X20761700Y-26605911D01*
X20894088Y-26738299D01*
X20894092Y-26738302D01*
X21049762Y-26842318D01*
X21049768Y-26842321D01*
X21049769Y-26842322D01*
X21222749Y-26913973D01*
X21406379Y-26950499D01*
X21406383Y-26950500D01*
X21406384Y-26950500D01*
X21593617Y-26950500D01*
X21593618Y-26950499D01*
X21777251Y-26913973D01*
X21876929Y-26872684D01*
X21898331Y-26863820D01*
X21911115Y-26858524D01*
X21950231Y-26842322D01*
X22105908Y-26738302D01*
X22238302Y-26605908D01*
X22342322Y-26450231D01*
X22413973Y-26277251D01*
X22450500Y-26093616D01*
X22450500Y-25906384D01*
X22413973Y-25722749D01*
X22342322Y-25549769D01*
X22342321Y-25549768D01*
X22342318Y-25549762D01*
X22238302Y-25394092D01*
X22238299Y-25394088D01*
X22105911Y-25261700D01*
X22105907Y-25261697D01*
X21950237Y-25157681D01*
X21950228Y-25157676D01*
X21777251Y-25086027D01*
X21777243Y-25086025D01*
X21593620Y-25049500D01*
X21593616Y-25049500D01*
X21406384Y-25049500D01*
X21406379Y-25049500D01*
X21222756Y-25086025D01*
X21222748Y-25086027D01*
X21049771Y-25157676D01*
X21049762Y-25157681D01*
X20894092Y-25261697D01*
X20894088Y-25261700D01*
X20761700Y-25394088D01*
X20761697Y-25394092D01*
X20657681Y-25549762D01*
X20657676Y-25549771D01*
X20586027Y-25722748D01*
X20586025Y-25722756D01*
X20549500Y-25906379D01*
X400000Y-25906379D01*
X400000Y-24903408D01*
X33667500Y-24903408D01*
X33667500Y-25035191D01*
X33701608Y-25162487D01*
X33717945Y-25190783D01*
X33767500Y-25276614D01*
X33860686Y-25369800D01*
X33959521Y-25426863D01*
X33968779Y-25432208D01*
X33974814Y-25435692D01*
X34102108Y-25469800D01*
X34102110Y-25469800D01*
X34233890Y-25469800D01*
X34233892Y-25469800D01*
X34361186Y-25435692D01*
X34367220Y-25432208D01*
X62665700Y-25432208D01*
X62665700Y-25563991D01*
X62699808Y-25691287D01*
X62717973Y-25722749D01*
X62765700Y-25805414D01*
X62858886Y-25898600D01*
X62973014Y-25964492D01*
X63100308Y-25998600D01*
X63100310Y-25998600D01*
X63232090Y-25998600D01*
X63232092Y-25998600D01*
X63359386Y-25964492D01*
X63473514Y-25898600D01*
X63566700Y-25805414D01*
X63632592Y-25691286D01*
X63666700Y-25563992D01*
X63666700Y-25432208D01*
X63632592Y-25304914D01*
X63566700Y-25190786D01*
X63473514Y-25097600D01*
X63390203Y-25049500D01*
X63359387Y-25031708D01*
X63295739Y-25014654D01*
X63232092Y-24997600D01*
X63100308Y-24997600D01*
X62973012Y-25031708D01*
X62858886Y-25097600D01*
X62858883Y-25097602D01*
X62765702Y-25190783D01*
X62765700Y-25190786D01*
X62699808Y-25304912D01*
X62665700Y-25432208D01*
X34367220Y-25432208D01*
X34475314Y-25369800D01*
X34568500Y-25276614D01*
X34634392Y-25162486D01*
X34668500Y-25035192D01*
X34668500Y-24903408D01*
X34634392Y-24776114D01*
X34568500Y-24661986D01*
X34475314Y-24568800D01*
X34418250Y-24535854D01*
X34361187Y-24502908D01*
X34297539Y-24485854D01*
X34233892Y-24468800D01*
X34102108Y-24468800D01*
X33974812Y-24502908D01*
X33860686Y-24568800D01*
X33860683Y-24568802D01*
X33767502Y-24661983D01*
X33767500Y-24661986D01*
X33701608Y-24776112D01*
X33667500Y-24903408D01*
X400000Y-24903408D01*
X400000Y-23679708D01*
X41909500Y-23679708D01*
X41909500Y-23811491D01*
X41943608Y-23938787D01*
X41976554Y-23995850D01*
X42009500Y-24052914D01*
X42102686Y-24146100D01*
X42216814Y-24211992D01*
X42344108Y-24246100D01*
X42344110Y-24246100D01*
X42475890Y-24246100D01*
X42475892Y-24246100D01*
X42603186Y-24211992D01*
X42717314Y-24146100D01*
X42810500Y-24052914D01*
X42876392Y-23938786D01*
X42910500Y-23811492D01*
X42910500Y-23679708D01*
X42876392Y-23552414D01*
X42810500Y-23438286D01*
X42717314Y-23345100D01*
X42660250Y-23312154D01*
X42603187Y-23279208D01*
X42588632Y-23275308D01*
X86657000Y-23275308D01*
X86657000Y-23407091D01*
X86691108Y-23534387D01*
X86701515Y-23552412D01*
X86757000Y-23648514D01*
X86850186Y-23741700D01*
X86964314Y-23807592D01*
X87091608Y-23841700D01*
X87091610Y-23841700D01*
X87223390Y-23841700D01*
X87223392Y-23841700D01*
X87350686Y-23807592D01*
X87464814Y-23741700D01*
X87558000Y-23648514D01*
X87623892Y-23534386D01*
X87658000Y-23407092D01*
X87658000Y-23275308D01*
X87623892Y-23148014D01*
X87558000Y-23033886D01*
X87464814Y-22940700D01*
X87407750Y-22907754D01*
X87350687Y-22874808D01*
X87287039Y-22857754D01*
X87223392Y-22840700D01*
X87091608Y-22840700D01*
X86964312Y-22874808D01*
X86850186Y-22940700D01*
X86850183Y-22940702D01*
X86757002Y-23033883D01*
X86757000Y-23033886D01*
X86691108Y-23148012D01*
X86657000Y-23275308D01*
X42588632Y-23275308D01*
X42539539Y-23262154D01*
X42475892Y-23245100D01*
X42344108Y-23245100D01*
X42216812Y-23279208D01*
X42102686Y-23345100D01*
X42102683Y-23345102D01*
X42009502Y-23438283D01*
X42009500Y-23438286D01*
X41943608Y-23552412D01*
X41909500Y-23679708D01*
X400000Y-23679708D01*
X400000Y-19106108D01*
X52796600Y-19106108D01*
X52796600Y-19237891D01*
X52830708Y-19365187D01*
X52863654Y-19422250D01*
X52896600Y-19479314D01*
X52989786Y-19572500D01*
X53103914Y-19638392D01*
X53231208Y-19672500D01*
X53231210Y-19672500D01*
X53362990Y-19672500D01*
X53362992Y-19672500D01*
X53490286Y-19638392D01*
X53604414Y-19572500D01*
X53697600Y-19479314D01*
X53763492Y-19365186D01*
X53797600Y-19237892D01*
X53797600Y-19106108D01*
X53763492Y-18978814D01*
X53697600Y-18864686D01*
X53604414Y-18771500D01*
X53547350Y-18738554D01*
X53490287Y-18705608D01*
X53426639Y-18688554D01*
X53362992Y-18671500D01*
X53231208Y-18671500D01*
X53103912Y-18705608D01*
X52989786Y-18771500D01*
X52989783Y-18771502D01*
X52896602Y-18864683D01*
X52896600Y-18864686D01*
X52830708Y-18978812D01*
X52796600Y-19106108D01*
X400000Y-19106108D01*
X400000Y-17891108D01*
X51662500Y-17891108D01*
X51662500Y-18022891D01*
X51696608Y-18150187D01*
X51729554Y-18207250D01*
X51762500Y-18264314D01*
X51855686Y-18357500D01*
X51969814Y-18423392D01*
X52097108Y-18457500D01*
X52097110Y-18457500D01*
X52228890Y-18457500D01*
X52228892Y-18457500D01*
X52356186Y-18423392D01*
X52470314Y-18357500D01*
X52563500Y-18264314D01*
X52629392Y-18150186D01*
X52663500Y-18022892D01*
X52663500Y-17891108D01*
X52629392Y-17763814D01*
X52563500Y-17649686D01*
X52470314Y-17556500D01*
X52413250Y-17523554D01*
X52356187Y-17490608D01*
X52292539Y-17473554D01*
X52228892Y-17456500D01*
X52097108Y-17456500D01*
X51969812Y-17490608D01*
X51855686Y-17556500D01*
X51855683Y-17556502D01*
X51762502Y-17649683D01*
X51762500Y-17649686D01*
X51696608Y-17763812D01*
X51662500Y-17891108D01*
X400000Y-17891108D01*
X400000Y-14332486D01*
X83794500Y-14332486D01*
X83794500Y-14517513D01*
X83823445Y-14700265D01*
X83880619Y-14876232D01*
X83880620Y-14876235D01*
X83964622Y-15041096D01*
X84073379Y-15190787D01*
X84204213Y-15321621D01*
X84353904Y-15430378D01*
X84434763Y-15471577D01*
X84518764Y-15514379D01*
X84518767Y-15514380D01*
X84606750Y-15542967D01*
X84694736Y-15571555D01*
X84877486Y-15600500D01*
X84877487Y-15600500D01*
X85062513Y-15600500D01*
X85062514Y-15600500D01*
X85245264Y-15571555D01*
X85421235Y-15514379D01*
X85586096Y-15430378D01*
X85735787Y-15321621D01*
X85866621Y-15190787D01*
X85975378Y-15041096D01*
X86059379Y-14876235D01*
X86116555Y-14700264D01*
X86129472Y-14618713D01*
X86649500Y-14618713D01*
X86649500Y-14831286D01*
X86682730Y-15041096D01*
X86682754Y-15041243D01*
X86731344Y-15190788D01*
X86748444Y-15243414D01*
X86844951Y-15432820D01*
X86969890Y-15604786D01*
X87120213Y-15755109D01*
X87292179Y-15880048D01*
X87292181Y-15880049D01*
X87292184Y-15880051D01*
X87481588Y-15976557D01*
X87683757Y-16042246D01*
X87893713Y-16075500D01*
X87893714Y-16075500D01*
X88106286Y-16075500D01*
X88106287Y-16075500D01*
X88316243Y-16042246D01*
X88518412Y-15976557D01*
X88707816Y-15880051D01*
X88729789Y-15864086D01*
X88879786Y-15755109D01*
X88879788Y-15755106D01*
X88879792Y-15755104D01*
X89030104Y-15604792D01*
X89030106Y-15604788D01*
X89030109Y-15604786D01*
X89155048Y-15432820D01*
X89155047Y-15432820D01*
X89155051Y-15432816D01*
X89251557Y-15243412D01*
X89317246Y-15041243D01*
X89350500Y-14831287D01*
X89350500Y-14618713D01*
X89317246Y-14408757D01*
X89251557Y-14206588D01*
X89155051Y-14017184D01*
X89155049Y-14017181D01*
X89155048Y-14017179D01*
X89030109Y-13845213D01*
X88879786Y-13694890D01*
X88707820Y-13569951D01*
X88518414Y-13473444D01*
X88518413Y-13473443D01*
X88518412Y-13473443D01*
X88316243Y-13407754D01*
X88316241Y-13407753D01*
X88316240Y-13407753D01*
X88154957Y-13382208D01*
X88106287Y-13374500D01*
X87893713Y-13374500D01*
X87845042Y-13382208D01*
X87683760Y-13407753D01*
X87481585Y-13473444D01*
X87292179Y-13569951D01*
X87120213Y-13694890D01*
X86969890Y-13845213D01*
X86844951Y-14017179D01*
X86748444Y-14206585D01*
X86682753Y-14408760D01*
X86649500Y-14618713D01*
X86129472Y-14618713D01*
X86145500Y-14517514D01*
X86145500Y-14332486D01*
X86116555Y-14149736D01*
X86059379Y-13973765D01*
X86059379Y-13973764D01*
X85975377Y-13808903D01*
X85866621Y-13659213D01*
X85735787Y-13528379D01*
X85586096Y-13419622D01*
X85562802Y-13407753D01*
X85421235Y-13335620D01*
X85421232Y-13335619D01*
X85245265Y-13278445D01*
X85153889Y-13263972D01*
X85062514Y-13249500D01*
X84877486Y-13249500D01*
X84816569Y-13259148D01*
X84694734Y-13278445D01*
X84518767Y-13335619D01*
X84518764Y-13335620D01*
X84353903Y-13419622D01*
X84279826Y-13473443D01*
X84204213Y-13528379D01*
X84204211Y-13528381D01*
X84204210Y-13528381D01*
X84073381Y-13659210D01*
X84073381Y-13659211D01*
X84073379Y-13659213D01*
X84047458Y-13694890D01*
X83964622Y-13808903D01*
X83880620Y-13973764D01*
X83880619Y-13973767D01*
X83823445Y-14149734D01*
X83794500Y-14332486D01*
X400000Y-14332486D01*
X400000Y-11934108D01*
X18299500Y-11934108D01*
X18299500Y-12065891D01*
X18333608Y-12193187D01*
X18366554Y-12250250D01*
X18399500Y-12307314D01*
X18492686Y-12400500D01*
X18606814Y-12466392D01*
X18734108Y-12500500D01*
X18734110Y-12500500D01*
X18865890Y-12500500D01*
X18865892Y-12500500D01*
X18993186Y-12466392D01*
X19107314Y-12400500D01*
X19200500Y-12307314D01*
X19266392Y-12193186D01*
X19300500Y-12065892D01*
X19300500Y-11934108D01*
X19266392Y-11806814D01*
X19200500Y-11692686D01*
X19107314Y-11599500D01*
X19050250Y-11566554D01*
X18993187Y-11533608D01*
X18929539Y-11516554D01*
X18865892Y-11499500D01*
X18734108Y-11499500D01*
X18606812Y-11533608D01*
X18492686Y-11599500D01*
X18492683Y-11599502D01*
X18399502Y-11692683D01*
X18399500Y-11692686D01*
X18333608Y-11806812D01*
X18299500Y-11934108D01*
X400000Y-11934108D01*
X400000Y-10934108D01*
X16899500Y-10934108D01*
X16899500Y-11065891D01*
X16933608Y-11193187D01*
X16966554Y-11250250D01*
X16999500Y-11307314D01*
X17092686Y-11400500D01*
X17206814Y-11466392D01*
X17334108Y-11500500D01*
X17334110Y-11500500D01*
X17465890Y-11500500D01*
X17465892Y-11500500D01*
X17593186Y-11466392D01*
X17707314Y-11400500D01*
X17800500Y-11307314D01*
X17866392Y-11193186D01*
X17900500Y-11065892D01*
X17900500Y-10934108D01*
X17866392Y-10806814D01*
X17800500Y-10692686D01*
X17707314Y-10599500D01*
X17650250Y-10566554D01*
X17593187Y-10533608D01*
X17529539Y-10516554D01*
X17465892Y-10499500D01*
X17334108Y-10499500D01*
X17206812Y-10533608D01*
X17092686Y-10599500D01*
X17092683Y-10599502D01*
X16999502Y-10692683D01*
X16999500Y-10692686D01*
X16933608Y-10806812D01*
X16899500Y-10934108D01*
X400000Y-10934108D01*
X400000Y-9934108D01*
X15499500Y-9934108D01*
X15499500Y-10065891D01*
X15533608Y-10193187D01*
X15566554Y-10250250D01*
X15599500Y-10307314D01*
X15692686Y-10400500D01*
X15806814Y-10466392D01*
X15934108Y-10500500D01*
X15934110Y-10500500D01*
X16065890Y-10500500D01*
X16065892Y-10500500D01*
X16193186Y-10466392D01*
X16307314Y-10400500D01*
X16400500Y-10307314D01*
X16466392Y-10193186D01*
X16500500Y-10065892D01*
X16500500Y-9934108D01*
X16466392Y-9806814D01*
X16458655Y-9793414D01*
X16457563Y-9791521D01*
X16400500Y-9692686D01*
X16307314Y-9599500D01*
X16250250Y-9566554D01*
X16193187Y-9533608D01*
X16129539Y-9516554D01*
X16065892Y-9499500D01*
X15934108Y-9499500D01*
X15806812Y-9533608D01*
X15692686Y-9599500D01*
X15692683Y-9599502D01*
X15599502Y-9692683D01*
X15599500Y-9692686D01*
X15533608Y-9806812D01*
X15499500Y-9934108D01*
X400000Y-9934108D01*
X400000Y-8934108D01*
X17599500Y-8934108D01*
X17599500Y-9065891D01*
X17633608Y-9193187D01*
X17666554Y-9250250D01*
X17699500Y-9307314D01*
X17792686Y-9400500D01*
X17906814Y-9466392D01*
X18034108Y-9500500D01*
X18034110Y-9500500D01*
X18165890Y-9500500D01*
X18165892Y-9500500D01*
X18233122Y-9482486D01*
X83794500Y-9482486D01*
X83794500Y-9667514D01*
X83798487Y-9692686D01*
X83823445Y-9850265D01*
X83880619Y-10026232D01*
X83880620Y-10026235D01*
X83900827Y-10065892D01*
X83964622Y-10191096D01*
X84073379Y-10340787D01*
X84204213Y-10471621D01*
X84353904Y-10580378D01*
X84391433Y-10599500D01*
X84518764Y-10664379D01*
X84518767Y-10664380D01*
X84605876Y-10692683D01*
X84694736Y-10721555D01*
X84877486Y-10750500D01*
X84877487Y-10750500D01*
X85062513Y-10750500D01*
X85062514Y-10750500D01*
X85245264Y-10721555D01*
X85421235Y-10664379D01*
X85586096Y-10580378D01*
X85735787Y-10471621D01*
X85866621Y-10340787D01*
X85975378Y-10191096D01*
X86059379Y-10026235D01*
X86116555Y-9850264D01*
X86145500Y-9667514D01*
X86145500Y-9482486D01*
X86116555Y-9299736D01*
X86081935Y-9193187D01*
X86073983Y-9168713D01*
X86649500Y-9168713D01*
X86649500Y-9381287D01*
X86652543Y-9400497D01*
X86682753Y-9591239D01*
X86748444Y-9793414D01*
X86844951Y-9982820D01*
X86969890Y-10154786D01*
X87120213Y-10305109D01*
X87292179Y-10430048D01*
X87292181Y-10430049D01*
X87292184Y-10430051D01*
X87481588Y-10526557D01*
X87683757Y-10592246D01*
X87893713Y-10625500D01*
X87893714Y-10625500D01*
X88106286Y-10625500D01*
X88106287Y-10625500D01*
X88316243Y-10592246D01*
X88518412Y-10526557D01*
X88707816Y-10430051D01*
X88748494Y-10400497D01*
X88879786Y-10305109D01*
X88879788Y-10305106D01*
X88879792Y-10305104D01*
X89030104Y-10154792D01*
X89030106Y-10154788D01*
X89030109Y-10154786D01*
X89155048Y-9982820D01*
X89155047Y-9982820D01*
X89155051Y-9982816D01*
X89251557Y-9793412D01*
X89317246Y-9591243D01*
X89350500Y-9381287D01*
X89350500Y-9168713D01*
X89317246Y-8958757D01*
X89251557Y-8756588D01*
X89155051Y-8567184D01*
X89155049Y-8567181D01*
X89155048Y-8567179D01*
X89030109Y-8395213D01*
X88879786Y-8244890D01*
X88707820Y-8119951D01*
X88518414Y-8023444D01*
X88518413Y-8023443D01*
X88518412Y-8023443D01*
X88316243Y-7957754D01*
X88316241Y-7957753D01*
X88316240Y-7957753D01*
X88154957Y-7932208D01*
X88106287Y-7924500D01*
X87893713Y-7924500D01*
X87845042Y-7932208D01*
X87683760Y-7957753D01*
X87481585Y-8023444D01*
X87292179Y-8119951D01*
X87120213Y-8244890D01*
X86969890Y-8395213D01*
X86844951Y-8567179D01*
X86748444Y-8756585D01*
X86682753Y-8958760D01*
X86665785Y-9065892D01*
X86649500Y-9168713D01*
X86073983Y-9168713D01*
X86059380Y-9123767D01*
X86059379Y-9123764D01*
X85975377Y-8958903D01*
X85957364Y-8934110D01*
X85866621Y-8809213D01*
X85735787Y-8678379D01*
X85586096Y-8569622D01*
X85515415Y-8533608D01*
X85421235Y-8485620D01*
X85421232Y-8485619D01*
X85245265Y-8428445D01*
X85153889Y-8413972D01*
X85062514Y-8399500D01*
X84877486Y-8399500D01*
X84816569Y-8409148D01*
X84694734Y-8428445D01*
X84518767Y-8485619D01*
X84518764Y-8485620D01*
X84353903Y-8569622D01*
X84268499Y-8631672D01*
X84204213Y-8678379D01*
X84204211Y-8678381D01*
X84204210Y-8678381D01*
X84073381Y-8809210D01*
X84073381Y-8809211D01*
X84073379Y-8809213D01*
X84026672Y-8873499D01*
X83964622Y-8958903D01*
X83880620Y-9123764D01*
X83880619Y-9123767D01*
X83823445Y-9299734D01*
X83807485Y-9400500D01*
X83794500Y-9482486D01*
X18233122Y-9482486D01*
X18293186Y-9466392D01*
X18407314Y-9400500D01*
X18500500Y-9307314D01*
X18566392Y-9193186D01*
X18600500Y-9065892D01*
X18600500Y-8934108D01*
X18566392Y-8806814D01*
X18500500Y-8692686D01*
X18407314Y-8599500D01*
X18350250Y-8566554D01*
X18293187Y-8533608D01*
X18229539Y-8516554D01*
X18165892Y-8499500D01*
X18034108Y-8499500D01*
X17906812Y-8533608D01*
X17792686Y-8599500D01*
X17792683Y-8599502D01*
X17699502Y-8692683D01*
X17699500Y-8692686D01*
X17633608Y-8806812D01*
X17599500Y-8934108D01*
X400000Y-8934108D01*
X400000Y-7934108D01*
X16199500Y-7934108D01*
X16199500Y-8065891D01*
X16233608Y-8193187D01*
X16263459Y-8244890D01*
X16299500Y-8307314D01*
X16392686Y-8400500D01*
X16506814Y-8466392D01*
X16634108Y-8500500D01*
X16634110Y-8500500D01*
X16765890Y-8500500D01*
X16765892Y-8500500D01*
X16893186Y-8466392D01*
X17007314Y-8400500D01*
X17100500Y-8307314D01*
X17166392Y-8193186D01*
X17200500Y-8065892D01*
X17200500Y-7934108D01*
X17166392Y-7806814D01*
X17100500Y-7692686D01*
X17007314Y-7599500D01*
X16950250Y-7566554D01*
X16893187Y-7533608D01*
X16829539Y-7516554D01*
X16765892Y-7499500D01*
X16634108Y-7499500D01*
X16506812Y-7533608D01*
X16392686Y-7599500D01*
X16392683Y-7599502D01*
X16299502Y-7692683D01*
X16299500Y-7692686D01*
X16233608Y-7806812D01*
X16199500Y-7934108D01*
X400000Y-7934108D01*
X400000Y-6211304D01*
X19099500Y-6211304D01*
X19099500Y-6388695D01*
X19134103Y-6562658D01*
X19134106Y-6562667D01*
X19201983Y-6726540D01*
X19201990Y-6726553D01*
X19300535Y-6874034D01*
X19300538Y-6874038D01*
X19425961Y-6999461D01*
X19425965Y-6999464D01*
X19573446Y-7098009D01*
X19573459Y-7098016D01*
X19690773Y-7146608D01*
X19737334Y-7165894D01*
X19737336Y-7165894D01*
X19737341Y-7165896D01*
X19911304Y-7200499D01*
X19911307Y-7200500D01*
X19911309Y-7200500D01*
X20088693Y-7200500D01*
X20088694Y-7200499D01*
X20146682Y-7188964D01*
X20262658Y-7165896D01*
X20262661Y-7165894D01*
X20262666Y-7165894D01*
X20426547Y-7098013D01*
X20574035Y-6999464D01*
X20699464Y-6874035D01*
X20798013Y-6726547D01*
X20804039Y-6712000D01*
X20860939Y-6574628D01*
X20865894Y-6562666D01*
X20874337Y-6520224D01*
X20878383Y-6499882D01*
X20910768Y-6437971D01*
X20971483Y-6403397D01*
X21041253Y-6407136D01*
X21097925Y-6448003D01*
X21121617Y-6499882D01*
X21134103Y-6562658D01*
X21134106Y-6562667D01*
X21201983Y-6726540D01*
X21201990Y-6726553D01*
X21300535Y-6874034D01*
X21300538Y-6874038D01*
X21425961Y-6999461D01*
X21425965Y-6999464D01*
X21573446Y-7098009D01*
X21573459Y-7098016D01*
X21690773Y-7146608D01*
X21737334Y-7165894D01*
X21737336Y-7165894D01*
X21737341Y-7165896D01*
X21911304Y-7200499D01*
X21911307Y-7200500D01*
X21911309Y-7200500D01*
X22088693Y-7200500D01*
X22088694Y-7200499D01*
X22146682Y-7188964D01*
X22262658Y-7165896D01*
X22262661Y-7165894D01*
X22262666Y-7165894D01*
X22426547Y-7098013D01*
X22574035Y-6999464D01*
X22699464Y-6874035D01*
X22798013Y-6726547D01*
X22804039Y-6712000D01*
X22860939Y-6574628D01*
X22865894Y-6562666D01*
X22874337Y-6520224D01*
X22900499Y-6388695D01*
X22900500Y-6388693D01*
X22900500Y-6211306D01*
X22900499Y-6211304D01*
X25099500Y-6211304D01*
X25099500Y-6388695D01*
X25134103Y-6562658D01*
X25134106Y-6562667D01*
X25201983Y-6726540D01*
X25201990Y-6726553D01*
X25300535Y-6874034D01*
X25300538Y-6874038D01*
X25425961Y-6999461D01*
X25425965Y-6999464D01*
X25573446Y-7098009D01*
X25573459Y-7098016D01*
X25690773Y-7146608D01*
X25737334Y-7165894D01*
X25737336Y-7165894D01*
X25737341Y-7165896D01*
X25911304Y-7200499D01*
X25911307Y-7200500D01*
X25911309Y-7200500D01*
X26088693Y-7200500D01*
X26088694Y-7200499D01*
X26146682Y-7188964D01*
X26262658Y-7165896D01*
X26262661Y-7165894D01*
X26262666Y-7165894D01*
X26426547Y-7098013D01*
X26574035Y-6999464D01*
X26699464Y-6874035D01*
X26798013Y-6726547D01*
X26798014Y-6726544D01*
X26798016Y-6726541D01*
X26860939Y-6574628D01*
X26904779Y-6520224D01*
X26971073Y-6498159D01*
X27038773Y-6515438D01*
X27086383Y-6566575D01*
X27099500Y-6622080D01*
X27099500Y-6804269D01*
X27102353Y-6834699D01*
X27102353Y-6834701D01*
X27147206Y-6962880D01*
X27147207Y-6962882D01*
X27227850Y-7072150D01*
X27337118Y-7152793D01*
X27374556Y-7165893D01*
X27465299Y-7197646D01*
X27495730Y-7200500D01*
X27495734Y-7200500D01*
X28504270Y-7200500D01*
X28534699Y-7197646D01*
X28534701Y-7197646D01*
X28598790Y-7175219D01*
X28662882Y-7152793D01*
X28671262Y-7146608D01*
X47409600Y-7146608D01*
X47409600Y-7278391D01*
X47443708Y-7405687D01*
X47476654Y-7462750D01*
X47509600Y-7519814D01*
X47602786Y-7613000D01*
X47716914Y-7678892D01*
X47844208Y-7713000D01*
X47844210Y-7713000D01*
X47975990Y-7713000D01*
X47975992Y-7713000D01*
X48103286Y-7678892D01*
X48217414Y-7613000D01*
X48310600Y-7519814D01*
X48376492Y-7405686D01*
X48410600Y-7278392D01*
X48410600Y-7146608D01*
X48376492Y-7019314D01*
X48310600Y-6905186D01*
X48217414Y-6812000D01*
X48160350Y-6779054D01*
X48103287Y-6746108D01*
X48030260Y-6726541D01*
X47975992Y-6712000D01*
X47844208Y-6712000D01*
X47716912Y-6746108D01*
X47602786Y-6812000D01*
X47602783Y-6812002D01*
X47509602Y-6905183D01*
X47509600Y-6905186D01*
X47443708Y-7019312D01*
X47409600Y-7146608D01*
X28671262Y-7146608D01*
X28772150Y-7072150D01*
X28852793Y-6962882D01*
X28883882Y-6874034D01*
X28897646Y-6834701D01*
X28897646Y-6834699D01*
X28900500Y-6804269D01*
X28900500Y-5795730D01*
X28897646Y-5765300D01*
X28897646Y-5765298D01*
X28864006Y-5669163D01*
X28852793Y-5637118D01*
X28772150Y-5527850D01*
X28662882Y-5447207D01*
X28662880Y-5447206D01*
X28534700Y-5402353D01*
X28504270Y-5399500D01*
X28504266Y-5399500D01*
X27495734Y-5399500D01*
X27495730Y-5399500D01*
X27465300Y-5402353D01*
X27465298Y-5402353D01*
X27337119Y-5447206D01*
X27337117Y-5447207D01*
X27227850Y-5527850D01*
X27147207Y-5637117D01*
X27147206Y-5637119D01*
X27102353Y-5765298D01*
X27102353Y-5765300D01*
X27099500Y-5795730D01*
X27099500Y-5977919D01*
X27079815Y-6044958D01*
X27027011Y-6090713D01*
X26957853Y-6100657D01*
X26894297Y-6071632D01*
X26860939Y-6025371D01*
X26798016Y-5873459D01*
X26798009Y-5873446D01*
X26699464Y-5725965D01*
X26699461Y-5725961D01*
X26574038Y-5600538D01*
X26574034Y-5600535D01*
X26426553Y-5501990D01*
X26426540Y-5501983D01*
X26262667Y-5434106D01*
X26262658Y-5434103D01*
X26088694Y-5399500D01*
X26088691Y-5399500D01*
X25911309Y-5399500D01*
X25911306Y-5399500D01*
X25737341Y-5434103D01*
X25737332Y-5434106D01*
X25573459Y-5501983D01*
X25573446Y-5501990D01*
X25425965Y-5600535D01*
X25425961Y-5600538D01*
X25300538Y-5725961D01*
X25300535Y-5725965D01*
X25201990Y-5873446D01*
X25201983Y-5873459D01*
X25134106Y-6037332D01*
X25134103Y-6037341D01*
X25099500Y-6211304D01*
X22900499Y-6211304D01*
X22865896Y-6037341D01*
X22865893Y-6037332D01*
X22798016Y-5873459D01*
X22798009Y-5873446D01*
X22699464Y-5725965D01*
X22699461Y-5725961D01*
X22574038Y-5600538D01*
X22574034Y-5600535D01*
X22426553Y-5501990D01*
X22426540Y-5501983D01*
X22262667Y-5434106D01*
X22262658Y-5434103D01*
X22088694Y-5399500D01*
X22088691Y-5399500D01*
X21911309Y-5399500D01*
X21911306Y-5399500D01*
X21737341Y-5434103D01*
X21737332Y-5434106D01*
X21573459Y-5501983D01*
X21573446Y-5501990D01*
X21425965Y-5600535D01*
X21425961Y-5600538D01*
X21300538Y-5725961D01*
X21300535Y-5725965D01*
X21201990Y-5873446D01*
X21201983Y-5873459D01*
X21134106Y-6037332D01*
X21134104Y-6037340D01*
X21121617Y-6100118D01*
X21089232Y-6162028D01*
X21028516Y-6196603D01*
X20958747Y-6192863D01*
X20902075Y-6151996D01*
X20878383Y-6100118D01*
X20869924Y-6057594D01*
X20865894Y-6037334D01*
X20841284Y-5977919D01*
X20798016Y-5873459D01*
X20798009Y-5873446D01*
X20699464Y-5725965D01*
X20699461Y-5725961D01*
X20574038Y-5600538D01*
X20574034Y-5600535D01*
X20426553Y-5501990D01*
X20426540Y-5501983D01*
X20262667Y-5434106D01*
X20262658Y-5434103D01*
X20088694Y-5399500D01*
X20088691Y-5399500D01*
X19911309Y-5399500D01*
X19911306Y-5399500D01*
X19737341Y-5434103D01*
X19737332Y-5434106D01*
X19573459Y-5501983D01*
X19573446Y-5501990D01*
X19425965Y-5600535D01*
X19425961Y-5600538D01*
X19300538Y-5725961D01*
X19300535Y-5725965D01*
X19201990Y-5873446D01*
X19201983Y-5873459D01*
X19134106Y-6037332D01*
X19134103Y-6037341D01*
X19099500Y-6211304D01*
X400000Y-6211304D01*
X400000Y-3878711D01*
X2149500Y-3878711D01*
X2149500Y-4121288D01*
X2180056Y-4353392D01*
X2181162Y-4361789D01*
X2191372Y-4399892D01*
X2243947Y-4596104D01*
X2336773Y-4820205D01*
X2336777Y-4820214D01*
X2350563Y-4844092D01*
X2458064Y-5030289D01*
X2458066Y-5030292D01*
X2458067Y-5030293D01*
X2605733Y-5222736D01*
X2605739Y-5222743D01*
X2777256Y-5394260D01*
X2777263Y-5394266D01*
X2890321Y-5481018D01*
X2969711Y-5541936D01*
X3179788Y-5663224D01*
X3403900Y-5756054D01*
X3638211Y-5818838D01*
X3818586Y-5842584D01*
X3878711Y-5850500D01*
X3878712Y-5850500D01*
X4121289Y-5850500D01*
X4169388Y-5844167D01*
X4361789Y-5818838D01*
X4596100Y-5756054D01*
X4820212Y-5663224D01*
X5030289Y-5541936D01*
X5222738Y-5394265D01*
X5394265Y-5222738D01*
X5541936Y-5030289D01*
X5663224Y-4820212D01*
X5756054Y-4596100D01*
X5818838Y-4361789D01*
X5850500Y-4121288D01*
X5850500Y-3878712D01*
X5849038Y-3867610D01*
X5832280Y-3740314D01*
X5818838Y-3638211D01*
X5756054Y-3403900D01*
X5663224Y-3179788D01*
X5541936Y-2969711D01*
X5497119Y-2911304D01*
X19099500Y-2911304D01*
X19099500Y-3088695D01*
X19134103Y-3262658D01*
X19134106Y-3262667D01*
X19201983Y-3426540D01*
X19201990Y-3426553D01*
X19300535Y-3574034D01*
X19300538Y-3574038D01*
X19425961Y-3699461D01*
X19425965Y-3699464D01*
X19573446Y-3798009D01*
X19573459Y-3798016D01*
X19684235Y-3843900D01*
X19737334Y-3865894D01*
X19737336Y-3865894D01*
X19737341Y-3865896D01*
X19911304Y-3900499D01*
X19911307Y-3900500D01*
X19911309Y-3900500D01*
X20088693Y-3900500D01*
X20088694Y-3900499D01*
X20156560Y-3887000D01*
X20262658Y-3865896D01*
X20262661Y-3865894D01*
X20262666Y-3865894D01*
X20426547Y-3798013D01*
X20574035Y-3699464D01*
X20699464Y-3574035D01*
X20798013Y-3426547D01*
X20865894Y-3262666D01*
X20877861Y-3202508D01*
X20878383Y-3199882D01*
X20910768Y-3137971D01*
X20971483Y-3103397D01*
X21041253Y-3107136D01*
X21097925Y-3148003D01*
X21121617Y-3199882D01*
X21134103Y-3262658D01*
X21134106Y-3262667D01*
X21201983Y-3426540D01*
X21201990Y-3426553D01*
X21300535Y-3574034D01*
X21300538Y-3574038D01*
X21425961Y-3699461D01*
X21425965Y-3699464D01*
X21573446Y-3798009D01*
X21573459Y-3798016D01*
X21684235Y-3843900D01*
X21737334Y-3865894D01*
X21737336Y-3865894D01*
X21737341Y-3865896D01*
X21911304Y-3900499D01*
X21911307Y-3900500D01*
X21911309Y-3900500D01*
X22088693Y-3900500D01*
X22088694Y-3900499D01*
X22156560Y-3887000D01*
X22262658Y-3865896D01*
X22262661Y-3865894D01*
X22262666Y-3865894D01*
X22426547Y-3798013D01*
X22574035Y-3699464D01*
X22699464Y-3574035D01*
X22798013Y-3426547D01*
X22865894Y-3262666D01*
X22900500Y-3088691D01*
X22900500Y-2911309D01*
X22900500Y-2911306D01*
X22900499Y-2911304D01*
X27099500Y-2911304D01*
X27099500Y-3088695D01*
X27134103Y-3262658D01*
X27134106Y-3262667D01*
X27201983Y-3426540D01*
X27201990Y-3426553D01*
X27300535Y-3574034D01*
X27300538Y-3574038D01*
X27425961Y-3699461D01*
X27425965Y-3699464D01*
X27573446Y-3798009D01*
X27573459Y-3798016D01*
X27684235Y-3843900D01*
X27737334Y-3865894D01*
X27737336Y-3865894D01*
X27737341Y-3865896D01*
X27911304Y-3900499D01*
X27911307Y-3900500D01*
X27911309Y-3900500D01*
X28088693Y-3900500D01*
X28088694Y-3900499D01*
X28156560Y-3887000D01*
X28198232Y-3878711D01*
X32149500Y-3878711D01*
X32149500Y-4121288D01*
X32180056Y-4353392D01*
X32181162Y-4361789D01*
X32191372Y-4399892D01*
X32243947Y-4596104D01*
X32336773Y-4820205D01*
X32336777Y-4820214D01*
X32350563Y-4844092D01*
X32458064Y-5030289D01*
X32458066Y-5030292D01*
X32458067Y-5030293D01*
X32605733Y-5222736D01*
X32605739Y-5222743D01*
X32777256Y-5394260D01*
X32777263Y-5394266D01*
X32890321Y-5481018D01*
X32969711Y-5541936D01*
X33179788Y-5663224D01*
X33403900Y-5756054D01*
X33638211Y-5818838D01*
X33818586Y-5842584D01*
X33878711Y-5850500D01*
X33878712Y-5850500D01*
X34121289Y-5850500D01*
X34169388Y-5844167D01*
X34361789Y-5818838D01*
X34596100Y-5756054D01*
X34820212Y-5663224D01*
X35030289Y-5541936D01*
X35222738Y-5394265D01*
X35394265Y-5222738D01*
X35541936Y-5030289D01*
X35663224Y-4820212D01*
X35756054Y-4596100D01*
X35818838Y-4361789D01*
X35841273Y-4191373D01*
X35842967Y-4178508D01*
X38723600Y-4178508D01*
X38723600Y-4310292D01*
X38730388Y-4335624D01*
X38757708Y-4437587D01*
X38771045Y-4460687D01*
X38823600Y-4551714D01*
X38916786Y-4644900D01*
X39030914Y-4710792D01*
X39158208Y-4744900D01*
X39158210Y-4744900D01*
X39289990Y-4744900D01*
X39289992Y-4744900D01*
X39417286Y-4710792D01*
X39531414Y-4644900D01*
X39624600Y-4551714D01*
X39690492Y-4437586D01*
X39724600Y-4310292D01*
X39724600Y-4221608D01*
X50319300Y-4221608D01*
X50319300Y-4353391D01*
X50353408Y-4480687D01*
X50371302Y-4511680D01*
X50419300Y-4594814D01*
X50512486Y-4688000D01*
X50626614Y-4753892D01*
X50753908Y-4788000D01*
X50753910Y-4788000D01*
X50885690Y-4788000D01*
X50885692Y-4788000D01*
X51012986Y-4753892D01*
X51127114Y-4688000D01*
X51220300Y-4594814D01*
X51227809Y-4581808D01*
X53107200Y-4581808D01*
X53107200Y-4713592D01*
X53107662Y-4715316D01*
X53141308Y-4840887D01*
X53160652Y-4874391D01*
X53207200Y-4955014D01*
X53300386Y-5048200D01*
X53414514Y-5114092D01*
X53541808Y-5148200D01*
X53541810Y-5148200D01*
X53673590Y-5148200D01*
X53673592Y-5148200D01*
X53800886Y-5114092D01*
X53915014Y-5048200D01*
X54008200Y-4955014D01*
X54074092Y-4840886D01*
X54108200Y-4713592D01*
X54108200Y-4581808D01*
X54074092Y-4454514D01*
X54008200Y-4340386D01*
X54008199Y-4340385D01*
X54005249Y-4336541D01*
X53980053Y-4271372D01*
X53994090Y-4202927D01*
X53994885Y-4201608D01*
X59068400Y-4201608D01*
X59068400Y-4333392D01*
X59073759Y-4353391D01*
X59102508Y-4460687D01*
X59114056Y-4480688D01*
X59168400Y-4574814D01*
X59261586Y-4668000D01*
X59375714Y-4733892D01*
X59503008Y-4768000D01*
X59503010Y-4768000D01*
X59634790Y-4768000D01*
X59634792Y-4768000D01*
X59762086Y-4733892D01*
X59876214Y-4668000D01*
X59969400Y-4574814D01*
X60035292Y-4460686D01*
X60069400Y-4333392D01*
X60069400Y-4308208D01*
X62705400Y-4308208D01*
X62705400Y-4439992D01*
X62716304Y-4480686D01*
X62739508Y-4567287D01*
X62755401Y-4594814D01*
X62805400Y-4681414D01*
X62898586Y-4774600D01*
X63012714Y-4840492D01*
X63140008Y-4874600D01*
X63140010Y-4874600D01*
X63271790Y-4874600D01*
X63271792Y-4874600D01*
X63399086Y-4840492D01*
X63513214Y-4774600D01*
X63606400Y-4681414D01*
X63672292Y-4567286D01*
X63706400Y-4439992D01*
X63706400Y-4308208D01*
X63672292Y-4180914D01*
X63606400Y-4066786D01*
X63513214Y-3973600D01*
X63449965Y-3937083D01*
X63399087Y-3907708D01*
X63290870Y-3878712D01*
X63271792Y-3873600D01*
X63140008Y-3873600D01*
X63012712Y-3907708D01*
X62898586Y-3973600D01*
X62898583Y-3973602D01*
X62805402Y-4066783D01*
X62805400Y-4066786D01*
X62739508Y-4180912D01*
X62718116Y-4260750D01*
X62705400Y-4308208D01*
X60069400Y-4308208D01*
X60069400Y-4201608D01*
X60035292Y-4074314D01*
X60033022Y-4070383D01*
X60021954Y-4051212D01*
X59969400Y-3960186D01*
X59876214Y-3867000D01*
X59796727Y-3821108D01*
X59762087Y-3801108D01*
X59698439Y-3784054D01*
X59634792Y-3767000D01*
X59503008Y-3767000D01*
X59375712Y-3801108D01*
X59261586Y-3867000D01*
X59261583Y-3867002D01*
X59168402Y-3960183D01*
X59168400Y-3960186D01*
X59102508Y-4074312D01*
X59074589Y-4178510D01*
X59068400Y-4201608D01*
X53994885Y-4201608D01*
X54001052Y-4191373D01*
X54007642Y-4181671D01*
X54020700Y-4168614D01*
X54086592Y-4054486D01*
X54120700Y-3927192D01*
X54120700Y-3795408D01*
X54086592Y-3668114D01*
X54049003Y-3603008D01*
X60999100Y-3603008D01*
X60999100Y-3734792D01*
X61010680Y-3778008D01*
X61033208Y-3862087D01*
X61055386Y-3900499D01*
X61099100Y-3976214D01*
X61192286Y-4069400D01*
X61306414Y-4135292D01*
X61433708Y-4169400D01*
X61433710Y-4169400D01*
X61565490Y-4169400D01*
X61565492Y-4169400D01*
X61692786Y-4135292D01*
X61806914Y-4069400D01*
X61900100Y-3976214D01*
X61962804Y-3867608D01*
X73950900Y-3867608D01*
X73950900Y-3999391D01*
X73985008Y-4126687D01*
X74014929Y-4178510D01*
X74050900Y-4240814D01*
X74144086Y-4334000D01*
X74258214Y-4399892D01*
X74385508Y-4434000D01*
X74385510Y-4434000D01*
X74517290Y-4434000D01*
X74517292Y-4434000D01*
X74644586Y-4399892D01*
X74758714Y-4334000D01*
X74851900Y-4240814D01*
X74851906Y-4240802D01*
X74853990Y-4238088D01*
X74856348Y-4236365D01*
X74857647Y-4235067D01*
X74857849Y-4235269D01*
X74910414Y-4196880D01*
X74980160Y-4192718D01*
X75041083Y-4226925D01*
X75073842Y-4288639D01*
X75072504Y-4333833D01*
X75074161Y-4334052D01*
X75073100Y-4342106D01*
X75073100Y-4342108D01*
X75073100Y-4473892D01*
X75090154Y-4537539D01*
X75107208Y-4601187D01*
X75132446Y-4644899D01*
X75173100Y-4715314D01*
X75266286Y-4808500D01*
X75380414Y-4874392D01*
X75507708Y-4908500D01*
X75507710Y-4908500D01*
X75639490Y-4908500D01*
X75639492Y-4908500D01*
X75766786Y-4874392D01*
X75880914Y-4808500D01*
X75974100Y-4715314D01*
X76039992Y-4601186D01*
X76074100Y-4473892D01*
X76074100Y-4342108D01*
X76041812Y-4221608D01*
X79416300Y-4221608D01*
X79416300Y-4353391D01*
X79450408Y-4480687D01*
X79468302Y-4511680D01*
X79516300Y-4594814D01*
X79609486Y-4688000D01*
X79723614Y-4753892D01*
X79850908Y-4788000D01*
X79850910Y-4788000D01*
X79982690Y-4788000D01*
X79982692Y-4788000D01*
X80109986Y-4753892D01*
X80224114Y-4688000D01*
X80317300Y-4594814D01*
X80383192Y-4480686D01*
X80417300Y-4353392D01*
X80417300Y-4322908D01*
X83094100Y-4322908D01*
X83094100Y-4454692D01*
X83109370Y-4511680D01*
X83128208Y-4581987D01*
X83161154Y-4639050D01*
X83194100Y-4696114D01*
X83287286Y-4789300D01*
X83401414Y-4855192D01*
X83528708Y-4889300D01*
X83528710Y-4889300D01*
X83660490Y-4889300D01*
X83660492Y-4889300D01*
X83787786Y-4855192D01*
X83901914Y-4789300D01*
X83995100Y-4696114D01*
X84060992Y-4581986D01*
X84095100Y-4454692D01*
X84095100Y-4322908D01*
X84092126Y-4311808D01*
X87629500Y-4311808D01*
X87629500Y-4443592D01*
X87639440Y-4480688D01*
X87663608Y-4570887D01*
X87681102Y-4601187D01*
X87729500Y-4685014D01*
X87822686Y-4778200D01*
X87921521Y-4835263D01*
X87930578Y-4840492D01*
X87936814Y-4844092D01*
X88064108Y-4878200D01*
X88064110Y-4878200D01*
X88195890Y-4878200D01*
X88195892Y-4878200D01*
X88323186Y-4844092D01*
X88437314Y-4778200D01*
X88530500Y-4685014D01*
X88596392Y-4570886D01*
X88630500Y-4443592D01*
X88630500Y-4311808D01*
X88596392Y-4184514D01*
X88592924Y-4178508D01*
X88573361Y-4144624D01*
X88530500Y-4070386D01*
X88437314Y-3977200D01*
X88367835Y-3937086D01*
X88323187Y-3911308D01*
X88237318Y-3888300D01*
X88195892Y-3877200D01*
X88064108Y-3877200D01*
X87936812Y-3911308D01*
X87822686Y-3977200D01*
X87822683Y-3977202D01*
X87729502Y-4070383D01*
X87729500Y-4070386D01*
X87663608Y-4184512D01*
X87648522Y-4240816D01*
X87629500Y-4311808D01*
X84092126Y-4311808D01*
X84060992Y-4195614D01*
X84058543Y-4191373D01*
X84045405Y-4168617D01*
X83995100Y-4081486D01*
X83901914Y-3988300D01*
X83844850Y-3955354D01*
X83787787Y-3922408D01*
X83706023Y-3900500D01*
X83660492Y-3888300D01*
X83528708Y-3888300D01*
X83401412Y-3922408D01*
X83287286Y-3988300D01*
X83287283Y-3988302D01*
X83194102Y-4081483D01*
X83194100Y-4081486D01*
X83128208Y-4195612D01*
X83116096Y-4240816D01*
X83094100Y-4322908D01*
X80417300Y-4322908D01*
X80417300Y-4221608D01*
X80383192Y-4094314D01*
X80317300Y-3980186D01*
X80224114Y-3887000D01*
X80167050Y-3854054D01*
X80109987Y-3821108D01*
X80035344Y-3801108D01*
X79982692Y-3787000D01*
X79850908Y-3787000D01*
X79723612Y-3821108D01*
X79609486Y-3887000D01*
X79609483Y-3887002D01*
X79516302Y-3980183D01*
X79516300Y-3980186D01*
X79450408Y-4094312D01*
X79416300Y-4221608D01*
X76041812Y-4221608D01*
X76039992Y-4214814D01*
X75974100Y-4100686D01*
X75880914Y-4007500D01*
X75822198Y-3973600D01*
X75766787Y-3941608D01*
X75695130Y-3922408D01*
X75639492Y-3907500D01*
X75507708Y-3907500D01*
X75380412Y-3941608D01*
X75266286Y-4007500D01*
X75266283Y-4007502D01*
X75173101Y-4100684D01*
X75171000Y-4103423D01*
X75168639Y-4105146D01*
X75167353Y-4106433D01*
X75167152Y-4106232D01*
X75114571Y-4144624D01*
X75044825Y-4148777D01*
X74983905Y-4114563D01*
X74951154Y-4052845D01*
X74952499Y-4007666D01*
X74950839Y-4007448D01*
X74951900Y-3999390D01*
X74951900Y-3867610D01*
X74951900Y-3867608D01*
X74917792Y-3740314D01*
X74851900Y-3626186D01*
X74758714Y-3533000D01*
X74701650Y-3500054D01*
X74644587Y-3467108D01*
X74580939Y-3450054D01*
X74517292Y-3433000D01*
X74385508Y-3433000D01*
X74258212Y-3467108D01*
X74144086Y-3533000D01*
X74144083Y-3533002D01*
X74050902Y-3626183D01*
X74050900Y-3626186D01*
X73985008Y-3740312D01*
X73950900Y-3867608D01*
X61962804Y-3867608D01*
X61965992Y-3862086D01*
X62000100Y-3734792D01*
X62000100Y-3603008D01*
X61965992Y-3475714D01*
X61900100Y-3361586D01*
X61806914Y-3268400D01*
X61749850Y-3235454D01*
X61692787Y-3202508D01*
X61607993Y-3179788D01*
X61565492Y-3168400D01*
X61433708Y-3168400D01*
X61306412Y-3202508D01*
X61192286Y-3268400D01*
X61192283Y-3268402D01*
X61099102Y-3361583D01*
X61099100Y-3361586D01*
X61033208Y-3475712D01*
X61017858Y-3533000D01*
X60999100Y-3603008D01*
X54049003Y-3603008D01*
X54032277Y-3574038D01*
X54020702Y-3553989D01*
X54020697Y-3553983D01*
X53927516Y-3460802D01*
X53927514Y-3460800D01*
X53828961Y-3403900D01*
X53813387Y-3394908D01*
X53749739Y-3377854D01*
X53686092Y-3360800D01*
X53554308Y-3360800D01*
X53427012Y-3394908D01*
X53312886Y-3460800D01*
X53312883Y-3460802D01*
X53219702Y-3553983D01*
X53219700Y-3553986D01*
X53153808Y-3668112D01*
X53135942Y-3734790D01*
X53119700Y-3795408D01*
X53119700Y-3927192D01*
X53133100Y-3977202D01*
X53153808Y-4054487D01*
X53192376Y-4121288D01*
X53200461Y-4135292D01*
X53219702Y-4168617D01*
X53222651Y-4172460D01*
X53247846Y-4237629D01*
X53233808Y-4306074D01*
X53211961Y-4335624D01*
X53207204Y-4340380D01*
X53207200Y-4340386D01*
X53141308Y-4454512D01*
X53110126Y-4570887D01*
X53107200Y-4581808D01*
X51227809Y-4581808D01*
X51286192Y-4480686D01*
X51320300Y-4353392D01*
X51320300Y-4221608D01*
X51286192Y-4094314D01*
X51220300Y-3980186D01*
X51127114Y-3887000D01*
X51070050Y-3854054D01*
X51012987Y-3821108D01*
X50938344Y-3801108D01*
X50885692Y-3787000D01*
X50753908Y-3787000D01*
X50626612Y-3821108D01*
X50512486Y-3887000D01*
X50512483Y-3887002D01*
X50419302Y-3980183D01*
X50419300Y-3980186D01*
X50353408Y-4094312D01*
X50319300Y-4221608D01*
X39724600Y-4221608D01*
X39724600Y-4178508D01*
X39690492Y-4051214D01*
X39624600Y-3937086D01*
X39531414Y-3843900D01*
X39474350Y-3810954D01*
X39417287Y-3778008D01*
X39353639Y-3760954D01*
X39289992Y-3743900D01*
X39158208Y-3743900D01*
X39030912Y-3778008D01*
X38916786Y-3843900D01*
X38916783Y-3843902D01*
X38823602Y-3937083D01*
X38823600Y-3937086D01*
X38757708Y-4051212D01*
X38730114Y-4154196D01*
X38723600Y-4178508D01*
X35842967Y-4178508D01*
X35846168Y-4154196D01*
X35846168Y-4154195D01*
X35850500Y-4121290D01*
X35850500Y-3878711D01*
X35832280Y-3740314D01*
X35818838Y-3638211D01*
X35756054Y-3403900D01*
X35663224Y-3179788D01*
X35541936Y-2969711D01*
X35451610Y-2851996D01*
X35394266Y-2777263D01*
X35394260Y-2777256D01*
X35222743Y-2605739D01*
X35222736Y-2605733D01*
X35030293Y-2458067D01*
X35030292Y-2458066D01*
X35030289Y-2458064D01*
X34887961Y-2375891D01*
X34831632Y-2343369D01*
X34831631Y-2343369D01*
X34820213Y-2336777D01*
X34820212Y-2336776D01*
X34732721Y-2300536D01*
X34596493Y-2244108D01*
X50787800Y-2244108D01*
X50787800Y-2375891D01*
X50821908Y-2503187D01*
X50854854Y-2560250D01*
X50887800Y-2617314D01*
X50980986Y-2710500D01*
X51095114Y-2776392D01*
X51222408Y-2810500D01*
X51222410Y-2810500D01*
X51354190Y-2810500D01*
X51354192Y-2810500D01*
X51481486Y-2776392D01*
X51595614Y-2710500D01*
X51688800Y-2617314D01*
X51754692Y-2503186D01*
X51788800Y-2375892D01*
X51788800Y-2244108D01*
X51754692Y-2116814D01*
X51688800Y-2002686D01*
X51595614Y-1909500D01*
X51538550Y-1876554D01*
X51481487Y-1843608D01*
X51417839Y-1826554D01*
X51354192Y-1809500D01*
X51222408Y-1809500D01*
X51095112Y-1843608D01*
X50980986Y-1909500D01*
X50980983Y-1909502D01*
X50887802Y-2002683D01*
X50887800Y-2002686D01*
X50821908Y-2116812D01*
X50787800Y-2244108D01*
X34596493Y-2244108D01*
X34596104Y-2243947D01*
X34361785Y-2181161D01*
X34121289Y-2149500D01*
X34121288Y-2149500D01*
X33878712Y-2149500D01*
X33878711Y-2149500D01*
X33638214Y-2181161D01*
X33403895Y-2243947D01*
X33179794Y-2336773D01*
X33179785Y-2336777D01*
X32969706Y-2458067D01*
X32777263Y-2605733D01*
X32777256Y-2605739D01*
X32605739Y-2777256D01*
X32605733Y-2777263D01*
X32458067Y-2969706D01*
X32336777Y-3179785D01*
X32336773Y-3179794D01*
X32243947Y-3403895D01*
X32181161Y-3638214D01*
X32149500Y-3878711D01*
X28198232Y-3878711D01*
X28262658Y-3865896D01*
X28262661Y-3865894D01*
X28262666Y-3865894D01*
X28426547Y-3798013D01*
X28443029Y-3787000D01*
X28466151Y-3771551D01*
X28522345Y-3734002D01*
X28574035Y-3699464D01*
X28699464Y-3574035D01*
X28798013Y-3426547D01*
X28865894Y-3262666D01*
X28900500Y-3088691D01*
X28900500Y-2911309D01*
X28900500Y-2911306D01*
X28900499Y-2911304D01*
X28865896Y-2737341D01*
X28865893Y-2737332D01*
X28798016Y-2573459D01*
X28798009Y-2573446D01*
X28699464Y-2425965D01*
X28699461Y-2425961D01*
X28574038Y-2300538D01*
X28574034Y-2300535D01*
X28426553Y-2201990D01*
X28426540Y-2201983D01*
X28262667Y-2134106D01*
X28262658Y-2134103D01*
X28088694Y-2099500D01*
X28088691Y-2099500D01*
X27911309Y-2099500D01*
X27911306Y-2099500D01*
X27737341Y-2134103D01*
X27737332Y-2134106D01*
X27573459Y-2201983D01*
X27573446Y-2201990D01*
X27425965Y-2300535D01*
X27425961Y-2300538D01*
X27300538Y-2425961D01*
X27300535Y-2425965D01*
X27201990Y-2573446D01*
X27201983Y-2573459D01*
X27134106Y-2737332D01*
X27134103Y-2737341D01*
X27099500Y-2911304D01*
X22900499Y-2911304D01*
X22865896Y-2737341D01*
X22865893Y-2737332D01*
X22798016Y-2573459D01*
X22798009Y-2573446D01*
X22699464Y-2425965D01*
X22699461Y-2425961D01*
X22574038Y-2300538D01*
X22574034Y-2300535D01*
X22426553Y-2201990D01*
X22426540Y-2201983D01*
X22262667Y-2134106D01*
X22262658Y-2134103D01*
X22088694Y-2099500D01*
X22088691Y-2099500D01*
X21911309Y-2099500D01*
X21911306Y-2099500D01*
X21737341Y-2134103D01*
X21737332Y-2134106D01*
X21573459Y-2201983D01*
X21573446Y-2201990D01*
X21425965Y-2300535D01*
X21425961Y-2300538D01*
X21300538Y-2425961D01*
X21300535Y-2425965D01*
X21201990Y-2573446D01*
X21201983Y-2573459D01*
X21134106Y-2737332D01*
X21134104Y-2737340D01*
X21121617Y-2800118D01*
X21089232Y-2862028D01*
X21028516Y-2896603D01*
X20958747Y-2892863D01*
X20902075Y-2851996D01*
X20878383Y-2800118D01*
X20865895Y-2737340D01*
X20865894Y-2737334D01*
X20848923Y-2696363D01*
X20798016Y-2573459D01*
X20798009Y-2573446D01*
X20699464Y-2425965D01*
X20699461Y-2425961D01*
X20574038Y-2300538D01*
X20574034Y-2300535D01*
X20426553Y-2201990D01*
X20426540Y-2201983D01*
X20262667Y-2134106D01*
X20262658Y-2134103D01*
X20088694Y-2099500D01*
X20088691Y-2099500D01*
X19911309Y-2099500D01*
X19911306Y-2099500D01*
X19737341Y-2134103D01*
X19737332Y-2134106D01*
X19573459Y-2201983D01*
X19573446Y-2201990D01*
X19425965Y-2300535D01*
X19425961Y-2300538D01*
X19300538Y-2425961D01*
X19300535Y-2425965D01*
X19201990Y-2573446D01*
X19201983Y-2573459D01*
X19134106Y-2737332D01*
X19134103Y-2737341D01*
X19099500Y-2911304D01*
X5497119Y-2911304D01*
X5394265Y-2777262D01*
X5394260Y-2777256D01*
X5222743Y-2605739D01*
X5222736Y-2605733D01*
X5030293Y-2458067D01*
X5030292Y-2458066D01*
X5030289Y-2458064D01*
X4858661Y-2358974D01*
X4820214Y-2336777D01*
X4820205Y-2336773D01*
X4596104Y-2243947D01*
X4361785Y-2181161D01*
X4121289Y-2149500D01*
X4121288Y-2149500D01*
X3878712Y-2149500D01*
X3878711Y-2149500D01*
X3638214Y-2181161D01*
X3403895Y-2243947D01*
X3179794Y-2336773D01*
X3179785Y-2336777D01*
X2969706Y-2458067D01*
X2777263Y-2605733D01*
X2777256Y-2605739D01*
X2605739Y-2777256D01*
X2605733Y-2777263D01*
X2458067Y-2969706D01*
X2336777Y-3179785D01*
X2336773Y-3179794D01*
X2243947Y-3403895D01*
X2181161Y-3638214D01*
X2149500Y-3878711D01*
X400000Y-3878711D01*
X400000Y-524000D01*
X419685Y-456961D01*
X472489Y-411206D01*
X524000Y-400000D01*
X89476000Y-400000D01*
X89543039Y-419685D01*
G37*
%TD.AperFunction*%
%TD*%
D25*
X10000000Y-10000000D03*
D26*
X64892997Y-56578195D03*
X40000000Y-38710000D03*
X55562373Y-27972400D03*
X61981836Y-41520217D03*
X40000000Y-41290000D03*
X51603195Y-47665500D03*
X48520000Y-43250000D03*
X38710000Y-38710000D03*
X53965500Y-58678195D03*
X50903195Y-38412228D03*
X47025133Y-30772400D03*
X72228194Y-46064063D03*
X63895636Y-51081100D03*
X70892334Y-31849100D03*
X72228194Y-50556000D03*
X59335000Y-44665000D03*
X38710000Y-41290000D03*
X24464000Y-27115500D03*
X33375499Y-48070369D03*
X63624599Y-60803600D03*
X59335000Y-43335000D03*
X42590500Y-53310564D03*
X72228194Y-39571551D03*
D25*
X35665200Y-40450400D03*
X34962500Y-50062500D03*
X40298200Y-30550000D03*
X39250000Y-35672100D03*
X38287700Y-34883500D03*
X33946900Y-28608700D03*
X50531400Y-44750000D03*
X34883000Y-27052400D03*
X23700000Y-30000000D03*
X42250000Y-35141100D03*
X50853400Y-41467500D03*
X39253800Y-34106200D03*
X38646200Y-53483700D03*
X40761200Y-45719900D03*
X42723000Y-44340900D03*
X76406400Y-53906400D03*
X72154400Y-38547200D03*
X23700000Y-33800000D03*
X61250000Y-55852900D03*
X72272200Y-41997900D03*
X42410000Y-23745600D03*
X74000000Y-27180300D03*
X68152400Y-36336900D03*
X35667100Y-37255300D03*
X33225000Y-44439800D03*
X29675000Y-35118300D03*
X23900000Y-48200000D03*
X27373300Y-45373700D03*
X52380000Y-52657800D03*
X55836000Y-35863700D03*
X79115000Y-27200700D03*
X74094200Y-50651100D03*
X34168000Y-24969300D03*
X25173600Y-28100000D03*
X23700000Y-36200000D03*
X18800000Y-12000000D03*
X17400000Y-11000000D03*
X23700000Y-38800000D03*
X55322000Y-53440000D03*
X88130000Y-4377700D03*
X54750000Y-52932900D03*
X83594600Y-4388800D03*
X54177900Y-53448800D03*
X54598500Y-47244600D03*
X62608000Y-47244600D03*
X79916800Y-4287500D03*
X53547500Y-52998900D03*
X55035300Y-39387500D03*
X75573600Y-4408000D03*
X61839300Y-39387500D03*
X53250000Y-55866900D03*
X61794900Y-52692900D03*
X74451400Y-3933500D03*
X53297100Y-19172000D03*
X52750000Y-53472700D03*
X52227700Y-55859700D03*
X52163000Y-17957000D03*
X50721800Y-55635900D03*
X63205900Y-4374100D03*
X62187700Y-51022400D03*
X61499600Y-3668900D03*
X57467300Y-55857900D03*
X57294600Y-52149700D03*
X60901500Y-50496300D03*
X59568900Y-4267500D03*
X59005700Y-50438700D03*
X53607700Y-4647700D03*
X53620200Y-3861300D03*
X58257500Y-55856900D03*
X60259500Y-51655600D03*
X51288300Y-2310000D03*
X50819800Y-4287500D03*
X59016300Y-52219400D03*
X59564900Y-52734000D03*
X47910100Y-7212500D03*
X39224100Y-4244400D03*
X59988400Y-53373800D03*
X74402400Y-36065300D03*
X63166200Y-25498100D03*
X62604800Y-53059200D03*
X87157500Y-23341200D03*
X76593400Y-55738100D03*
X56081500Y-35098500D03*
X69448700Y-33496900D03*
X36701800Y-32128100D03*
X59250000Y-32128100D03*
X40516700Y-44397700D03*
X72492900Y-31216700D03*
X59381300Y-34541000D03*
X47485400Y-50407300D03*
X44626100Y-46291700D03*
X50529900Y-43873500D03*
X46646900Y-42852600D03*
X51602600Y-45750000D03*
X44210200Y-33717800D03*
X20000000Y-42788600D03*
X18100000Y-9000000D03*
D26*
X72000000Y-47250000D03*
D25*
X46155600Y-35089000D03*
X50546300Y-39250000D03*
X46513100Y-40792100D03*
X51324600Y-40250000D03*
X50528900Y-46750000D03*
X46539600Y-47695300D03*
X44681200Y-50101000D03*
X50556000Y-47750000D03*
X48134300Y-51383700D03*
X41693800Y-35671200D03*
X73507900Y-51568800D03*
X69465700Y-42640500D03*
X78586100Y-49086100D03*
X69442900Y-39250000D03*
X16700000Y-8000000D03*
X23700000Y-41800000D03*
X16000000Y-10000000D03*
X25000000Y-47500000D03*
D27*
X17000000Y-57000000D03*
X34000000Y-62800000D03*
X34000000Y-65340000D03*
X34000000Y-67880000D03*
X22000000Y-57000000D03*
X85500000Y-41000000D03*
X82960000Y-41000000D03*
X4000000Y-66000000D03*
X72000000Y-68200000D03*
X74540000Y-68200000D03*
X85500000Y-29000000D03*
X82960000Y-29000000D03*
X14000000Y-65000000D03*
X14000000Y-62460000D03*
X16540000Y-65000000D03*
X16540000Y-62460000D03*
X19080000Y-65000000D03*
X19080000Y-62460000D03*
X21620000Y-65000000D03*
X21620000Y-62460000D03*
X24160000Y-65000000D03*
X24160000Y-62460000D03*
X32000000Y-57000000D03*
X13000000Y-49000000D03*
X15540000Y-49000000D03*
X21500000Y-31000000D03*
X21500000Y-26000000D03*
X21500000Y-35000000D03*
X21500000Y-37540000D03*
X21500000Y-40080000D03*
X85500000Y-47000000D03*
X82960000Y-47000000D03*
X12000000Y-57000000D03*
X82010000Y-52750000D03*
X82010000Y-59760000D03*
X84500000Y-54000000D03*
X84500000Y-58500000D03*
X85500000Y-35000000D03*
X82960000Y-35000000D03*
X4000000Y-4000000D03*
X28000000Y-6300000D03*
X26000000Y-6300000D03*
X22000000Y-6300000D03*
X20000000Y-6300000D03*
X20000000Y-3000000D03*
X22000000Y-3000000D03*
X26000000Y-3000000D03*
X28000000Y-3000000D03*
X27000000Y-57000000D03*
X34000000Y-4000000D03*
X82000000Y-66000000D03*
X3420000Y-40080000D03*
X13580000Y-29920000D03*
X8500000Y-35000000D03*
X11040000Y-35000000D03*
M02*
